<svg width="143" height="42" viewBox="0 0 143 42" fill="none" xmlns="http://www.w3.org/2000/svg">
<rect width="41.3295" height="41.3295" rx="8" fill="#0F172A"/>
<mask id="mask0_12_37" style="mask-type:alpha" maskUnits="userSpaceOnUse" x="8" y="8" width="25" height="25">
<rect x="8" y="8" width="25" height="25" fill="#D9D9D9"/>
</mask>
<g mask="url(#mask0_12_37)">
<path fill-rule="evenodd" clip-rule="evenodd" d="M25.3138 14.9788C24.7037 14.8768 24.073 14.8395 23.4295 14.8739C18.6909 15.1275 15.0551 19.1745 15.3087 23.9131C15.3431 24.5565 15.4475 25.1796 15.6141 25.7754C11.7306 25.1262 8.67833 21.8546 8.45917 17.7595C8.20558 13.0208 11.8414 8.97386 16.58 8.72027C20.6752 8.50111 24.2538 11.1868 25.3138 14.9788Z" fill="white"/>
<path fill-rule="evenodd" clip-rule="evenodd" d="M15.6227 25.7832C16.2328 25.8852 16.8634 25.9225 17.5068 25.888C22.2454 25.6344 25.8812 21.5875 25.6276 16.8488C25.5932 16.2054 25.4888 15.5823 25.3223 14.9865C29.2058 15.6357 32.2582 18.9073 32.4773 23.0025C32.7309 27.7411 29.0951 31.7881 24.3565 32.0417C20.2613 32.2609 16.6827 29.5751 15.6227 25.7832Z" fill="white"/>
</g>
<path d="M84.3885 27.9271C83.3043 29.0188 81.9807 29.5647 80.4177 29.5647C78.8548 29.5647 77.5312 29.0188 76.447 27.9271C75.3768 26.821 74.8417 25.4706 74.8417 23.8761C74.8417 22.2816 75.3768 20.9385 76.447 19.8468C77.5312 18.7407 78.8548 18.1876 80.4177 18.1876C81.9807 18.1876 83.3043 18.7407 84.3885 19.8468C85.4727 20.9385 86.0149 22.2816 86.0149 23.8761C86.0149 25.4706 85.4727 26.821 84.3885 27.9271ZM78.369 26.0093C78.9181 26.5696 79.601 26.8497 80.4177 26.8497C81.2344 26.8497 81.9173 26.5696 82.4665 26.0093C83.0156 25.4491 83.2902 24.738 83.2902 23.8761C83.2902 23.0142 83.0156 22.3032 82.4665 21.7429C81.9173 21.1827 81.2344 20.9026 80.4177 20.9026C79.601 20.9026 78.9181 21.1827 78.369 21.7429C77.8339 22.3032 77.5664 23.0142 77.5664 23.8761C77.5664 24.738 77.8339 25.4491 78.369 26.0093Z" fill="#0F172A"/>
<path d="M93.5921 18.1876C94.7467 18.1876 95.6972 18.5826 96.4435 19.3727C97.2038 20.1628 97.584 21.2545 97.584 22.6479V29.263H94.8594V22.9927C94.8594 22.2744 94.6693 21.7286 94.2891 21.3551C93.9089 20.9672 93.402 20.7733 92.7684 20.7733C92.0643 20.7733 91.5011 20.996 91.0787 21.4413C90.6562 21.8866 90.445 22.5546 90.445 23.4452V29.263H87.7204V18.4893H90.445V19.6959C91.1068 18.6904 92.1558 18.1876 93.5921 18.1876Z" fill="#0F172A"/>
<path d="M105.74 21.1612H103.353V25.643C103.353 26.0165 103.445 26.2895 103.628 26.4618C103.811 26.6342 104.078 26.7348 104.43 26.7635C104.782 26.7779 105.219 26.7707 105.74 26.742V29.263C103.867 29.4785 102.544 29.2989 101.769 28.7243C101.009 28.1497 100.629 27.1226 100.629 25.643V21.1612H98.791V18.4893H100.629V16.313L103.353 15.4726V18.4893H105.74V21.1612Z" fill="#0F172A"/>
<path d="M109.422 25.0182C109.788 26.3685 110.781 27.0436 112.4 27.0436C113.442 27.0436 114.231 26.6845 114.766 25.9662L116.962 27.2591C115.92 28.7961 114.385 29.5647 112.358 29.5647C110.612 29.5647 109.211 29.026 108.155 27.9486C107.099 26.8712 106.571 25.5137 106.571 23.8761C106.571 22.2529 107.092 20.9026 108.134 19.8252C109.176 18.7335 110.513 18.1876 112.147 18.1876C113.695 18.1876 114.97 18.7335 115.969 19.8252C116.983 20.9169 117.49 22.2673 117.49 23.8761C117.49 24.2353 117.455 24.6159 117.385 25.0182H109.422ZM109.38 22.8634H114.766C114.611 22.1308 114.287 21.5849 113.794 21.2258C113.315 20.8667 112.766 20.6871 112.147 20.6871C111.414 20.6871 110.809 20.881 110.33 21.2689C109.851 21.6424 109.535 22.1739 109.38 22.8634Z" fill="#0F172A"/>
<path d="M128.32 29.263H125.173L122.892 25.9878L120.589 29.263H117.442L121.308 23.7684L117.611 18.4893H120.758L122.892 21.5275L125.025 18.4893H128.151L124.455 23.7468L128.32 29.263Z" fill="#0F172A"/>
<path d="M135.509 21.1612H133.123V25.643C133.123 26.0165 133.214 26.2895 133.397 26.4618C133.58 26.6342 133.848 26.7348 134.2 26.7635C134.552 26.7779 134.988 26.7707 135.509 26.742V29.263C133.637 29.4785 132.313 29.2989 131.538 28.7243C130.778 28.1497 130.398 27.1226 130.398 25.643V21.1612H128.56V18.4893H130.398V16.313L133.123 15.4726V18.4893H135.509V21.1612Z" fill="#0F172A"/>
<path fill-rule="evenodd" clip-rule="evenodd" d="M63.9605 26.5695C67.3324 26.5695 70.0658 23.7809 70.0658 20.341C70.0658 16.901 67.3324 14.1124 63.9605 14.1124C60.5886 14.1124 57.8551 16.901 57.8551 20.341C57.8551 23.7809 60.5886 26.5695 63.9605 26.5695ZM63.9605 29.9363C69.155 29.9363 73.366 25.6404 73.366 20.341C73.366 15.0416 69.155 10.7456 63.9605 10.7456C58.7659 10.7456 54.5549 15.0416 54.5549 20.341C54.5549 25.6404 58.7659 29.9363 63.9605 29.9363Z" fill="#0F172A"/>
<path d="M73.292 30.5838L73.6867 27.6034C68.7932 26.9084 66.1003 22.3201 65.3655 20.1129L62.4919 21.2675C64.964 27.8645 70.722 30.2271 73.292 30.5838Z" fill="#0F172A"/>
<path d="M138.388 19.0021H137.72V18.4893H139.676V19.0021H139.003V21.1827H138.388V19.0021ZM139.971 18.4893H140.768L141.456 20.3871H141.505L142.184 18.4893H143V21.1827H142.42V19.3615H142.371L141.717 21.1827H141.255L140.601 19.3615H140.552V21.1827H139.971V18.4893Z" fill="#0F172A"/>
</svg>
