<svg width="186" height="186" viewBox="0 0 186 186" fill="none" xmlns="http://www.w3.org/2000/svg">
<g clip-path="url(#clip0_39_402)">
<path d="M93.0003 185.389C144.025 185.389 185.389 144.024 185.389 93C185.389 41.975 144.025 0.611023 93.0003 0.611023C41.9753 0.611023 0.611328 41.975 0.611328 93C0.611328 144.024 41.9753 185.389 93.0003 185.389Z" fill="white"/>
<path d="M93 186C68.1613 186 44.7892 176.315 27.2523 158.748C9.68495 141.211 0 117.839 0 93C0 68.1613 9.68495 44.8196 27.2523 27.2523C44.8196 9.68495 68.1613 0 93 0C117.839 0 141.211 9.68495 158.779 27.2523C176.346 44.8196 186.031 68.1613 186.031 93.0306C186.031 117.9 176.346 141.242 158.779 158.808C141.211 176.346 117.839 186 93 186ZM93 1.22208C68.4974 1.22208 45.4307 10.7543 28.1078 28.1078C10.7543 45.4307 1.22208 68.4974 1.22208 93C1.22208 117.503 10.7543 140.57 28.1078 157.893C45.4307 175.216 68.4974 184.777 93 184.777C117.503 184.777 140.57 175.245 157.893 157.893C175.216 140.57 184.777 117.503 184.777 93C184.777 68.4974 175.245 45.4307 157.893 28.1078C140.57 10.7543 117.533 1.22208 93 1.22208Z" fill="#D2D2D2"/>
<path d="M92.8778 162.414C131.214 162.414 162.291 131.336 162.291 93C162.291 54.6638 131.214 23.586 92.8778 23.586C54.5415 23.586 23.4639 54.6638 23.4639 93C23.4639 131.336 54.5415 162.414 92.8778 162.414Z" fill="white"/>
<path d="M92.8785 163.025C74.1808 163.025 56.5829 155.753 43.3539 142.525C30.1249 129.296 22.8535 111.728 22.8535 93C22.8535 74.2717 30.1249 56.7043 43.3539 43.4753C56.5829 30.2769 74.1808 22.975 92.8785 22.975C111.576 22.975 129.174 30.2769 142.372 43.4753C155.602 56.7043 162.872 74.2717 162.872 93C162.872 111.728 155.602 129.296 142.372 142.525C129.174 155.753 111.576 163.025 92.8785 163.025ZM92.8785 24.1971C74.4863 24.1971 57.2244 31.3462 44.2398 44.3614C31.2554 57.3765 24.0757 74.6383 24.0757 93C24.0757 111.362 31.2248 128.654 44.2398 141.638C57.255 154.623 74.5169 161.803 92.8785 161.803C111.271 161.803 128.532 154.654 141.517 141.638C154.501 128.623 161.682 111.362 161.682 93C161.682 74.6383 154.532 57.3459 141.517 44.3614C128.502 31.3768 111.24 24.1971 92.8785 24.1971Z" fill="#D2D2D2"/>
<path d="M107.054 9.44055L108.032 9.65442L107.36 12.8623L111.454 13.7178L112.126 10.5099L113.103 10.7237L111.545 18.3312L110.568 18.1172L111.301 14.5733L107.207 13.7178L106.474 17.2619L105.496 17.0479L107.054 9.44055Z" fill="#D2D2D2"/>
<path d="M115.547 11.3958L116.524 11.6708L114.416 19.1255L113.438 18.8506L115.547 11.3958Z" fill="#D2D2D2"/>
<path d="M117.839 19.9199C117.38 19.3699 117.075 18.7283 116.953 17.9951C116.83 17.2619 116.922 16.5591 117.197 15.7953C117.472 15.0621 117.9 14.451 118.45 13.9928C119 13.5345 119.641 13.229 120.374 13.1373C121.108 13.0151 121.841 13.1067 122.574 13.3817C123.062 13.5651 123.521 13.8401 123.918 14.176C124.316 14.5427 124.622 14.9398 124.804 15.3676C125.018 15.7953 125.11 16.2536 125.079 16.7119L124.101 16.6814C124.101 16.162 123.949 15.6732 123.583 15.2148C123.246 14.7565 122.788 14.4204 122.207 14.2066C121.627 13.9928 121.077 13.9316 120.527 14.0233C119.977 14.1149 119.488 14.3594 119.061 14.726C118.633 15.0927 118.297 15.5815 118.083 16.162C117.869 16.7425 117.808 17.3229 117.869 17.8728C117.961 18.4228 118.175 18.9421 118.511 19.3699C118.877 19.7976 119.335 20.1337 119.885 20.3476C120.405 20.5308 120.924 20.592 121.444 20.5308C121.963 20.4697 122.422 20.2864 122.818 19.9809C123.215 19.6754 123.521 19.2782 123.705 18.82L120.1 17.4757L120.405 16.6508L124.957 18.3312C124.926 18.4228 124.896 18.5145 124.835 18.6672C124.56 19.431 124.132 20.042 123.613 20.5308C123.062 21.0197 122.452 21.2946 121.749 21.4169C121.046 21.539 120.313 21.4475 119.579 21.1725C118.908 20.8669 118.297 20.4697 117.839 19.9199Z" fill="#D2D2D2"/>
<path d="M128.317 16.0092L129.234 16.4674L127.768 19.3699L131.495 21.2641L132.961 18.3616L133.848 18.82L130.334 25.7246L129.449 25.2664L131.067 22.0584L127.34 20.1642L125.72 23.3721L124.805 22.9139L128.317 16.0092Z" fill="#D2D2D2"/>
<path d="M133.603 23.1889L137.423 25.5719L136.995 26.2747L133.176 23.8916L133.603 23.1889Z" fill="#D2D2D2"/>
<path d="M141.21 23.4333L145.488 26.6107L144.968 27.3135L141.516 24.747L140.08 26.7024L143.197 28.9937L142.677 29.6965L139.561 27.405L137.973 29.5743L141.516 32.2017L140.997 32.9044L136.628 29.6659L141.21 23.4333Z" fill="#D2D2D2"/>
<path d="M147.26 28.016L148.329 28.9937L146.741 36.2345L146.802 36.2956L151.11 31.5295L151.843 32.2017L146.649 37.9454L145.58 36.9983L147.168 29.7575L147.077 29.6964L142.769 34.4625L142.036 33.7904L147.26 28.016Z" fill="#D2D2D2"/>
<path d="M153.798 34.0959L155.447 35.9596C156.028 36.6317 156.457 37.3039 156.67 38.0371C156.884 38.7399 156.884 39.4426 156.701 40.1146C156.517 40.7869 156.12 41.3674 155.571 41.8867C155.02 42.4061 154.379 42.7115 153.676 42.8338C153.003 42.9561 152.301 42.8644 151.629 42.5894C150.926 42.3144 150.284 41.8256 149.704 41.1534L148.055 39.2897L153.798 34.0959ZM150.346 40.5424C150.804 41.0618 151.293 41.4284 151.842 41.6423C152.362 41.8562 152.912 41.9478 153.431 41.8562C153.951 41.7645 154.47 41.5201 154.898 41.123C155.356 40.7257 155.662 40.2675 155.784 39.7481C155.937 39.2287 155.906 38.7093 155.753 38.1594C155.571 37.6095 155.265 37.0595 154.806 36.5707L153.829 35.4708L149.369 39.4731L150.346 40.5424Z" fill="#D2D2D2"/>
<path d="M163.3 45.8584L164.614 47.9664C165.072 48.7302 165.347 49.4636 165.438 50.1968C165.53 50.93 165.408 51.6327 165.102 52.2437C164.796 52.8548 164.308 53.3742 163.666 53.7713C163.025 54.1685 162.323 54.3824 161.65 54.3518C160.947 54.3518 160.306 54.138 159.664 53.7407C159.022 53.3436 158.503 52.7631 158.014 51.9993L156.701 49.8912L163.3 45.8584ZM158.747 51.5716C159.114 52.1522 159.542 52.6104 160.001 52.9159C160.489 53.2214 160.978 53.4048 161.528 53.4048C162.077 53.4048 162.598 53.2519 163.116 52.9465C163.636 52.641 164.003 52.2132 164.247 51.7549C164.492 51.2661 164.552 50.7467 164.492 50.1662C164.43 49.5857 164.217 49.0052 163.85 48.4248L163.056 47.1721L157.953 50.3189L158.747 51.5716Z" fill="#D2D2D2"/>
<path d="M167.851 53.588L168.31 54.4741L161.436 58.0486L160.978 57.1626L167.851 53.588Z" fill="#D2D2D2"/>
<path d="M163.208 61.1037C163.299 60.3705 163.545 59.729 164.002 59.1485C164.461 58.568 165.041 58.1403 165.774 57.8348C166.508 57.5292 167.241 57.407 167.944 57.4987C168.677 57.5904 169.319 57.8653 169.9 58.293C170.48 58.7513 170.908 59.3318 171.213 60.065C171.427 60.5538 171.518 61.0732 171.549 61.5926C171.579 62.112 171.488 62.6009 171.305 63.0591C171.121 63.5174 170.877 63.884 170.54 64.1896L169.9 63.4562C170.266 63.1202 170.51 62.6619 170.633 62.0815C170.724 61.501 170.662 60.951 170.418 60.4011C170.174 59.8206 169.838 59.3929 169.379 59.0568C168.921 58.7207 168.433 58.5374 167.883 58.4763C167.332 58.4152 166.752 58.5068 166.171 58.7513C165.591 58.9957 165.133 59.3318 164.766 59.79C164.4 60.2484 164.186 60.7372 164.125 61.2871C164.064 61.8371 164.125 62.3869 164.369 62.9674C164.583 63.4868 164.888 63.884 165.286 64.22C165.683 64.5561 166.142 64.77 166.63 64.8311C167.119 64.9228 167.608 64.8617 168.096 64.6784L166.599 61.1343L167.425 60.7982L169.319 65.2893C169.257 65.3199 169.135 65.381 169.013 65.4422C168.28 65.7477 167.547 65.8698 166.813 65.8087C166.08 65.7477 165.439 65.5033 164.888 65.0755C164.308 64.6478 163.88 64.0673 163.574 63.3341C163.239 62.5703 163.147 61.8371 163.208 61.1037Z" fill="#D2D2D2"/>
<path d="M173.137 65.9004L173.443 66.8476L166.08 69.2916L165.774 68.3446L173.137 65.9004Z" fill="#D2D2D2"/>
<path d="M173.749 71.0026L173.107 68.5279L173.962 68.314L175.52 74.2411L174.665 74.455L173.993 71.9802L167.363 73.7522L167.118 72.7746L173.749 71.0026Z" fill="#D2D2D2"/>
<path d="M176.132 77.4797L176.377 78.8239L169.258 83.0095L169.105 82.0624L170.694 81.1153L169.991 77.2352L168.157 76.8991L168.006 75.952L176.132 77.4797ZM171.427 80.7181L175.398 78.3656L175.369 78.274L170.847 77.4185L171.427 80.7181Z" fill="#D2D2D2"/>
<path d="M177.079 83.5595L177.17 84.5677L170.327 85.1482L170.662 89.0283L169.776 89.0894L169.349 84.201L177.079 83.5595Z" fill="#D2D2D2"/>
<path d="M169.839 97.1856C170.144 96.7273 170.572 96.3607 171.091 96.1468C171.61 95.9024 172.161 95.8107 172.801 95.8719L177.568 96.2385L177.507 97.2467L172.741 96.88C172.283 96.8495 171.884 96.9106 171.488 97.0634C171.122 97.2161 170.816 97.4606 170.572 97.7661C170.357 98.0716 170.205 98.4382 170.174 98.866C170.144 99.2937 170.205 99.6603 170.388 99.9963C170.572 100.332 170.816 100.607 171.182 100.821C171.518 101.035 171.946 101.157 172.374 101.188L177.14 101.555L177.079 102.563L172.313 102.196C171.702 102.135 171.152 101.982 170.663 101.677C170.205 101.371 169.839 100.974 169.593 100.455C169.349 99.9659 169.258 99.4159 169.288 98.8049C169.349 98.1938 169.533 97.6438 169.839 97.1856Z" fill="#D2D2D2"/>
<path d="M168.952 104.915C169.257 104.457 169.656 104.151 170.113 103.968C170.571 103.785 171.091 103.724 171.641 103.846L171.458 104.824C170.877 104.732 170.358 104.854 169.96 105.19C169.563 105.526 169.288 106.046 169.166 106.779C169.044 107.39 169.105 107.909 169.288 108.306C169.472 108.704 169.778 108.917 170.205 109.009C170.541 109.07 170.815 109.009 171.03 108.856C171.244 108.704 171.427 108.49 171.549 108.215C171.672 107.94 171.825 107.543 172.007 107.054C172.191 106.504 172.404 106.015 172.619 105.648C172.833 105.282 173.108 104.976 173.443 104.762C173.78 104.549 174.238 104.487 174.726 104.579C175.43 104.701 175.918 105.068 176.254 105.648C176.591 106.229 176.651 106.962 176.498 107.879C176.346 108.826 175.98 109.498 175.43 109.956C174.879 110.415 174.207 110.567 173.383 110.445L173.565 109.498C174.116 109.59 174.573 109.498 174.941 109.192C175.307 108.887 175.552 108.398 175.674 107.757C175.796 107.145 175.734 106.657 175.552 106.29C175.368 105.923 175.063 105.679 174.635 105.618C174.329 105.557 174.054 105.618 173.841 105.771C173.627 105.923 173.443 106.137 173.321 106.412C173.199 106.687 173.046 107.054 172.893 107.512C172.68 108.093 172.466 108.581 172.282 108.979C172.069 109.345 171.794 109.651 171.458 109.895C171.091 110.109 170.664 110.17 170.113 110.078C169.38 109.956 168.861 109.59 168.555 108.979C168.218 108.368 168.158 107.604 168.311 106.687C168.433 105.923 168.647 105.374 168.952 104.915Z" fill="#D2D2D2"/>
<path d="M175.185 113.103L173.779 118.236L172.924 117.991L174.054 113.836L171.733 113.195L170.694 116.922L169.868 116.708L170.907 112.981L168.31 112.278L167.149 116.556L166.294 116.311L167.73 111.087L175.185 113.103Z" fill="#D2D2D2"/>
<path d="M173.076 120.405L171.885 123.551C171.701 124.071 171.426 124.499 171.09 124.836C170.755 125.171 170.388 125.355 169.96 125.446C169.532 125.538 169.104 125.507 168.677 125.324C168.28 125.171 167.943 124.927 167.699 124.621C167.454 124.316 167.301 123.919 167.241 123.522C167.179 123.124 167.241 122.666 167.394 122.208L167.454 122.086L163.574 123.613L164.033 122.421L167.821 120.985L168.34 119.641L165.499 118.572L165.865 117.625L173.076 120.405ZM168.28 122.208C168.096 122.727 168.065 123.185 168.187 123.582C168.31 123.979 168.615 124.255 169.043 124.407C169.471 124.56 169.869 124.56 170.235 124.346C170.602 124.132 170.877 123.766 171.059 123.247L171.916 121.016L169.135 119.977L168.28 122.208Z" fill="#D2D2D2"/>
<path d="M167.333 133.451L164.644 138.064L163.88 137.636L166.05 133.909L163.972 132.687L162.017 136.017L161.253 135.589L163.209 132.228L160.887 130.885L158.656 134.703L157.892 134.245L160.641 129.54L167.333 133.451Z" fill="#D2D2D2"/>
<path d="M159.207 139.591L163.728 139.531L163.056 140.447L159.298 140.417L159.237 140.508L160.428 144.113L159.757 145.03L158.381 140.661L153.371 140.599L154.013 139.684L158.168 139.775L158.228 139.684L156.763 135.833L157.404 134.918L159.207 139.591Z" fill="#D2D2D2"/>
<path d="M158.442 146.679L156.396 149.001C155.845 149.644 155.235 150.01 154.592 150.132C153.951 150.224 153.34 150.04 152.79 149.551C152.423 149.245 152.179 148.879 152.057 148.452C151.935 148.024 151.935 147.596 152.057 147.169C152.179 146.71 152.423 146.283 152.79 145.886L154.165 144.297L151.904 142.311L152.545 141.578L158.442 146.679ZM153.493 146.466C153.126 146.894 152.943 147.291 152.943 147.718C152.943 148.146 153.095 148.483 153.431 148.788C153.768 149.094 154.165 149.216 154.562 149.154C154.96 149.094 155.357 148.849 155.723 148.421L157.098 146.832L154.867 144.877L153.493 146.466Z" fill="#D2D2D2"/>
<path d="M153.125 152.546L149.276 156.212L148.665 155.571L151.782 152.606L150.101 150.865L147.291 153.554L146.679 152.912L149.49 150.224L147.626 148.268L144.419 151.323L143.808 150.683L147.748 146.925L153.125 152.546Z" fill="#D2D2D2"/>
<path d="M147.597 157.709L144.939 159.817C144.512 160.153 144.053 160.397 143.595 160.49C143.136 160.612 142.709 160.581 142.312 160.459C141.914 160.337 141.578 160.062 141.273 159.695C140.998 159.358 140.845 158.992 140.814 158.595C140.783 158.198 140.845 157.8 140.998 157.403C141.181 157.007 141.425 156.67 141.792 156.334L141.884 156.242L137.759 155.571L138.737 154.776L142.739 155.478L143.87 154.592L141.975 152.21L142.77 151.598L147.597 157.709ZM142.556 156.792C142.128 157.129 141.853 157.525 141.762 157.922C141.67 158.32 141.762 158.717 142.066 159.083C142.342 159.451 142.709 159.634 143.105 159.634C143.533 159.634 143.931 159.481 144.388 159.114L146.252 157.647L144.419 155.325L142.556 156.792Z" fill="#D2D2D2"/>
<path d="M141.058 162.659L140.232 163.239L135.864 156.854L136.689 156.304L141.058 162.659Z" fill="#D2D2D2"/>
<path d="M138.186 164.614L133.604 167.332L133.145 166.57L136.841 164.37L135.62 162.292L132.29 164.277L131.831 163.514L135.161 161.527L133.786 159.207L129.999 161.467L129.54 160.703L134.214 157.922L138.186 164.614Z" fill="#D2D2D2"/>
<path d="M131.587 168.402L130.274 169.014L124.224 164.736L124.132 164.766L126.851 170.602L125.935 171.03L122.636 164.002L123.919 163.392L129.968 167.669L130.059 167.607L127.34 161.773L128.257 161.345L131.587 168.402Z" fill="#D2D2D2"/>
<path d="M119.611 165.469C120.313 165.622 120.924 165.927 121.443 166.386C121.962 166.874 122.36 167.485 122.635 168.219C122.879 168.983 122.97 169.685 122.848 170.419C122.726 171.152 122.452 171.763 121.962 172.282C121.505 172.832 120.894 173.199 120.16 173.474C119.611 173.657 119.061 173.718 118.51 173.656C117.93 173.596 117.411 173.412 116.952 173.138C116.463 172.863 116.097 172.466 115.791 172.007L116.677 171.58C116.891 171.916 117.166 172.191 117.533 172.404C117.899 172.619 118.266 172.741 118.694 172.801C119.121 172.832 119.518 172.801 119.916 172.679C120.466 172.497 120.924 172.191 121.26 171.763C121.596 171.336 121.809 170.877 121.902 170.327C121.993 169.777 121.933 169.196 121.718 168.616C121.505 168.035 121.199 167.547 120.801 167.15C120.404 166.752 119.916 166.508 119.396 166.386C118.877 166.264 118.327 166.294 117.808 166.477C117.411 166.599 117.075 166.814 116.769 167.088C116.463 167.363 116.25 167.7 116.097 168.066C115.944 168.433 115.883 168.83 115.883 169.196L114.905 169.319C114.844 168.799 114.936 168.28 115.15 167.791C115.364 167.302 115.669 166.844 116.066 166.477C116.463 166.08 116.952 165.805 117.502 165.622C118.205 165.378 118.908 165.316 119.611 165.469Z" fill="#D2D2D2"/>
<path d="M114.448 174.941L109.254 176.131L109.04 175.276L113.226 174.299L112.676 171.946L108.918 172.832L108.704 171.977L112.462 171.09L111.851 168.463L107.543 169.471L107.329 168.616L112.615 167.394L114.448 174.941Z" fill="#D2D2D2"/>
<path d="M104.915 169.074C105.435 169.227 105.863 169.502 106.168 169.869C106.474 170.266 106.687 170.724 106.749 171.305L105.771 171.427C105.679 170.846 105.404 170.388 104.977 170.113C104.518 169.838 103.938 169.747 103.235 169.838C102.624 169.929 102.135 170.113 101.83 170.419C101.524 170.724 101.402 171.09 101.432 171.518C101.463 171.854 101.616 172.099 101.83 172.251C102.044 172.404 102.319 172.526 102.624 172.557C102.93 172.588 103.327 172.619 103.846 172.648C104.427 172.679 104.946 172.71 105.374 172.801C105.801 172.893 106.168 173.046 106.474 173.321C106.779 173.596 106.993 173.993 107.054 174.482C107.146 175.185 106.962 175.765 106.504 176.253C106.046 176.743 105.374 177.048 104.457 177.17C103.51 177.292 102.746 177.17 102.135 176.773C101.524 176.377 101.188 175.796 101.066 174.97L102.013 174.848C102.074 175.398 102.319 175.796 102.716 176.04C103.113 176.284 103.663 176.377 104.304 176.284C104.915 176.193 105.374 176.009 105.679 175.734C105.985 175.46 106.107 175.094 106.046 174.665C106.015 174.36 105.862 174.115 105.649 173.962C105.435 173.809 105.19 173.718 104.885 173.656C104.579 173.627 104.182 173.596 103.693 173.565C103.082 173.534 102.532 173.504 102.135 173.412C101.707 173.352 101.341 173.168 101.005 172.893C100.669 172.619 100.485 172.221 100.424 171.671C100.333 170.938 100.516 170.327 100.974 169.838C101.432 169.349 102.135 169.043 103.082 168.921C103.785 168.89 104.396 168.921 104.915 169.074Z" fill="#D2D2D2"/>
<path d="M93.5795 172.832C93.7323 172.954 93.7934 173.138 93.7934 173.321C93.7934 173.534 93.7323 173.687 93.61 173.84C93.4879 173.962 93.3046 174.055 93.0906 174.055C92.8768 174.055 92.6935 173.993 92.5713 173.871C92.4185 173.749 92.3574 173.565 92.3574 173.382C92.3574 173.168 92.4186 173.016 92.5407 172.863C92.663 172.71 92.8462 172.648 93.0601 172.648C93.274 172.648 93.4573 172.71 93.5795 172.832Z" fill="#D2D2D2"/>
<path d="M83.9258 169.716C84.5063 170.144 84.9341 170.724 85.1785 171.396C85.4229 172.068 85.5145 172.801 85.3923 173.596C85.2701 174.39 84.9951 175.063 84.5674 175.643C84.1397 176.224 83.5592 176.621 82.887 176.895C82.2149 177.17 81.4817 177.232 80.6568 177.11C79.8624 176.987 79.1598 176.712 78.5793 176.284C77.9988 175.826 77.5711 175.276 77.3266 174.604C77.0516 173.933 76.9906 173.199 77.1127 172.404C77.2044 171.855 77.3571 171.365 77.571 170.938C77.8155 170.479 78.1209 170.113 78.4876 169.807L77.4488 168.555L78.732 168.739L79.2208 169.349C79.618 169.136 80.0457 169.014 80.4734 168.921C80.9318 168.861 81.39 168.83 81.8788 168.921C82.6426 168.983 83.3454 169.258 83.9258 169.716ZM79.8319 170.022L82.1232 172.741L80.8401 172.557L79.1292 170.541C78.8543 170.785 78.6403 171.09 78.457 171.427C78.2738 171.763 78.1515 172.16 78.0905 172.557C77.9988 173.168 78.0599 173.749 78.2432 174.268C78.4265 174.788 78.7626 175.245 79.1902 175.582C79.618 175.918 80.168 176.131 80.7484 176.224C81.3595 176.315 81.9094 176.253 82.4288 176.04C82.9482 175.826 83.376 175.49 83.7119 175.063C84.048 174.604 84.2619 174.084 84.3536 173.443C84.4452 172.832 84.3841 172.251 84.2008 171.702C84.0175 171.183 83.6814 170.724 83.2537 170.388C82.826 170.051 82.3066 169.807 81.6956 169.747C81.0234 169.655 80.3818 169.747 79.8319 170.022Z" fill="#D2D2D2"/>
<path d="M74.7606 168.066C75.28 168.586 75.6466 169.166 75.7994 169.869C75.9827 170.571 75.9521 171.305 75.7383 172.099C75.5244 172.863 75.1578 173.505 74.669 174.024C74.1496 174.543 73.5691 174.879 72.8358 175.063C72.1332 175.245 71.3694 175.216 70.6055 175.001C69.8417 174.788 69.1696 174.421 68.6503 173.933C68.1309 173.443 67.7642 172.832 67.6115 172.129C67.4281 171.427 67.4587 170.694 67.6421 169.929C67.8559 169.166 68.2224 168.493 68.7114 167.975C69.2308 167.455 69.8417 167.119 70.5445 166.936C71.2471 166.752 71.9804 166.783 72.7747 166.997C73.5691 167.21 74.2413 167.578 74.7606 168.066ZM70.8805 167.822C70.3305 167.975 69.8723 168.249 69.4752 168.646C69.0779 169.043 68.803 169.563 68.6503 170.175C68.4974 170.785 68.467 171.365 68.5891 171.916C68.7114 172.466 68.9864 172.954 69.3835 173.352C69.7807 173.749 70.2695 174.024 70.8499 174.177C71.4304 174.329 72.0109 174.329 72.5609 174.207C73.1108 174.055 73.5691 173.78 73.9663 173.382C74.3634 172.985 74.6384 172.466 74.7912 171.855C74.9439 171.243 74.9745 170.663 74.8522 170.113C74.7301 169.563 74.4551 169.074 74.0579 168.677C73.6608 168.28 73.1719 168.005 72.5914 167.853C71.9804 167.7 71.4304 167.7 70.8805 167.822Z" fill="#D2D2D2"/>
<path d="M64.5253 172.894L63.181 172.373L62.1422 165.041L62.0506 165.01L59.6676 170.999L58.751 170.632L61.6228 163.422L62.9366 163.942L63.9753 171.274L64.067 171.305L66.4501 165.316L67.3667 165.683L64.5253 172.894Z" fill="#D2D2D2"/>
<path d="M55.2679 167.913L57.5594 169.074L57.1621 169.869L51.6934 167.088L52.0905 166.293L54.3819 167.454L57.4982 161.345L58.3843 161.803L55.2679 167.913Z" fill="#D2D2D2"/>
<path d="M50.2268 166.233L45.7051 163.422L46.1633 162.688L49.8295 164.981L51.1128 162.934L47.8132 160.886L48.2714 160.153L51.5711 162.2L53.0069 159.909L49.2491 157.556L49.7074 156.823L54.3207 159.695L50.2268 166.233Z" fill="#D2D2D2"/>
<path d="M44.361 157.922L44.2695 162.444L43.3834 161.773L43.5361 158.015L43.4445 157.953L39.8089 159.054L38.9229 158.381L43.3223 157.129L43.5361 152.118L44.4222 152.79L44.2083 156.945L44.3 157.006L48.2106 155.662L49.0966 156.334L44.361 157.922Z" fill="#D2D2D2"/>
<path d="M36.6923 155.203L38.5865 156.945L38.0061 157.587L33.4844 153.432L34.0649 152.79L35.959 154.532L40.603 149.46L41.3362 150.132L36.6923 155.203Z" fill="#D2D2D2"/>
<path d="M30.2769 150.071L26.7939 146.038L27.4662 145.458L30.2769 148.727L32.11 147.138L29.5742 144.205L30.2463 143.624L32.7821 146.557L34.8291 144.785L31.9573 141.425L32.6294 140.845L36.1734 144.969L30.2769 150.071Z" fill="#D2D2D2"/>
<path d="M31.0412 138.919C31.1329 139.438 31.1024 139.958 30.9191 140.417C30.7358 140.874 30.3997 141.272 29.9415 141.608L29.3609 140.814C29.8498 140.447 30.1247 140.019 30.1553 139.5C30.1859 138.981 30.0025 138.43 29.5748 137.82C29.2081 137.3 28.811 136.965 28.4138 136.841C28.0166 136.689 27.6194 136.75 27.2529 137.025C26.9779 137.209 26.8251 137.453 26.7946 137.728C26.7641 138.003 26.7946 138.277 26.8862 138.553C26.9779 138.828 27.1612 139.225 27.375 139.684C27.65 140.203 27.8334 140.692 27.9555 141.119C28.0778 141.547 28.1083 141.944 28.0166 142.341C27.925 142.739 27.6805 143.105 27.2529 143.411C26.6724 143.808 26.0613 143.93 25.4198 143.747C24.7781 143.564 24.1976 143.105 23.6477 142.341C23.0978 141.578 22.8533 140.814 22.9144 140.111C22.9756 139.409 23.3422 138.797 24.0143 138.308L24.5643 139.103C24.106 139.409 23.8616 139.806 23.8311 140.294C23.8005 140.783 23.9532 141.272 24.3504 141.822C24.717 142.311 25.0837 142.647 25.4808 142.769C25.878 142.892 26.2447 142.83 26.5807 142.586C26.8556 142.403 26.9779 142.188 27.039 141.913C27.0695 141.669 27.039 141.394 26.9473 141.089C26.8556 140.814 26.6724 140.447 26.4585 139.989C26.1835 139.438 25.9697 138.95 25.8474 138.523C25.7253 138.126 25.6947 137.697 25.7863 137.3C25.878 136.903 26.153 136.537 26.5807 136.201C27.1917 135.773 27.8028 135.651 28.4443 135.833C29.086 136.017 29.697 136.506 30.2469 137.269C30.6747 137.82 30.9191 138.37 31.0412 138.919Z" fill="#D2D2D2"/>
<path d="M20.8974 135.957L22.2111 138.155L21.4473 138.614L18.3311 133.329L19.0948 132.87L20.4086 135.1L26.3356 131.618L26.855 132.473L20.8974 135.957Z" fill="#D2D2D2"/>
<path d="M25.0838 129.478C25.0228 129.631 24.9311 129.753 24.7784 129.815C24.6255 129.906 24.4728 129.906 24.32 129.877C24.1673 129.846 24.045 129.724 23.9534 129.571C23.8617 129.418 23.8617 129.265 23.8923 129.112C23.9534 128.96 24.045 128.838 24.1978 128.745C24.3506 128.654 24.5034 128.654 24.6561 128.685C24.8088 128.745 24.9311 128.838 25.0228 128.99C25.1143 129.174 25.1449 129.326 25.0838 129.478Z" fill="#D2D2D2"/>
<path d="M22.3955 125.324L18.271 123.522C17.8738 123.338 17.5682 123.216 17.3544 123.155C17.1711 123.094 16.9573 123.032 16.7129 123.032C16.4989 123.002 16.2545 123.063 16.0407 123.155C15.7657 123.277 15.5518 123.429 15.3686 123.675C15.1852 123.888 15.0936 124.163 15.063 124.438C15.0325 124.712 15.063 125.018 15.1852 125.293C15.3074 125.599 15.5213 125.844 15.7657 126.026C16.0407 126.21 16.3156 126.332 16.6823 126.363C17.0183 126.394 17.3544 126.363 17.7211 126.21L18.0876 127.096C17.5988 127.309 17.0794 127.371 16.5906 127.34C16.1018 127.28 15.6435 127.127 15.2769 126.821C14.8798 126.516 14.5742 126.119 14.3908 125.629C14.2075 125.171 14.1159 124.712 14.1464 124.255C14.177 123.797 14.3298 123.4 14.5742 123.063C14.8186 122.727 15.1547 122.452 15.5824 122.268C15.9795 122.116 16.4073 122.055 16.8656 122.146C17.3238 122.239 17.9349 122.421 18.6375 122.758L21.265 123.949L21.3567 123.919L19.9513 120.588L20.7762 120.252L22.8231 125.14L22.3955 125.324Z" fill="#D2D2D2"/>
<path d="M19.7065 117.747C19.5233 118.328 19.1566 118.847 18.6372 119.305C18.1178 119.764 17.4763 120.099 16.7125 120.344C15.9487 120.588 15.2154 120.68 14.5433 120.588C13.8711 120.497 13.2601 120.283 12.8018 119.917C12.313 119.549 11.977 119.031 11.7631 118.419C11.5492 117.808 11.5492 117.197 11.7325 116.586C11.9159 116.006 12.2824 115.486 12.8018 115.028C13.3212 114.57 13.9628 114.233 14.7266 113.989C15.4904 113.745 16.2236 113.653 16.8958 113.745C17.5679 113.836 18.179 114.05 18.6372 114.417C19.0956 114.783 19.4621 115.303 19.676 115.914C19.8899 116.556 19.8899 117.166 19.7065 117.747ZM18.0873 115.15C17.7207 114.906 17.2625 114.753 16.7431 114.722C16.2236 114.692 15.6432 114.753 15.0321 114.967C14.421 115.15 13.9322 115.425 13.5046 115.731C13.0768 116.067 12.8018 116.433 12.6491 116.861C12.4964 117.289 12.4658 117.716 12.6185 118.144C12.7713 118.572 13.0157 118.938 13.3823 119.183C13.749 119.427 14.2072 119.58 14.7266 119.611C15.246 119.641 15.8265 119.58 16.4375 119.366C17.0485 119.183 17.5679 118.908 17.9651 118.572C18.3928 118.236 18.6678 117.869 18.8206 117.441C18.9733 117.014 19.0039 116.586 18.8512 116.158C18.7289 115.761 18.4845 115.395 18.0873 115.15Z" fill="#D2D2D2"/>
<path d="M17.658 111.789L13.9307 109.254C13.564 109.009 13.289 108.826 13.1058 108.734C12.9224 108.643 12.7391 108.551 12.4947 108.49C12.2808 108.429 12.0364 108.429 11.8226 108.49C11.517 108.551 11.2726 108.673 11.0588 108.856C10.8449 109.04 10.6921 109.284 10.631 109.559C10.5394 109.834 10.5394 110.109 10.6005 110.415C10.6616 110.751 10.8143 111.026 11.0282 111.239C11.2421 111.453 11.517 111.637 11.853 111.728C12.1891 111.82 12.5253 111.85 12.8919 111.789L13.1058 112.736C12.5864 112.859 12.067 112.828 11.6087 112.706C11.1504 112.553 10.7227 112.309 10.4172 111.942C10.0811 111.575 9.86723 111.148 9.74503 110.628C9.65336 110.14 9.65336 109.681 9.77557 109.223C9.89778 108.795 10.1116 108.429 10.4172 108.123C10.7227 107.818 11.1199 107.634 11.5476 107.543C11.9753 107.451 12.403 107.482 12.8308 107.665C13.2585 107.848 13.8084 108.154 14.4806 108.612L16.8331 110.262L16.9553 110.231L16.1915 106.718L17.0469 106.535L18.1468 111.728L17.658 111.789Z" fill="#D2D2D2"/>
<path d="M16.3452 105.435L12.8623 102.593C12.5261 102.318 12.2512 102.135 12.0985 102.013C11.9151 101.891 11.7318 101.799 11.5179 101.707C11.3041 101.616 11.0902 101.616 10.8458 101.646C10.5403 101.677 10.2959 101.799 10.0514 101.952C9.83758 102.135 9.65427 102.349 9.56262 102.593C9.47096 102.868 9.40987 103.143 9.47096 103.449C9.50151 103.785 9.62373 104.06 9.83758 104.304C10.0514 104.549 10.2959 104.732 10.6319 104.854C10.9375 104.976 11.3041 105.037 11.6707 105.007L11.7929 105.954C11.243 106.015 10.7541 105.954 10.2959 105.771C9.83758 105.587 9.47096 105.312 9.16545 104.915C8.85992 104.518 8.67661 104.06 8.61552 103.54C8.55441 103.052 8.58496 102.563 8.76827 102.135C8.92103 101.707 9.16545 101.371 9.50151 101.096C9.83758 100.821 10.2348 100.669 10.693 100.607C11.1208 100.546 11.5485 100.638 11.9762 100.821C12.404 101.035 12.9234 101.371 13.5343 101.891L15.7647 103.724H15.8868L15.3369 100.21L16.2229 100.088L16.8951 105.373L16.3452 105.435Z" fill="#D2D2D2"/>
<path d="M13.0157 93.4277C12.8936 93.5499 12.7102 93.6111 12.4963 93.6111C12.2825 93.6111 12.1298 93.5499 12.0075 93.3971C11.8853 93.2444 11.8242 93.0917 11.8242 92.8777C11.8242 92.6639 11.8853 92.4806 12.0381 92.3583C12.1908 92.2362 12.3436 92.1751 12.5575 92.1751C12.7713 92.1751 12.9241 92.2362 13.0463 92.3889C13.1685 92.5417 13.2296 92.6945 13.2296 92.9083C13.2296 93.1223 13.1685 93.3055 13.0157 93.4277Z" fill="#D2D2D2"/>
<path d="M8.55469 84.2927L8.89077 81.8179C9.01297 80.932 9.28794 80.1987 9.68512 79.5572C10.0823 78.9461 10.6017 78.4878 11.2433 78.1823C11.8848 77.9073 12.5876 77.8157 13.3208 77.9073C14.0846 78.0296 14.7262 78.3046 15.2456 78.7322C15.765 79.1905 16.1621 79.771 16.3759 80.4736C16.5899 81.1764 16.6509 81.9708 16.5288 82.8567L16.1927 85.3315L8.55469 84.2927ZM15.7344 82.7957C15.8261 82.1235 15.7955 81.482 15.6427 80.932C15.49 80.3821 15.1845 79.9238 14.7872 79.5877C14.3901 79.2516 13.8707 79.0072 13.2597 78.9461C12.6487 78.8545 12.0988 78.9155 11.6404 79.1599C11.1516 79.3739 10.7544 79.7404 10.4489 80.2292C10.1434 80.7182 9.92952 81.2986 9.83787 81.9708L9.62401 83.4372L15.5511 84.2621L15.7344 82.7957Z" fill="#D2D2D2"/>
<path d="M10.0215 75.2493L11.2741 70.086L12.1296 70.3L11.1214 74.4856L13.4739 75.0659L14.3904 71.3081L15.2459 71.522L14.3294 75.2799L16.9568 75.9214L17.9956 71.6137L18.8509 71.8275L17.5678 77.113L10.0215 75.2493Z" fill="#D2D2D2"/>
<path d="M11.915 67.978L13.5037 63.3036L14.3287 63.5786L13.0761 67.3058L15.3674 68.0697L16.4673 64.7701L17.2922 65.045L16.1923 68.3446L19.5836 69.475L19.2475 70.4222L11.915 67.978Z" fill="#D2D2D2"/>
<path d="M19.522 61.5621L13.9004 62.1731L14.3281 61.1954L18.8498 60.7678L18.8803 60.6761L16.1002 57.132L16.5278 56.1544L19.9191 60.6761L22.516 61.8065L22.1189 62.723L19.522 61.5621Z" fill="#D2D2D2"/>
<path d="M27.3741 52.091C26.7324 52.3964 26.0604 52.5493 25.3577 52.4881C24.6549 52.427 23.9523 52.1826 23.3106 51.7549C22.6385 51.3271 22.1497 50.7773 21.8136 50.1356C21.4775 49.494 21.3248 48.8219 21.3554 48.1193C21.386 47.4165 21.6304 46.7444 22.058 46.1028C22.3636 45.6139 22.7608 45.2474 23.2496 44.9419C23.7384 44.6363 24.2578 44.453 24.8078 44.3919C25.3577 44.3308 25.9076 44.3919 26.427 44.5752L25.9992 45.4612C25.6021 45.3084 25.2354 45.2778 24.8078 45.3084C24.38 45.339 24.0134 45.4918 23.6773 45.7056C23.3106 45.9195 23.0357 46.1945 22.7913 46.5611C22.4858 47.0499 22.3024 47.5693 22.2719 48.0887C22.2413 48.6386 22.3941 49.1275 22.6386 49.6163C22.9135 50.1051 23.3106 50.5328 23.83 50.8689C24.3495 51.205 24.8993 51.4188 25.4493 51.4799C25.9992 51.5411 26.5186 51.4494 27.0074 51.2355C27.4963 51.0217 27.8935 50.655 28.199 50.1662C28.4128 49.8301 28.5657 49.4636 28.6267 49.0358C28.6878 48.6386 28.6572 48.2414 28.5657 47.8443C28.474 47.4471 28.2907 47.1109 28.0157 46.8055L28.6878 46.1028C29.0545 46.5 29.2989 46.9582 29.4516 47.4776C29.6044 47.997 29.6044 48.5469 29.5433 49.0969C29.4516 49.6468 29.2378 50.1662 28.9322 50.655C28.5351 51.2967 28.0157 51.7855 27.3741 52.091Z" fill="#D2D2D2"/>
<path d="M32.3844 44.9723C31.7122 45.2473 31.0096 45.3084 30.3068 45.1557C29.6042 45.0335 28.9321 44.6973 28.321 44.178C27.7099 43.6586 27.2822 43.0782 27.0378 42.406C26.7934 41.7339 26.7323 41.0311 26.885 40.3285C27.0378 39.6258 27.3434 38.9536 27.8627 38.3427C28.3821 37.7316 28.9931 37.2733 29.6653 37.0288C30.3374 36.7844 31.0401 36.6928 31.7428 36.8455C32.4454 36.9678 33.1177 37.3038 33.7287 37.8233C34.3397 38.3427 34.7675 38.9536 35.0425 39.6258C35.2869 40.2979 35.3479 41.0006 35.1952 41.7033C35.0425 42.406 34.7369 43.0782 34.2175 43.6892C33.6676 44.2697 33.0871 44.7279 32.3844 44.9723ZM34.2481 41.5811C34.3397 41.0311 34.2786 40.4812 34.0953 39.9618C33.8814 39.4424 33.5453 38.9842 33.0565 38.5565C32.5677 38.1593 32.0483 37.8843 31.4984 37.7927C30.9484 37.6705 30.3985 37.7316 29.8791 37.9149C29.3597 38.0981 28.9015 38.4342 28.5043 38.8925C28.1071 39.3509 27.8627 39.8702 27.771 40.4202C27.6793 40.9701 27.7099 41.5201 27.9239 42.0394C28.1377 42.5588 28.4737 43.0476 28.9626 43.4448C29.4514 43.842 29.9708 44.117 30.5208 44.2085C31.0707 44.3308 31.6206 44.2697 32.14 44.0864C32.6594 43.903 33.1177 43.567 33.5148 43.1088C33.912 42.6504 34.1564 42.131 34.2481 41.5811Z" fill="#D2D2D2"/>
<path d="M32.3545 33.6682L33.3932 32.6905L40.4813 34.8291L40.5424 34.768L36.1123 30.0936L36.8456 29.391L42.1921 35.0124L41.1534 35.9902L34.0653 33.8515L33.9738 33.9127L38.4038 38.5871L37.6705 39.2897L32.3545 33.6682Z" fill="#D2D2D2"/>
<path d="M38.3428 28.1077L39.1371 27.4967L45.3697 31.5295L45.4614 31.4685L43.1393 24.4109L43.9337 23.7999L46.5001 31.6212L45.278 32.5683L38.3428 28.1077Z" fill="#D2D2D2"/>
<path d="M45.5527 22.7306L50.0439 19.8893L50.5021 20.6225L46.8665 22.9139L48.1496 24.9608L51.4187 22.8833L51.877 23.6167L48.6079 25.6942L50.0439 27.9855L53.7712 25.633L54.2295 26.3663L49.6466 29.2687L45.5527 22.7306Z" fill="#D2D2D2"/>
<path d="M51.999 18.7589L53.2822 18.1173L59.4537 22.2112L59.5453 22.1807L56.6429 16.4369L57.5289 15.9787L61.0118 22.9139L59.7287 23.5555L53.5572 19.4615L53.4655 19.5227L56.3679 25.2665L55.482 25.7247L51.999 18.7589Z" fill="#D2D2D2"/>
<path d="M61.8363 15.1231L59.4533 16.0703L59.1172 15.2454L64.8304 13.015L65.1665 13.8399L62.7834 14.7871L65.2887 21.2029L64.3415 21.5696L61.8363 15.1231Z" fill="#D2D2D2"/>
<path d="M66.3281 12.5568L67.2753 12.2513L69.6584 19.6448L68.7112 19.9503L66.3281 12.5568Z" fill="#D2D2D2"/>
<path d="M72.927 18.3922C72.2244 18.2089 71.6439 17.8423 71.1245 17.2923C70.6357 16.7729 70.2996 16.1009 70.1163 15.3065C69.933 14.5427 69.933 13.7789 70.1468 13.1067C70.3607 12.4346 70.7274 11.8236 71.2467 11.3347C71.7967 10.8459 72.4382 10.5098 73.2326 10.3265C74.0269 10.1432 74.7601 10.1432 75.4629 10.3571C76.1655 10.5709 76.7766 10.907 77.2654 11.4569C77.7542 11.9763 78.0904 12.6485 78.2736 13.4123C78.4569 14.2066 78.4569 14.9398 78.2431 15.6426C78.0292 16.3453 77.6625 16.9258 77.1432 17.4146C76.5932 17.9034 75.9517 18.2395 75.1574 18.4228C74.363 18.606 73.6298 18.5755 72.927 18.3922ZM76.4711 16.7424C76.8682 16.3453 77.1432 15.887 77.296 15.3371C77.4487 14.7871 77.4487 14.2066 77.296 13.5955C77.1432 12.9846 76.8988 12.4652 76.5016 12.0374C76.135 11.6097 75.6767 11.3347 75.1268 11.1514C74.5768 10.9987 74.0269 10.9681 73.4464 11.1209C72.866 11.2736 72.3466 11.518 71.9494 11.9153C71.5523 12.3124 71.2467 12.7706 71.1245 13.3206C70.9718 13.8705 70.9718 14.451 71.1245 15.0621C71.2773 15.6731 71.5217 16.1924 71.9188 16.6202C72.2855 17.0479 72.7437 17.3229 73.2937 17.5062C73.8436 17.659 74.3936 17.6896 75.0045 17.5367C75.5545 17.4146 76.0434 17.1396 76.4711 16.7424Z" fill="#D2D2D2"/>
<path d="M79.6484 9.28779L81.0843 9.10448L85.4839 15.0621H85.5754L84.8117 8.67675L85.8198 8.55453L86.7365 16.2537L85.331 16.437L80.9316 10.4793H80.8093L81.5731 16.8646L80.5649 16.9869L79.6484 9.28779Z" fill="#D2D2D2"/>
<path d="M89.7616 16.0703C89.2727 15.8564 88.8755 15.5509 88.6005 15.1232C88.3256 14.6954 88.1729 14.2066 88.1729 13.6261L89.1505 13.5955C89.181 14.2066 89.3949 14.6648 89.7921 15.0009C90.1892 15.3371 90.7697 15.4898 91.503 15.4592C92.1446 15.4592 92.6334 15.3065 92.9695 15.0621C93.3055 14.8177 93.4889 14.451 93.4889 14.0233C93.4889 13.6872 93.3666 13.4428 93.1834 13.2595C93.0001 13.0761 92.7251 12.954 92.4501 12.8623C92.1446 12.7707 91.7474 12.7096 91.228 12.6485C90.6475 12.5568 90.1281 12.4652 89.731 12.3124C89.3033 12.1902 88.9672 11.9764 88.6922 11.6708C88.4173 11.3653 88.2644 10.9681 88.2644 10.4487C88.2644 9.74603 88.5088 9.16555 88.9978 8.73782C89.4866 8.31009 90.2198 8.09623 91.1364 8.06567C92.0835 8.03512 92.8473 8.27954 93.3972 8.70727C93.9472 9.16555 94.2221 9.80713 94.2527 10.632L93.2749 10.6626C93.2749 10.1127 93.0611 9.68493 92.6946 9.3794C92.3279 9.07389 91.8085 8.92113 91.1364 8.95168C90.5253 8.95168 90.0365 9.10444 89.7004 9.34886C89.3643 9.59327 89.2116 9.92935 89.2116 10.3571C89.2116 10.6931 89.3033 10.9375 89.5172 11.0903C89.7004 11.2736 89.9448 11.3958 90.2504 11.4875C90.5559 11.5791 90.9225 11.6402 91.4114 11.7014C92.0223 11.793 92.5417 11.8847 92.9695 12.0374C93.3972 12.1597 93.7333 12.3735 94.0083 12.679C94.2833 12.9846 94.436 13.4122 94.4665 13.9622C94.4665 14.6954 94.2221 15.2759 93.7027 15.7036C93.1834 16.1314 92.4501 16.3452 91.503 16.3758C90.8309 16.3758 90.2504 16.2841 89.7616 16.0703Z" fill="#D2D2D2"/>
<path d="M98.7123 13.3817C98.5901 13.229 98.529 13.0762 98.5595 12.8623C98.5901 12.6485 98.6512 12.4956 98.804 12.3735C98.9567 12.2512 99.1401 12.1902 99.3539 12.2207C99.5677 12.2512 99.7206 12.3124 99.8733 12.4652C99.9954 12.6179 100.057 12.7706 100.026 12.9846C99.9954 13.1984 99.9344 13.3511 99.7816 13.4734C99.6289 13.5955 99.4456 13.6567 99.2316 13.6261C98.9872 13.5955 98.8345 13.5039 98.7123 13.3817Z" fill="#D2D2D2"/>
<mask id="mask0_39_402" style="mask-type:alpha" maskUnits="userSpaceOnUse" x="78" y="78" width="50" height="50">
<path fill-rule="evenodd" clip-rule="evenodd" d="M78.7012 109.254C80.4426 109.559 82.2757 109.651 84.1088 109.559C97.735 108.826 108.214 97.1857 107.481 83.5595C107.389 81.6958 107.084 79.9239 106.595 78.2129C117.777 80.0766 126.545 89.4866 127.187 101.28C127.92 114.906 117.472 126.546 103.815 127.28C92.0523 127.89 81.7563 120.161 78.7012 109.254Z" fill="white"/>
</mask>
<g mask="url(#mask0_39_402)">
<path d="M78.7018 109.254L78.8851 108.215L77.2354 107.94L77.6936 109.529L78.7018 109.254ZM106.626 78.1823L106.81 77.1436L105.16 76.8686L105.618 78.4573L106.626 78.1823ZM84.079 108.49C82.3069 108.581 80.5655 108.49 78.8851 108.215L78.5491 110.292C80.3822 110.598 82.2764 110.72 84.2011 110.598L84.079 108.49ZM106.443 83.5901C107.146 96.6357 97.1246 107.787 84.079 108.49L84.2011 110.598C98.4077 109.834 109.315 97.705 108.551 83.4678L106.443 83.5901ZM105.587 78.4573C106.046 80.1071 106.321 81.8181 106.443 83.5901L108.551 83.4678C108.459 81.5431 108.123 79.6794 107.635 77.8768L105.587 78.4573ZM106.443 79.2211C117.136 81.0237 125.538 90.006 126.149 101.28L128.257 101.157C127.585 88.8755 118.45 79.0684 106.779 77.113L106.443 79.2211ZM126.149 101.31C126.852 114.356 116.831 125.507 103.785 126.21L103.907 128.317C118.114 127.555 129.021 115.425 128.257 101.188L126.149 101.31ZM103.785 126.179C92.5113 126.79 82.643 119.397 79.7405 108.948L77.6936 109.529C80.871 120.894 91.5947 128.96 103.907 128.317L103.785 126.179Z" fill="#D2D2D2"/>
</g>
<mask id="mask1_39_402" style="mask-type:alpha" maskUnits="userSpaceOnUse" x="57" y="58" width="50" height="51">
<path fill-rule="evenodd" clip-rule="evenodd" d="M106.015 76.9603C104.274 76.6547 102.441 76.563 100.608 76.6547C86.9815 77.388 76.5022 89.0282 77.2354 102.654C77.3271 104.518 77.6327 106.29 78.1215 108.001C66.9394 106.137 58.171 96.7273 57.5295 84.9343C56.7963 71.3081 67.245 59.6678 80.9017 58.9346C92.6642 58.3235 102.96 66.0532 106.015 76.9603Z" fill="white"/>
</mask>
<g mask="url(#mask1_39_402)">
<path d="M106.015 76.9601L105.832 77.999L107.482 78.2739L107.024 76.6852L106.015 76.9601ZM78.1216 108.032L77.9384 109.07L79.5881 109.345L79.1298 107.757L78.1216 108.032ZM100.669 77.7241C102.441 77.6324 104.182 77.7241 105.863 77.999L106.199 75.9214C104.366 75.616 102.472 75.4937 100.547 75.616L100.669 77.7241ZM78.3049 102.593C77.6023 89.5476 87.6233 78.3961 100.669 77.6935L100.547 75.5854C86.3401 76.3492 75.4331 88.4783 76.1968 102.715L78.3049 102.593ZM79.1298 107.726C78.6716 106.076 78.3966 104.365 78.2744 102.593L76.1663 102.715C76.258 104.64 76.5941 106.504 77.0829 108.306L79.1298 107.726ZM78.3049 106.962C67.6118 105.16 59.2099 96.1774 58.599 84.9037L56.4909 85.0259C57.163 97.3077 66.2981 107.115 77.9688 109.07L78.3049 106.962ZM58.599 84.9037C57.8962 71.8581 67.9172 60.7066 80.9629 60.0039L80.8408 57.8959C66.6341 58.6596 55.7271 70.7887 56.4909 85.0259L58.599 84.9037ZM80.9629 60.0039C92.2366 59.3929 102.105 66.7864 105.007 77.2351L107.054 76.6547C103.877 65.2894 93.1532 57.2237 80.8408 57.8653L80.9629 60.0039Z" fill="#D2D2D2"/>
</g>
</g>
<defs>
<clipPath id="clip0_39_402">
<rect width="186" height="186" fill="white"/>
</clipPath>
</defs>
</svg>
