<svg width="143" height="42" viewBox="0 0 143 42" fill="none" xmlns="http://www.w3.org/2000/svg">
<rect width="41.3295" height="41.3295" fill="white"/>
<mask id="mask0_12_37" style="mask-type:alpha" maskUnits="userSpaceOnUse" x="4" y="4" width="33" height="33">
<rect x="4.51489" y="4.51498" width="32.2995" height="32.2995" fill="#D9D9D9"/>
</mask>
<g mask="url(#mask0_12_37)">
<path fill-rule="evenodd" clip-rule="evenodd" d="M26.884 13.5314C26.0957 13.3996 25.2808 13.3514 24.4495 13.3959C18.3273 13.7236 13.6299 18.9522 13.9576 25.0744C14.0021 25.9057 14.1369 26.7107 14.3521 27.4805C9.3348 26.6416 5.39129 22.4149 5.10814 17.124C4.7805 11.0018 9.47791 5.77319 15.6001 5.44555C20.891 5.1624 25.5145 8.63229 26.884 13.5314Z" fill="black"/>
<path fill-rule="evenodd" clip-rule="evenodd" d="M14.3633 27.4905C15.1516 27.6223 15.9664 27.6705 16.7977 27.626C22.9199 27.2983 27.6173 22.0697 27.2896 15.9475C27.2452 15.1162 27.1103 14.3112 26.8951 13.5414C31.9125 14.3802 35.856 18.607 36.1392 23.8979C36.4668 30.0201 31.7694 35.2487 25.6472 35.5764C20.3563 35.8595 15.7328 32.3896 14.3633 27.4905Z" fill="black"/>
</g>
<path d="M84.3885 27.9271C83.3043 29.0188 81.9807 29.5647 80.4177 29.5647C78.8548 29.5647 77.5312 29.0188 76.447 27.9271C75.3768 26.821 74.8417 25.4706 74.8417 23.8761C74.8417 22.2816 75.3768 20.9385 76.447 19.8468C77.5312 18.7407 78.8548 18.1876 80.4177 18.1876C81.9807 18.1876 83.3043 18.7407 84.3885 19.8468C85.4727 20.9385 86.0149 22.2816 86.0149 23.8761C86.0149 25.4706 85.4727 26.821 84.3885 27.9271ZM78.369 26.0093C78.9181 26.5696 79.601 26.8497 80.4177 26.8497C81.2344 26.8497 81.9173 26.5696 82.4665 26.0093C83.0156 25.4491 83.2902 24.738 83.2902 23.8761C83.2902 23.0142 83.0156 22.3032 82.4665 21.7429C81.9173 21.1827 81.2344 20.9026 80.4177 20.9026C79.601 20.9026 78.9181 21.1827 78.369 21.7429C77.8339 22.3032 77.5664 23.0142 77.5664 23.8761C77.5664 24.738 77.8339 25.4491 78.369 26.0093Z" fill="white"/>
<path d="M93.5921 18.1876C94.7467 18.1876 95.6972 18.5826 96.4435 19.3727C97.2038 20.1628 97.584 21.2545 97.584 22.6479V29.263H94.8594V22.9927C94.8594 22.2744 94.6693 21.7286 94.2891 21.3551C93.9089 20.9672 93.402 20.7733 92.7684 20.7733C92.0643 20.7733 91.5011 20.996 91.0787 21.4413C90.6562 21.8866 90.445 22.5546 90.445 23.4452V29.263H87.7204V18.4893H90.445V19.6959C91.1068 18.6904 92.1558 18.1876 93.5921 18.1876Z" fill="white"/>
<path d="M105.74 21.1612H103.353V25.643C103.353 26.0165 103.445 26.2895 103.628 26.4618C103.811 26.6342 104.078 26.7348 104.43 26.7635C104.782 26.7779 105.219 26.7707 105.74 26.742V29.263C103.867 29.4785 102.544 29.2989 101.769 28.7243C101.009 28.1497 100.629 27.1226 100.629 25.643V21.1612H98.791V18.4893H100.629V16.313L103.353 15.4726V18.4893H105.74V21.1612Z" fill="white"/>
<path d="M109.422 25.0182C109.788 26.3685 110.781 27.0436 112.4 27.0436C113.442 27.0436 114.231 26.6845 114.766 25.9662L116.962 27.2591C115.92 28.7961 114.385 29.5647 112.358 29.5647C110.612 29.5647 109.211 29.026 108.155 27.9486C107.099 26.8712 106.571 25.5137 106.571 23.8761C106.571 22.2529 107.092 20.9026 108.134 19.8252C109.176 18.7335 110.513 18.1876 112.147 18.1876C113.695 18.1876 114.97 18.7335 115.969 19.8252C116.983 20.9169 117.49 22.2673 117.49 23.8761C117.49 24.2353 117.455 24.6159 117.385 25.0182H109.422ZM109.38 22.8634H114.766C114.611 22.1308 114.287 21.5849 113.794 21.2258C113.315 20.8667 112.766 20.6871 112.147 20.6871C111.414 20.6871 110.809 20.881 110.33 21.2689C109.851 21.6424 109.535 22.1739 109.38 22.8634Z" fill="white"/>
<path d="M128.32 29.263H125.173L122.892 25.9878L120.589 29.263H117.442L121.308 23.7684L117.611 18.4893H120.758L122.892 21.5275L125.025 18.4893H128.151L124.455 23.7468L128.32 29.263Z" fill="white"/>
<path d="M135.509 21.1612H133.123V25.643C133.123 26.0165 133.214 26.2895 133.397 26.4618C133.58 26.6342 133.848 26.7348 134.2 26.7635C134.552 26.7779 134.988 26.7707 135.509 26.742V29.263C133.637 29.4785 132.313 29.2989 131.538 28.7243C130.778 28.1497 130.398 27.1226 130.398 25.643V21.1612H128.56V18.4893H130.398V16.313L133.123 15.4726V18.4893H135.509V21.1612Z" fill="white"/>
<path fill-rule="evenodd" clip-rule="evenodd" d="M63.9605 26.5695C67.3324 26.5695 70.0658 23.7809 70.0658 20.341C70.0658 16.901 67.3324 14.1124 63.9605 14.1124C60.5886 14.1124 57.8551 16.901 57.8551 20.341C57.8551 23.7809 60.5886 26.5695 63.9605 26.5695ZM63.9605 29.9363C69.155 29.9363 73.366 25.6404 73.366 20.341C73.366 15.0416 69.155 10.7456 63.9605 10.7456C58.7659 10.7456 54.5549 15.0416 54.5549 20.341C54.5549 25.6404 58.7659 29.9363 63.9605 29.9363Z" fill="white"/>
<path d="M73.292 30.5838L73.6867 27.6034C68.7932 26.9084 66.1003 22.3201 65.3655 20.1129L62.4919 21.2675C64.964 27.8645 70.722 30.2271 73.292 30.5838Z" fill="white"/>
<path d="M138.388 19.0021H137.72V18.4893H139.676V19.0021H139.003V21.1827H138.388V19.0021ZM139.971 18.4893H140.768L141.456 20.3871H141.505L142.184 18.4893H143V21.1827H142.42V19.3615H142.371L141.717 21.1827H141.255L140.601 19.3615H140.552V21.1827H139.971V18.4893Z" fill="white"/>
</svg>
