<?xml version="1.0" standalone="no"?>
<!DOCTYPE svg PUBLIC "-//W3C//DTD SVG 1.1//EN" "http://www.w3.org/Graphics/SVG/1.1/DTD/svg11.dtd" >
<svg xmlns="http://www.w3.org/2000/svg" xmlns:xlink="http://www.w3.org/1999/xlink" version="1.1">
<metadata>
Created by FontForge 20170731 at Fri Nov  2 22:16:20 2018
 By Aleksey,,,
Copyright (c) 2018 by Alexander Slobzheninov. All rights reserved.
</metadata>
<defs>
<font id="ObjectSans-Regular" horiz-adv-x="605" >
  <font-face 
    font-family="Object Sans"
    font-weight="400"
    font-stretch="normal"
    units-per-em="1000"
    panose-1="0 0 5 0 0 0 0 0 0 0"
    ascent="800"
    descent="-200"
    x-height="505"
    cap-height="705"
    bbox="-161 -268 1429 957"
    underline-thickness="50"
    underline-position="-125"
    unicode-range="U+000D-FB00"
  />
<missing-glyph horiz-adv-x="0" 
 />
    <glyph glyph-name=".notdef" horiz-adv-x="0" 
 />
    <glyph glyph-name=".null" horiz-adv-x="0" 
 />
    <glyph glyph-name="nonmarkingreturn" unicode="&#xd;" horiz-adv-x="30" 
 />
    <glyph glyph-name="NULL" horiz-adv-x="736" 
d="M95 705h546v-705h-546v705zM566 67v572h-396v-572h396z" />
    <glyph glyph-name="NULL" horiz-adv-x="736" 
d="M95 705h546v-705h-546v705zM566 67v572h-396v-572h396z" />
    <glyph glyph-name="space" unicode=" " horiz-adv-x="250" 
 />
    <glyph glyph-name="exclam" unicode="!" horiz-adv-x="255" 
d="M82 520v185h92v-185l-21 -304h-51zM88 2.5q-15 15.5 -15 39.5t15 39.5t40 15.5q24 0 39.5 -15.5t15.5 -39.5t-15.5 -39.5t-39.5 -15.5q-25 0 -40 15.5z" />
    <glyph glyph-name="quotedbl" unicode="&#x22;" horiz-adv-x="331" 
d="M50 566v139h73v-139l-7 -182h-58zM208 566v139h73v-139l-7 -182h-58z" />
    <glyph glyph-name="numbersign" unicode="#" horiz-adv-x="951" 
d="M275 244h-224v61h240l39 147h-229v62h245l59 222h73l-59 -222h170l59 222h73l-59 -222h238v-62h-255l-39 -147h244v-61h-260l-64 -244h-73l65 244h-171l-65 -244h-73zM534 305l39 147h-171l-39 -147h171z" />
    <glyph glyph-name="dollar" unicode="$" horiz-adv-x="687" 
d="M565 39q-65 -57 -181 -63v-96h-84v98q-114 14 -178 80t-64 171h90q0 -82 55 -128t154 -46q86 0 134 34.5t48 94.5q0 45 -27 70.5t-67 37t-110 22.5q-80 13 -136 32t-93.5 61t-37.5 113q0 89 61 145t171 64v91h84v-93q108 -11 169 -73.5t61 -162.5h-89q1 75 -49 117
t-141 42q-84 0 -130 -33.5t-46 -91.5q0 -44 26 -68.5t66 -36t106 -21.5q84 -14 140 -32t94.5 -60.5t38.5 -116.5q0 -94 -65 -151z" />
    <glyph glyph-name="percent" unicode="%" horiz-adv-x="1017" 
d="M148 367.5q-46 25.5 -71.5 71.5t-25.5 105t25.5 104.5t71.5 71t105 25.5t105 -25.5t71.5 -71t25.5 -104.5t-25.5 -105t-71.5 -71.5t-105 -25.5t-105 25.5zM716 735h101l-515 -735h-102zM337 459q32 32 32 85q0 52 -32 84t-84 32t-84.5 -32t-32.5 -84t32.5 -84.5
t84.5 -32.5t84 32zM659.5 15.5q-45.5 25.5 -71 71.5t-25.5 105t25.5 105t71 71.5t104.5 25.5t105 -25.5t71.5 -71.5t25.5 -105t-25.5 -105t-71.5 -71.5t-105 -25.5t-104.5 25.5zM848.5 108q32.5 32 32.5 84t-32.5 84.5t-84.5 32.5q-51 0 -83.5 -32.5t-32.5 -84.5t32.5 -84
t83.5 -32q52 0 84.5 32z" />
    <glyph glyph-name="ampersand" unicode="&#x26;" horiz-adv-x="776" 
d="M170 1q-53 26 -83 72t-30 104q0 76 39.5 122.5t108.5 78.5q-71 83 -71 162q0 52 26 94t71.5 65.5t102.5 23.5q58 0 105 -25t74.5 -69.5t27.5 -100.5h-88q0 50 -34 82.5t-85 32.5q-49 0 -80 -30t-31 -77q0 -71 76 -139l229 -209q48 62 78 152h85q-36 -112 -106 -203
l152 -137h-123l-85 77q-53 -49 -114.5 -75.5t-124.5 -26.5q-67 0 -120 26zM472 129l-210 193q-57 -22 -86.5 -55t-29.5 -87q0 -55 44 -90t112 -35q91 0 170 74z" />
    <glyph glyph-name="quotesingle" unicode="'" horiz-adv-x="174" 
d="M51 566v139h73v-139l-8 -182h-57z" />
    <glyph glyph-name="parenleft" unicode="(" horiz-adv-x="309" 
d="M96 17q-44 126 -44 261t44 261.5t115 197.5h85q-78 -77 -124 -200t-46 -259q0 -138 46 -260.5t124 -197.5h-85q-71 71 -115 197z" />
    <glyph glyph-name="parenright" unicode=")" horiz-adv-x="308" 
d="M12 -180q78 75 124 197.5t46 260.5q0 135 -46 258.5t-124 200.5h86q71 -71 115 -197.5t44 -261.5t-44 -261t-115 -197h-86z" />
    <glyph glyph-name="asterisk" unicode="*" horiz-adv-x="514" 
d="M229 436l-147 -87l-31 53l149 83l-149 84l31 53l147 -87l-3 170h62l-2 -170l146 87l31 -53l-149 -84l149 -83l-31 -53l-146 87l2 -171h-62z" />
    <glyph glyph-name="plus" unicode="+" horiz-adv-x="572" 
d="M243 326h-192v75h192v178h86v-178h192v-75h-192v-187h-86v187z" />
    <glyph glyph-name="comma" unicode="," horiz-adv-x="213" 
d="M49 -128l46 116q-20 5 -31.5 19.5t-11.5 34.5q0 24 15.5 39.5t39.5 15.5q25 0 40 -15.5t15 -39.5q0 -20 -11 -42l-60 -138z" />
    <glyph glyph-name="hyphen" unicode="-" horiz-adv-x="512" 
d="M51 349h410v-75h-410v75z" />
    <glyph glyph-name="period" unicode="." horiz-adv-x="211" 
d="M66 2.5q-15 15.5 -15 39.5t15 39.5t40 15.5q24 0 39.5 -15.5t15.5 -39.5t-15.5 -39.5t-39.5 -15.5q-25 0 -40 15.5z" />
    <glyph glyph-name="slash" unicode="/" horiz-adv-x="409" 
d="M314 705h82l-301 -935h-82z" />
    <glyph glyph-name="zero" unicode="0" horiz-adv-x="728" 
d="M205.5 23.5q-68.5 48.5 -106 134.5t-37.5 195t37.5 195t106 134t158.5 48t158.5 -48t106.5 -134t38 -195q0 -110 -38 -196t-106.5 -134t-158.5 -48t-158.5 48.5zM475.5 93q48.5 38 74.5 106t26 154t-26 153.5t-74.5 105.5t-111.5 38t-111 -38t-74 -105.5t-26 -153.5
q0 -87 26 -154.5t74 -105.5t111 -38t111.5 38z" />
    <glyph glyph-name="one" unicode="1" horiz-adv-x="398" 
d="M213 579h-10l-163 -124v107l191 143h73v-705h-91v579z" />
    <glyph glyph-name="two" unicode="2" horiz-adv-x="601" 
d="M62 49l295 283q43 42 62 63t33 48.5t14 60.5q0 41 -19.5 74.5t-53.5 52.5t-76 19q-45 0 -82 -23t-59.5 -64t-24.5 -92h-88q0 74 32.5 133t90.5 92.5t130 33.5q69 0 124 -28.5t86 -78.5t31 -113q0 -59 -35 -113t-114 -128l-191 -179v-10h328v-80h-483v49z" />
    <glyph glyph-name="three" unicode="3" horiz-adv-x="603" 
d="M172 8.5q-59 33.5 -94 93t-38 134.5h92q0 -51 22.5 -92.5t61.5 -65t87 -23.5q47 0 85 19.5t59.5 53.5t21.5 77q0 44 -22 79t-60.5 55t-86.5 20q-17 0 -36 -4t-31 -9l-27 67l188 202v10h-314v80h453v-61l-196 -212q63 -5 114 -36t80 -81t29 -111q0 -65 -33 -117.5
t-91.5 -82t-131.5 -29.5t-132 33.5z" />
    <glyph glyph-name="four" unicode="4" horiz-adv-x="610" 
d="M380 156h-348v58l300 491h139v-469h88v-80h-88v-156h-91v156zM379 236v377h-9l-228 -377h237z" />
    <glyph glyph-name="five" unicode="5" horiz-adv-x="628" 
d="M187 8.5q-59 33.5 -94 93t-38 134.5h91q0 -51 23 -92.5t62 -65t87 -23.5q47 0 85 19.5t59.5 54.5t21.5 78q0 71 -50 115.5t-135 44.5h-185l37 338h365v-80h-291l-19 -178h102q80 0 140 -30.5t92.5 -84.5t32.5 -123q0 -67 -33 -120.5t-91 -83.5t-130 -30q-73 0 -132 33.5z
" />
    <glyph glyph-name="six" unicode="6" horiz-adv-x="634" 
d="M181 6q-61 31 -95.5 83.5t-34.5 115.5q0 95 77 196l231 304l109 1l-208 -276q37 16 77 16q70 0 126.5 -30t88 -82.5t31.5 -118.5q0 -69 -34 -123.5t-94.5 -85.5t-136.5 -31t-137 31zM407.5 76.5q39.5 20.5 62 56.5t22.5 82q0 44 -22.5 79.5t-62 55t-88.5 19.5
q-51 0 -91.5 -20t-63 -55.5t-22.5 -79.5q0 -45 22.5 -81t62.5 -56.5t91 -20.5q50 0 89.5 20.5z" />
    <glyph glyph-name="seven" unicode="7" horiz-adv-x="518" 
d="M388 625h-368v80h477v-54l-275 -651h-99z" />
    <glyph glyph-name="eight" unicode="8" horiz-adv-x="660" 
d="M192.5 3q-61.5 27 -96 74.5t-34.5 107.5q0 68 41 119.5t105 66.5v10q-49 17 -82.5 61.5t-33.5 98.5q0 55 30.5 98.5t85 67.5t123.5 24q68 0 122.5 -24t85 -67.5t30.5 -98.5q0 -54 -34 -98.5t-83 -61.5v-10q65 -15 106 -66.5t41 -119.5q0 -60 -34.5 -107.5t-95.5 -74.5
t-138 -27t-138.5 27zM435.5 446q41.5 34 41.5 86t-41.5 85.5t-104.5 33.5q-64 0 -105.5 -33.5t-41.5 -85.5t41.5 -86t105.5 -34q63 0 104.5 34zM417.5 74q38.5 18 60.5 49.5t22 70.5t-22 70.5t-61 49.5t-86 18q-48 0 -86.5 -18t-60.5 -49.5t-22 -70.5t22 -70.5t60.5 -49.5
t86.5 -18t86.5 18z" />
    <glyph glyph-name="nine" unicode="9" horiz-adv-x="633" 
d="M453 700q61 -31 95.5 -83.5t34.5 -115.5q0 -92 -77 -195l-231 -305h-110l208 276q-34 -16 -76 -16q-71 0 -127 30t-88 82.5t-32 118.5q0 69 34.5 123.5t95 85t136.5 30.5t137 -31zM225.5 630.5q-39.5 -20.5 -62 -57t-22.5 -81.5q0 -44 22.5 -79.5t62.5 -55t89 -19.5
q51 0 91 20t63 55t23 79q0 45 -23 81.5t-63 57t-91 20.5q-50 0 -89.5 -20.5z" />
    <glyph glyph-name="colon" unicode=":" horiz-adv-x="211" 
d="M66.5 386.5q-15.5 15.5 -15.5 40.5q0 23 15.5 38.5t39.5 15.5t39.5 -15.5t15.5 -38.5q0 -25 -15.5 -40.5t-39.5 -15.5t-39.5 15.5zM66.5 2.5q-15.5 15.5 -15.5 39.5t15.5 39.5t39.5 15.5t39.5 -15.5t15.5 -39.5t-15.5 -39.5t-39.5 -15.5t-39.5 15.5z" />
    <glyph glyph-name="semicolon" unicode=";" horiz-adv-x="213" 
d="M67.5 386.5q-15.5 15.5 -15.5 40.5q0 23 15.5 38.5t39.5 15.5q25 0 40.5 -15.5t15.5 -38.5q0 -25 -15.5 -40.5t-40.5 -15.5q-24 0 -39.5 15.5zM50 -128l46 116q-20 5 -31.5 19.5t-11.5 34.5q0 24 15 39.5t40 15.5q24 0 39.5 -15.5t15.5 -39.5q0 -17 -11 -42l-61 -138z
" />
    <glyph glyph-name="less" unicode="&#x3c;" horiz-adv-x="437" 
d="M13 302v98l372 204v-83l-310 -165v-9l310 -165v-83z" />
    <glyph glyph-name="equal" unicode="=" horiz-adv-x="572" 
d="M51 505h470v-75h-470v75zM51 254h470v-75h-470v75z" />
    <glyph glyph-name="greater" unicode="&#x3e;" horiz-adv-x="435" 
d="M51 182l310 165v9l-310 165v83l372 -204v-98l-372 -203v83z" />
    <glyph glyph-name="question" unicode="?" horiz-adv-x="570" 
d="M255 306.5q25 44.5 78 81.5q45 32 69.5 62.5t24.5 73.5q0 54 -39.5 90t-98.5 36q-67 0 -107 -45.5t-38 -117.5h-93q0 70 31 125.5t85 86.5t123 31q65 0 117 -27t81.5 -74.5t29.5 -104.5q0 -60 -32.5 -104.5t-91.5 -84.5q-44 -29 -62 -62t-18 -91h-84q0 80 25 124.5z
M235.5 1.5q-15.5 15.5 -15.5 40.5q0 23 15.5 38.5t39.5 15.5t39.5 -15.5t15.5 -38.5q0 -25 -15.5 -40.5t-39.5 -15.5t-39.5 15.5z" />
    <glyph glyph-name="at" unicode="@" horiz-adv-x="1011" 
d="M259 -125q-97 57 -152 158t-55 227q0 124 58.5 223.5t161.5 155.5t233 56t233.5 -56t162 -155.5t58.5 -223.5q0 -130 -44.5 -198.5t-131.5 -68.5q-54 0 -86.5 25.5t-41.5 72.5h-10q-25 -51 -74.5 -79t-115.5 -28q-80 0 -131 41.5t-51 108.5q0 70 58.5 113.5t169.5 55.5
l138 16v23q0 58 -34.5 84.5t-100.5 26.5q-62 0 -92.5 -24t-29.5 -75h-84q0 80 54.5 127t149.5 47q100 0 160 -50.5t60 -137.5v-206q0 -35 16.5 -54.5t46.5 -19.5q47 0 69.5 49.5t22.5 150.5q0 104 -48 187t-132.5 130t-191.5 47q-106 0 -191 -47t-133 -130t-48 -187
q0 -106 44.5 -190.5t123 -132t177.5 -47.5q40 0 81 9.5t65 23.5v-74q-30 -15 -70 -23t-76 -8q-122 0 -219 57zM557.5 73.5q38.5 20.5 60 55.5t21.5 77v47l-138 -15q-74 -9 -109.5 -36t-35.5 -67q0 -39 32 -60.5t82 -21.5q49 0 87.5 20.5z" />
    <glyph glyph-name="A" unicode="A" horiz-adv-x="713" 
d="M296 705h124l263 -705h-87l-60 158h-359l-60 -158h-87zM510 233l-148 392h-9l-149 -392h306z" />
    <glyph glyph-name="B" unicode="B" horiz-adv-x="697" 
d="M95 705h306q64 0 115 -24.5t79.5 -67.5t28.5 -97q0 -50 -29 -91t-74 -55v-10q54 -15 88.5 -60t34.5 -102q0 -56 -31.5 -101.5t-86.5 -71t-125 -25.5h-306v705zM390 402q63 0 103.5 31t40.5 80t-40.5 80.5t-103.5 31.5h-204v-223h204zM388 80q73 0 119.5 35t46.5 88
q0 52 -46.5 85.5t-119.5 33.5h-202v-242h202z" />
    <glyph glyph-name="C" unicode="C" horiz-adv-x="803" 
d="M229.5 23.5q-83.5 48.5 -130.5 134t-47 193.5t46.5 194.5t130 135.5t188.5 49q78 0 148.5 -33t119.5 -91.5t66 -131.5l-89 -12q-13 54 -49 97t-87.5 67t-108.5 24q-79 0 -141.5 -38.5t-97.5 -106t-35 -152.5t35.5 -153t98 -106.5t140.5 -38.5q56 0 107 23.5t88 65
t51 92.5l87 -17q-17 -70 -66 -125.5t-119 -87t-148 -31.5q-104 0 -187.5 48.5z" />
    <glyph glyph-name="D" unicode="D" horiz-adv-x="779" 
d="M95 705h226q121 0 213 -43.5t142.5 -123.5t50.5 -185t-50.5 -185t-142.5 -124t-213 -44h-226v705zM321 80q94 0 165.5 33t111 95t39.5 145t-39.5 144.5t-111 94.5t-165.5 33h-135v-545h135z" />
    <glyph glyph-name="E" unicode="E" horiz-adv-x="639" 
d="M95 705h484v-80h-392v-220h352v-80h-352v-245h402v-80h-494v705z" />
    <glyph glyph-name="F" unicode="F" horiz-adv-x="576" 
d="M95 705h449v-80h-357v-220h317v-80h-317v-325h-92v705z" />
    <glyph glyph-name="G" unicode="G" horiz-adv-x="852" 
d="M236.5 23.5q-86.5 48.5 -135.5 135t-49 194.5t49 194t135.5 134.5t195.5 48.5q73 0 139.5 -26.5t114.5 -73t67 -104.5l-83 -28q-23 66 -89.5 109t-148.5 43q-84 0 -149.5 -38t-102.5 -105.5t-37 -153.5q0 -85 37 -153t103 -106.5t149 -38.5q75 0 137.5 33t99.5 90.5
t39 127.5l-350 1v81h442q1 -11 1 -32q0 -110 -46.5 -197t-130.5 -135.5t-192 -48.5q-109 0 -195.5 48.5z" />
    <glyph glyph-name="H" unicode="H" horiz-adv-x="752" 
d="M94 705h92v-297h380v297h91v-705h-91v328h-380v-328h-92v705z" />
    <glyph glyph-name="I" unicode="I" horiz-adv-x="281" 
d="M95 705h91v-705h-91v705z" />
    <glyph glyph-name="J" unicode="J" horiz-adv-x="473" 
d="M104.5 -14.5q-35.5 5.5 -64.5 14.5v78q27 -8 57.5 -13t51.5 -5q63 0 102.5 41t39.5 110v494h91v-493q0 -68 -27.5 -120.5t-76 -82t-109.5 -29.5q-29 0 -64.5 5.5z" />
    <glyph glyph-name="K" unicode="K" horiz-adv-x="633" 
d="M95 705h91v-308h10l292 308h114l-328 -341l338 -364h-115l-301 331h-10v-331h-91v705z" />
    <glyph glyph-name="L" unicode="L" horiz-adv-x="572" 
d="M95 705h91v-625h355v-80h-446v705z" />
    <glyph glyph-name="M" unicode="M" horiz-adv-x="953" 
d="M94 705h144l233 -578h9l234 578h143v-705h-91v590h-9l-238 -590h-87l-237 589h-9v-589h-92v705z" />
    <glyph glyph-name="N" unicode="N" horiz-adv-x="755" 
d="M95 705h131l334 -585h9v585h91v-705h-130l-334 585h-10v-585h-91v705z" />
    <glyph glyph-name="O" unicode="O" horiz-adv-x="864" 
d="M235 23q-87 48 -135.5 134t-48.5 196q0 109 48.5 194.5t135.5 134t197 48.5t197 -48.5t135.5 -134t48.5 -194.5q0 -110 -48.5 -196t-135.5 -134t-197 -48t-197 48zM581 93.5q66 38.5 103 106t37 153.5q0 85 -37 153t-103 106t-149 38t-149.5 -38t-103.5 -106t-37 -153
t37 -153t103.5 -106.5t149.5 -38.5t149 38.5z" />
    <glyph glyph-name="P" unicode="P" horiz-adv-x="671" 
d="M95 705h281q116 0 184.5 -57t68.5 -157q0 -66 -31.5 -115.5t-89 -76t-132.5 -26.5h-192v-273h-89v705zM376 354q76 0 119.5 36.5t43.5 98.5q0 63 -43.5 99.5t-119.5 36.5h-192v-271h192z" />
    <glyph glyph-name="Q" unicode="Q" horiz-adv-x="865" 
d="M235.5 23q-86.5 48 -135 134t-48.5 196q0 109 48.5 194.5t135 134t196.5 48.5t197 -48.5t135.5 -134t48.5 -194.5q0 -74 -23.5 -138.5t-66.5 -114.5l111 -100h-117l-51 48q-49 -35 -108.5 -54t-125.5 -19q-110 0 -196.5 48zM600 105l-240 214h117l180 -160q31 38 48 87.5
t17 106.5q0 85 -37 153t-103.5 106t-149.5 38t-149 -38t-103 -106t-37 -153q0 -86 37 -153.5t103 -106t149 -38.5q96 0 168 50z" />
    <glyph glyph-name="R" unicode="R" horiz-adv-x="709" 
d="M95 705h307q76 0 133.5 -26.5t89 -75t31.5 -112.5q0 -59 -29 -105.5t-80 -74t-116 -30.5h-12l256 -281h-115l-244 276h-130v-276h-91v705zM402 356q76 0 119.5 36.5t43.5 98.5t-43.5 98t-119.5 36h-216v-269h216z" />
    <glyph glyph-name="S" unicode="S" horiz-adv-x="687" 
d="M196.5 5.5q-67.5 30.5 -103.5 88t-36 135.5h90q1 -82 56 -128t154 -46q86 0 134 34.5t48 94.5q0 45 -27 70.5t-67 37t-110 22.5q-80 13 -136 32t-93.5 61t-37.5 113q0 96 70.5 153t196.5 57q130 0 204 -63.5t75 -175.5h-88q0 75 -50 117t-141 42q-84 0 -130 -33.5
t-46 -91.5q0 -44 26 -68.5t66 -36t106 -21.5q84 -14 140 -32t94.5 -60.5t38.5 -116.5q0 -100 -72.5 -157.5t-201.5 -57.5q-92 0 -159.5 30.5z" />
    <glyph glyph-name="T" unicode="T" horiz-adv-x="582" 
d="M245 625h-233v80h558v-80h-234v-625h-91v625z" />
    <glyph glyph-name="U" unicode="U" horiz-adv-x="757" 
d="M230 13q-66 38 -103.5 105.5t-37.5 152.5v434h92v-434q0 -62 25.5 -111.5t70.5 -77t102 -27.5t102 27.5t70 77t25 111.5v434h91v-434q0 -85 -37 -152.5t-102.5 -105.5t-148.5 -38t-149 38z" />
    <glyph glyph-name="V" unicode="V" horiz-adv-x="702" 
d="M29 705h93l225 -637h9l224 637h93l-251 -705h-142z" />
    <glyph glyph-name="W" unicode="W" horiz-adv-x="1088" 
d="M48 705h88l180 -628h10l160 628h118l159 -628h10l180 628h87l-204 -705h-140l-147 595h-9l-147 -595h-140z" />
    <glyph glyph-name="X" unicode="X" horiz-adv-x="711" 
d="M293 373l-244 332h103l196 -279h9l202 279h103l-250 -332l260 -373h-102l-213 313h-9l-207 -313h-102z" />
    <glyph glyph-name="Y" unicode="Y" horiz-adv-x="660" 
d="M285 258l-255 447h96l200 -360h10l196 360h98l-253 -447v-258h-92v258z" />
    <glyph glyph-name="Z" unicode="Z" horiz-adv-x="655" 
d="M49 42l414 573v10h-404v80h538v-41l-414 -574v-10h424v-80h-558v42z" />
    <glyph glyph-name="bracketleft" unicode="[" horiz-adv-x="434" 
d="M95 735h326v-62h-246v-792h246v-61h-326v915z" />
    <glyph glyph-name="backslash" unicode="\" horiz-adv-x="407" 
d="M313 -230l-301 935h82l301 -935h-82z" />
    <glyph glyph-name="bracketright" unicode="]" horiz-adv-x="433" 
d="M13 -180v61h246v792h-246v62h326v-915h-326z" />
    <glyph glyph-name="asciicircum" unicode="^" horiz-adv-x="571" 
d="M237 705h98l188 -305h-83l-149 251h-10l-148 -251h-84z" />
    <glyph glyph-name="underscore" unicode="_" horiz-adv-x="500" 
d="M0 0h500v-70h-500v70z" />
    <glyph glyph-name="grave" unicode="`" horiz-adv-x="302" 
d="M51 735h94l107 -142h-87z" />
    <glyph glyph-name="a" unicode="a" horiz-adv-x="553" 
d="M86.5 23.5q-49.5 39.5 -49.5 104.5q0 68 58 114t168 58l140 17v20q0 51 -35 81.5t-97 30.5q-58 0 -92 -26.5t-33 -73.5h-84q0 80 57 127.5t153 47.5q98 0 156 -51.5t58 -137.5v-335h-83v74h-9q-56 -90 -176 -90q-82 0 -131.5 39.5zM320 72q39 19 61 53t22 76v45l-140 -16
q-74 -9 -108.5 -35.5t-34.5 -64.5q0 -36 29.5 -56.5t80.5 -20.5t90 19z" />
    <glyph glyph-name="b" unicode="b" horiz-adv-x="666" 
d="M244.5 5.5q-47.5 25.5 -75.5 72.5h-9v-78h-83v735h83v-305h9q28 46 76.5 70.5t109.5 24.5q73 0 132.5 -35t93.5 -97t34 -140t-34.5 -140t-94 -97.5t-132.5 -35.5q-62 0 -109.5 25.5zM441 81q43 26 67 71t24 101q0 55 -24 100t-67 71t-96 26q-54 0 -96.5 -26t-67 -71
t-24.5 -100t24.5 -100.5t67.5 -71.5t96 -26t96 26z" />
    <glyph glyph-name="c" unicode="c" horiz-adv-x="612" 
d="M179 15q-60 35 -94 97t-34 139q0 78 33.5 140.5t93.5 98t136 35.5q61 0 114 -24t88 -66.5t44 -95.5l-81 -11q-13 54 -59.5 88t-104.5 34q-51 0 -92.5 -25t-65 -70t-23.5 -102q0 -58 23.5 -103t64.5 -70t92 -25q59 0 105 33.5t61 86.5l82 -11q-11 -53 -47 -95t-88.5 -65.5
t-112.5 -23.5q-75 0 -135 35z" />
    <glyph glyph-name="d" unicode="d" horiz-adv-x="666" 
d="M180 15.5q-60 35.5 -94.5 97.5t-34.5 140t34 140t94 97t133 35q61 0 109 -24.5t76 -70.5h10v305h83v-735h-83v78h-10q-28 -47 -75.5 -72.5t-108.5 -25.5q-73 0 -133 35.5zM417.5 81q42.5 26 67 71.5t24.5 100.5t-24 100t-67 71t-96 26q-54 0 -96.5 -26t-67 -71
t-24.5 -100q0 -56 24.5 -101t67.5 -71t96 -26t95.5 26z" />
    <glyph glyph-name="e" unicode="e" horiz-adv-x="635" 
d="M183 16q-62 36 -97 99.5t-35 143.5q0 76 34.5 136.5t95.5 95t138 34.5q76 0 136.5 -34.5t94.5 -95t34 -137.5q0 -22 -1 -33h-447q9 -77 60.5 -123.5t128.5 -46.5q56 0 102.5 26.5t70.5 71.5l69 -35q-31 -65 -95.5 -101.5t-148.5 -36.5q-78 0 -140 36zM497 298
q-11 69 -60.5 110.5t-121.5 41.5q-70 0 -118.5 -42t-59.5 -110h360z" />
    <glyph glyph-name="f" unicode="f" horiz-adv-x="373" 
d="M122 439h-81v66h81v102q0 67 37.5 107.5t97.5 40.5q38 0 77 -12v-72q-31 9 -55 9q-33 0 -53.5 -22t-20.5 -59v-94h128v-66h-128v-439h-83v439z" />
    <glyph glyph-name="g" unicode="g" horiz-adv-x="666" 
d="M155.5 -205.5q-68.5 44.5 -94.5 123.5l83 31q20 -59 67 -91.5t114 -32.5q83 0 132.5 50t49.5 134v68h-10q-71 -90 -184 -90q-75 0 -135 34t-93.5 95t-33.5 137q0 77 34 139t93.5 97t134.5 35q115 0 185 -91h10v72h82v-496q0 -78 -33 -136.5t-94 -90.5t-142 -32
q-97 0 -165.5 44.5zM419 85q43 25 67 69t24 99q0 56 -24.5 101t-67.5 70.5t-96 25.5q-54 0 -97 -25.5t-67 -70.5t-24 -101q0 -55 24 -99t67 -69t97 -25t97 25z" />
    <glyph glyph-name="h" unicode="h" horiz-adv-x="606" 
d="M77 735h83v-294h10q27 40 68 62t91 22q63 0 110.5 -28.5t73.5 -79t26 -114.5v-303h-83v303q0 66 -37 106.5t-101 40.5q-42 0 -78.5 -20t-58 -55.5t-21.5 -79.5v-295h-83v735z" />
    <glyph glyph-name="i" unicode="i" horiz-adv-x="253" 
d="M84 618q-17 17 -17 43q0 25 17 41.5t43 16.5t42.5 -16t16.5 -42t-16.5 -43t-42.5 -17t-43 17zM85 505h83v-505h-83v505z" />
    <glyph glyph-name="j" unicode="j" horiz-adv-x="264" 
d="M85 618q-17 17 -17 43q0 25 17 41.5t43 16.5t43 -16.5t17 -41.5q0 -26 -17 -43t-43 -17t-43 17zM-54 -212v71q28 -9 65 -9q34 0 55 22t21 58v575h83v-575q0 -68 -38.5 -111.5t-97.5 -43.5q-51 0 -88 13z" />
    <glyph glyph-name="k" unicode="k" horiz-adv-x="503" 
d="M77 735h83v-446h10l216 216h110l-249 -242l255 -263h-111l-221 235h-10v-235h-83v735z" />
    <glyph glyph-name="l" unicode="l" horiz-adv-x="236" 
d="M77 735h83v-735h-83v735z" />
    <glyph glyph-name="m" unicode="m" horiz-adv-x="928" 
d="M77 505h80v-67h10q22 40 60.5 63.5t86.5 23.5q53 0 98 -27t67 -71h9q27 46 70 71.5t99 25.5q59 0 105.5 -28.5t72.5 -79t26 -115.5v-301h-83v302q0 64 -37 106t-94 42q-61 0 -99.5 -41.5t-38.5 -106.5v-302h-83v302q0 67 -35.5 107.5t-94.5 40.5q-61 0 -98.5 -40.5
t-37.5 -107.5v-302h-83v505z" />
    <glyph glyph-name="n" unicode="n" 
d="M77 505h83v-69h10q27 42 68 65t91 23q63 0 110.5 -28.5t73.5 -79t26 -114.5v-302h-83v302q0 65 -37 106t-101 41q-42 0 -78.5 -20t-58 -55.5t-21.5 -78.5v-295h-83v505z" />
    <glyph glyph-name="o" unicode="o" horiz-adv-x="642" 
d="M180.5 15q-61.5 35 -96 97t-34.5 141t34.5 140.5t96 96.5t140.5 35q78 0 140 -35t96.5 -97t34.5 -140q0 -79 -34.5 -141t-96.5 -97t-140 -35q-79 0 -140.5 35zM418 80.5q43 25.5 67 70.5t24 102q0 56 -24 101t-67 70.5t-97 25.5t-97 -25.5t-67 -70.5t-24 -101
q0 -57 24 -102t67 -70.5t97 -25.5t97 25.5z" />
    <glyph glyph-name="p" unicode="p" horiz-adv-x="666" 
d="M486.5 490q59.5 -35 94 -97t34.5 -140t-34 -140t-93.5 -97.5t-132.5 -35.5q-61 0 -109.5 25t-76.5 70h-9v-305h-83v735h83v-77h9q28 46 75.5 71.5t109.5 25.5q73 0 132.5 -35zM248.5 424q-42.5 -26 -67 -71t-24.5 -100t24.5 -100.5t67.5 -71.5t96 -26t95.5 26t67 71.5
t24.5 100.5q0 56 -24 101t-67 70.5t-96 25.5q-54 0 -96.5 -26z" />
    <glyph glyph-name="q" unicode="q" horiz-adv-x="666" 
d="M421.5 499.5q47.5 -25.5 75.5 -71.5h10v77h83v-735h-83v305h-10q-28 -45 -76 -70t-109 -25q-73 0 -132.5 35.5t-94 97.5t-34.5 140t34.5 140t94.5 97t133 35q61 0 108.5 -25.5zM226 424.5q-43 -25.5 -67.5 -70.5t-24.5 -101q0 -55 24.5 -100.5t67.5 -71.5t96 -26t95.5 26
t67 71.5t24.5 100.5t-24 100t-67 71t-96 26t-96 -25.5z" />
    <glyph glyph-name="r" unicode="r" horiz-adv-x="394" 
d="M77 505h81v-68h9q17 34 55 56t80 22q38 0 62 -13v-77q-35 15 -75 15q-57 0 -93 -46.5t-36 -121.5v-272h-83v505z" />
    <glyph glyph-name="s" unicode="s" horiz-adv-x="545" 
d="M115 30.5q-60 50.5 -60 140.5h80q1 -55 41.5 -88t110.5 -33q57 0 91 22.5t34 62.5q0 31 -19 46.5t-45 21.5t-81 13q-91 11 -147 42.5t-56 108.5q0 73 55.5 115.5t147.5 42.5q95 0 153.5 -46.5t58.5 -124.5h-81q-1 46 -37 73.5t-95 27.5q-55 0 -89 -23t-34 -62
q0 -29 18.5 -44.5t45 -21t79.5 -11.5q59 -7 102.5 -21.5t72.5 -47t29 -88.5q0 -74 -54.5 -115t-151.5 -41q-109 0 -169 50.5z" />
    <glyph glyph-name="t" unicode="t" horiz-adv-x="391" 
d="M159 22q-38 41 -38 108v309h-82v66h82l19 163h65l-1 -163h130v-66h-130v-306q0 -36 21 -59t57 -23q12 0 29 3t31 7v-67q-39 -13 -82 -13q-63 0 -101 41z" />
    <glyph glyph-name="u" unicode="u" 
d="M528 0h-83v69h-10q-26 -41 -67.5 -64t-90.5 -23q-63 0 -111 28.5t-73.5 79t-25.5 114.5v301h83v-301q0 -66 36.5 -106.5t100.5 -40.5q42 0 78.5 20t58 55.5t21.5 78.5v294h83v-505z" />
    <glyph glyph-name="v" unicode="v" horiz-adv-x="526" 
d="M12 505h85l161 -439h9l162 439h85l-192 -505h-118z" />
    <glyph glyph-name="w" unicode="w" horiz-adv-x="840" 
d="M22 505h82l141 -423h9l113 423h106l116 -424h9l138 424h82l-169 -505h-119l-105 409h-10l-106 -409h-118z" />
    <glyph glyph-name="x" unicode="x" horiz-adv-x="512" 
d="M204 263l-180 242h89l138 -188h10l138 188h89l-180 -242l190 -263h-92l-145 206h-10l-145 -206h-92z" />
    <glyph glyph-name="y" unicode="y" horiz-adv-x="532" 
d="M85 -219.5q-22 4.5 -39 11.5v73q38 -15 67 -15q30 0 51 16.5t33.5 41t28.5 64.5l12 29l-225 504h87l173 -395h10l148 395h89l-200 -513q-30 -75 -52 -117t-56.5 -70.5t-85.5 -28.5q-19 0 -41 4.5z" />
    <glyph glyph-name="z" unicode="z" horiz-adv-x="520" 
d="M32 36l311 385v9h-301v75h436v-36l-309 -384v-10h319v-75h-456v36z" />
    <glyph glyph-name="braceleft" unicode="{" horiz-adv-x="347" 
d="M155.5 -148.5q-31.5 31.5 -31.5 83.5v241q0 29 -17.5 47t-45.5 18h-10v83h10q28 0 45.5 17.5t17.5 46.5v233q0 51 31.5 82.5t82.5 31.5h97v-62h-59q-32 0 -51.5 -20t-19.5 -52v-221q0 -40 -24 -65t-64 -28v-9q40 -2 64 -27.5t24 -65.5v-232q0 -32 19.5 -52t51.5 -20h59
v-61h-97q-51 0 -82.5 31.5z" />
    <glyph glyph-name="bar" unicode="|" horiz-adv-x="269" 
d="M95 735h79v-965h-79v965z" />
    <glyph glyph-name="braceright" unicode="}" horiz-adv-x="346" 
d="M12 -180v61h59q32 0 51.5 20t19.5 52v232q0 40 24 65.5t64 27.5v9q-40 3 -64 28t-24 65v221q0 32 -19.5 52t-51.5 20h-59v62h97q50 0 81.5 -31.5t31.5 -82.5v-233q0 -29 17.5 -46.5t45.5 -17.5h10v-83h-10q-28 0 -45.5 -18t-17.5 -47v-241q0 -52 -31.5 -83.5t-81.5 -31.5
h-97z" />
    <glyph glyph-name="asciitilde" unicode="~" horiz-adv-x="662" 
d="M399 231q-32 15 -77 45q-42 27 -69.5 40.5t-54.5 13.5q-30 0 -59.5 -17.5t-51.5 -47.5l-36 49q26 40 69 64.5t84 24.5q33 0 65.5 -15.5t78.5 -45.5q42 -27 68.5 -40t51.5 -13q30 0 58.5 17.5t48.5 46.5l36 -49q-25 -39 -66.5 -63.5t-81.5 -24.5q-32 0 -64 15z" />
    <glyph glyph-name="exclamdown" unicode="&#xa1;" horiz-adv-x="255" 
d="M87.5 394.5q-15.5 15.5 -15.5 38.5q0 24 15.5 39.5t40.5 15.5q24 0 39.5 -15.5t15.5 -39.5q0 -23 -15.5 -38.5t-39.5 -15.5q-25 0 -40.5 15.5zM81 -45l21 304h51l20 -304v-185h-92v185z" />
    <glyph glyph-name="cent" unicode="&#xa2;" horiz-adv-x="612" 
d="M490.5 45q-56.5 -50 -133.5 -62v-92h-84v92q-65 9 -115 45.5t-78.5 94.5t-28.5 128q0 71 28 129.5t78.5 95.5t115.5 46v87h84v-87q79 -12 135 -62t68 -121l-80 -11q-14 54 -60.5 88t-104.5 34q-51 0 -92.5 -25t-65 -70t-23.5 -102q0 -58 23.5 -103t64.5 -70t92 -25
q59 0 105 33.5t62 86.5l81 -10q-15 -70 -71.5 -120z" />
    <glyph glyph-name="sterling" unicode="&#xa3;" horiz-adv-x="612" 
d="M51 95q34 6 57 24.5t37 64t14 127.5h-98v75h100v146q0 57 25 102t69 70.5t100 25.5q57 0 102.5 -27.5t73 -76t30.5 -109.5h-81q-3 61 -38 101t-86 40q-49 0 -79 -35.5t-30 -90.5v-146h248v-75h-252q-3 -74 -17 -118.5t-35.5 -68t-54.5 -39.5v-10h423v-75h-508v95z" />
    <glyph glyph-name="currency" unicode="&#xa4;" horiz-adv-x="732" 
d="M52 6l94 88q-51 66 -51 159q0 92 51 158l-93 88l52 54l95 -90q70 50 166 50q94 0 167 -50l97 89l50 -54l-94 -87q51 -69 51 -158q0 -90 -51 -159l94 -88l-50 -53l-97 91q-70 -51 -167 -51q-96 0 -166 50l-96 -90zM463 84.5q43 24.5 67 68.5t24 100q0 55 -24 99t-67 69
t-97 25q-53 0 -96 -25t-67 -69t-24 -99q0 -56 24 -100t66.5 -68.5t96.5 -24.5t97 24.5z" />
    <glyph glyph-name="yen" unicode="&#xa5;" horiz-adv-x="690" 
d="M301 80h-236v67h236v78h-236v66h213l-238 414h103l199 -364h10l195 365l104 -1l-237 -414h213v-66h-235v-78h235v-67h-235v-80h-91v80z" />
    <glyph glyph-name="brokenbar" unicode="&#xa6;" horiz-adv-x="267" 
d="M94 735h79v-409h-79v409zM94 179h79v-409h-79v409z" />
    <glyph glyph-name="section" unicode="&#xa7;" horiz-adv-x="600" 
d="M191.5 -130.5q-49.5 24.5 -78 67t-28.5 96.5h83q1 -47 40 -77.5t98 -30.5q53 0 87.5 26t34.5 66q0 36 -22.5 57t-56 30.5t-89.5 18.5q-94 14 -148 44.5t-54 100.5q0 48 33.5 84.5t86.5 46.5q-40 13 -65.5 50.5t-25.5 84.5q0 49 26.5 88t73 61t104.5 22q61 0 108.5 -24
t75 -66.5t28.5 -96.5h-83q0 47 -36.5 77t-94.5 30q-52 0 -85 -23.5t-33 -58.5q0 -33 21.5 -52t53.5 -29t90 -22q67 -13 108 -26t70 -42t29 -79q0 -47 -35 -83.5t-90 -47.5q44 -12 72 -49t28 -84q0 -53 -27.5 -95t-76.5 -65.5t-111 -23.5t-111.5 24.5zM419 216q37 25 37 62
q0 36 -24.5 55.5t-55.5 26.5t-78 12l-29 3q-55 -3 -91.5 -29.5t-36.5 -59.5q0 -35 22.5 -54t53 -27t76.5 -13l31 -4q58 3 95 28z" />
    <glyph glyph-name="dieresis" unicode="&#xa8;" horiz-adv-x="451" 
d="M65.5 616.5q-15.5 15.5 -15.5 38.5q0 24 15.5 39t40.5 15q24 0 39.5 -15t15.5 -39q0 -23 -15.5 -38.5t-39.5 -15.5q-25 0 -40.5 15.5zM305.5 616.5q-15.5 15.5 -15.5 38.5q0 24 15.5 39t39.5 15q25 0 40 -15t15 -39q0 -23 -15 -38.5t-40 -15.5q-24 0 -39.5 15.5z" />
    <glyph glyph-name="copyright" unicode="&#xa9;" horiz-adv-x="927" 
d="M250.5 -100q-93.5 52 -146 144.5t-52.5 209.5q0 115 52.5 207t146.5 144.5t212 52.5q120 0 214 -51.5t146.5 -143.5t52.5 -209q0 -118 -52.5 -210t-146.5 -144t-214 -52q-119 0 -212.5 52zM645 -51.5q80 44.5 124.5 124.5t44.5 181q0 99 -45 178t-124.5 124t-180.5 45
t-180.5 -45t-124.5 -124t-45 -178q0 -101 44.5 -181t124.5 -124.5t181 -44.5t181 44.5zM332 17.5q-61 34.5 -95 96t-34 139.5t34.5 139.5t95.5 96t139 34.5q57 0 107.5 -23.5t85.5 -65t46 -92.5l-57 -12q-16 58 -68 95.5t-117 37.5q-57 0 -102.5 -27t-71 -74.5t-25.5 -108.5
t26 -109t72 -75.5t104 -27.5q67 0 120.5 41t68.5 103l51 -13q-11 -54 -45.5 -97t-86 -67.5t-109.5 -24.5q-78 0 -139 34.5z" />
    <glyph glyph-name="guillemotleft" unicode="&#xab;" horiz-adv-x="637" 
d="M49 253l200 252h99l-203 -252l203 -253h-100zM286 253l200 252h99l-203 -252l203 -253h-99z" />
    <glyph glyph-name="logicalnot" unicode="&#xac;" horiz-adv-x="644" 
d="M519 286h-468v70h533v-286h-65v216z" />
    <glyph glyph-name="registered" unicode="&#xae;" horiz-adv-x="927" 
d="M250.5 -100q-93.5 52 -146 144.5t-52.5 209.5q0 115 52.5 207t146.5 144.5t212 52.5q120 0 214 -51.5t146.5 -143.5t52.5 -209q0 -118 -52.5 -210t-146.5 -144t-214 -52q-119 0 -212.5 52zM645 -51.5q80 44.5 124.5 124.5t44.5 181q0 99 -45 178t-124.5 124t-180.5 45
t-180.5 -45t-124.5 -124t-45 -178q0 -101 44.5 -181t124.5 -124.5t181 -44.5t181 44.5zM296 506h217q45 0 82 -19.5t58 -54.5t21 -78q0 -41 -21 -74t-57.5 -51.5t-82.5 -18.5h-3l160 -200h-82l-151 198h-77v-198h-64v496zM504 262q46 0 76 25.5t30 67.5t-30.5 68.5
t-75.5 26.5h-144v-188h144z" />
    <glyph glyph-name="macron" unicode="&#xaf;" horiz-adv-x="411" 
d="M51 668h310v-66h-310v66z" />
    <glyph glyph-name="degree" unicode="&#xb0;" horiz-adv-x="503" 
d="M106 400.5q-55 53.5 -55 140.5q0 88 55 141.5t146 53.5q90 0 145 -53.5t55 -141.5q0 -57 -25 -101t-70.5 -68.5t-104.5 -24.5q-91 0 -146 53.5zM350.5 443q37.5 37 37.5 98t-37.5 98.5t-98.5 37.5q-62 0 -99.5 -37.5t-37.5 -98.5t37.5 -98t99.5 -37q61 0 98.5 37z" />
    <glyph glyph-name="plusminus" unicode="&#xb1;" horiz-adv-x="569" 
d="M242 409h-191v77h191v117h86v-117h191v-77h-191v-125h-86v125zM51 188h468v-77h-468v77z" />
    <glyph glyph-name="acute" unicode="&#xb4;" horiz-adv-x="301" 
d="M50 593l107 142h94l-114 -142h-87z" />
    <glyph glyph-name="uni00B5" unicode="&#xb5;" horiz-adv-x="588" 
d="M77 505h83v-292q0 -67 36 -104.5t97 -37.5q35 0 66 17.5t50.5 50t19.5 75.5v291h83v-505h-81v75q-23 -37 -61 -57t-83 -20q-41 0 -74.5 16.5t-52.5 51.5v-252h-83v691z" />
    <glyph glyph-name="paragraph" unicode="&#xb6;" horiz-adv-x="718" 
d="M274 324q-66 0 -116.5 23.5t-78.5 66.5t-28 99q0 57 28 100.5t78.5 67.5t116.5 24h364v-64h-93v-863h-74v863h-122v-863h-75v546z" />
    <glyph glyph-name="periodcentered" unicode="&#xb7;" horiz-adv-x="212" 
d="M66.5 246.5q-15.5 15.5 -15.5 39.5q0 23 15.5 38t39.5 15t39.5 -15t15.5 -38q0 -24 -15.5 -39.5t-39.5 -15.5t-39.5 15.5z" />
    <glyph glyph-name="cedilla" unicode="&#xb8;" horiz-adv-x="312" 
d="M87 -212q-30 20 -36 52l53 13q3 -19 18 -30.5t35 -11.5q23 0 37 13t14 33q0 23 -18 37t-46 14h-51l16 112h60l-11 -69q45 0 74.5 -26.5t29.5 -66.5t-29 -65t-75 -25q-41 0 -71 20z" />
    <glyph glyph-name="guillemotright" unicode="&#xbb;" horiz-adv-x="635" 
d="M254 253l-203 252h99l200 -252l-200 -253h-99zM491 253l-203 252h100l200 -252l-200 -253h-100z" />
    <glyph glyph-name="questiondown" unicode="&#xbf;" horiz-adv-x="517" 
d="M232.5 418.5q-15.5 15.5 -15.5 38.5q0 25 15 40t40 15q24 0 39.5 -15t15.5 -40q0 -23 -15.5 -38.5t-39.5 -15.5t-39.5 15.5zM136 -204.5q-52 27.5 -81.5 74.5t-29.5 104q0 61 33 105.5t92 83.5q44 30 61.5 62.5t17.5 91.5h84q0 -80 -25 -124.5t-78 -81.5
q-45 -32 -69.5 -62.5t-24.5 -73.5q0 -55 39.5 -90.5t99.5 -35.5q66 0 106 45.5t38 116.5h93q0 -70 -31 -125.5t-85 -86.5t-123 -31q-65 0 -117 27.5z" />
    <glyph glyph-name="Agrave" unicode="&#xc0;" horiz-adv-x="713" 
d="M306 788l-110 113h103l105 -113h-98zM296 705h124l263 -705h-87l-60 158h-359l-60 -158h-87zM510 233l-148 392h-9l-149 -392h306z" />
    <glyph glyph-name="Aacute" unicode="&#xc1;" horiz-adv-x="713" 
d="M416 901h103l-110 -113h-98zM296 705h124l263 -705h-87l-60 158h-359l-60 -158h-87zM510 233l-148 392h-9l-149 -392h306z" />
    <glyph glyph-name="Acircumflex" unicode="&#xc2;" horiz-adv-x="713" 
d="M407 901l116 -113h-84l-75 62h-10l-75 -62h-84l115 113h97zM296 705h124l263 -705h-87l-60 158h-359l-60 -158h-87zM510 233l-148 392h-9l-149 -392h306z" />
    <glyph glyph-name="Atilde" unicode="&#xc3;" horiz-adv-x="713" 
d="M374 806.5q-18 8.5 -40 25.5q-16 12 -26.5 17.5t-23.5 5.5q-37 0 -63 -46l-44 32q14 31 43.5 50t66.5 19q25 0 42.5 -8t39.5 -24q18 -13 29.5 -19t26.5 -6q20 0 37 12.5t27 33.5l44 -32q-14 -31 -44 -50t-69 -19q-28 0 -46 8.5zM296 705h124l263 -705h-87l-60 158h-359
l-60 -158h-87zM510 233l-148 392h-9l-149 -392h306z" />
    <glyph glyph-name="Adieresis" unicode="&#xc4;" horiz-adv-x="713" 
d="M199.5 807q-16.5 17 -16.5 43t16.5 42t42.5 16t43 -16.5t17 -41.5q0 -26 -17 -43t-43 -17t-42.5 17zM430 807q-17 17 -17 43q0 25 17 41.5t43 16.5t43 -16.5t17 -41.5q0 -26 -17 -43t-43 -17t-43 17zM296 705h124l263 -705h-87l-60 158h-359l-60 -158h-87zM510 233
l-148 392h-9l-149 -392h306z" />
    <glyph glyph-name="Aring" unicode="&#xc5;" horiz-adv-x="713" 
d="M286.5 795.5q-28.5 26.5 -28.5 67.5t28 67.5t72 26.5q43 0 70.5 -26.5t27.5 -67.5t-27.5 -67.5t-70.5 -26.5t-71.5 26.5zM396.5 824.5q15.5 15.5 15.5 38.5q0 24 -15.5 39t-38.5 15q-24 0 -39 -15t-15 -39q0 -23 15 -38.5t39 -15.5q23 0 38.5 15.5zM296 705h124l263 -705
h-87l-60 158h-359l-60 -158h-87zM510 233l-148 392h-9l-149 -392h306z" />
    <glyph glyph-name="AE" unicode="&#xc6;" horiz-adv-x="930" 
d="M388 705h491v-80h-327v-224h287v-75h-287v-246h337v-80h-428v142h-256l-73 -142h-102zM461 217v417h-10l-210 -417h220z" />
    <glyph glyph-name="Ccedilla" unicode="&#xc7;" horiz-adv-x="803" 
d="M524 78.5q51 23.5 88 65t52 92.5l87 -17q-16 -66 -61.5 -119.5t-110.5 -86.5t-139 -37l-4 -25q45 0 74.5 -26.5t29.5 -66.5t-29 -65t-75 -25q-41 0 -71.5 20t-36.5 52l53 13q4 -19 19 -30.5t35 -11.5q22 0 36 13t14 33q0 23 -18 37t-45 14h-51l9 69q-95 8 -169.5 58.5
t-116.5 132.5t-42 183q0 108 46.5 194.5t130 135.5t188.5 49q78 0 148.5 -33t119.5 -91.5t67 -131.5l-89 -12q-13 54 -49.5 97t-88 67t-108.5 24q-79 0 -141.5 -38.5t-97.5 -106t-35 -152.5t35.5 -153t98 -106.5t140.5 -38.5q56 0 107 23.5z" />
    <glyph glyph-name="Egrave" unicode="&#xc8;" horiz-adv-x="639" 
d="M287 788l-109 113h103l105 -113h-99zM95 705h484v-80h-392v-220h352v-80h-352v-245h402v-80h-494v705z" />
    <glyph glyph-name="Eacute" unicode="&#xc9;" horiz-adv-x="639" 
d="M397 901h103l-109 -113h-99zM95 705h484v-80h-392v-220h352v-80h-352v-245h402v-80h-494v705z" />
    <glyph glyph-name="Ecircumflex" unicode="&#xca;" horiz-adv-x="639" 
d="M389 901l116 -113h-85l-74 62h-11l-75 -62h-84l115 113h98zM95 705h484v-80h-392v-220h352v-80h-352v-245h402v-80h-494v705z" />
    <glyph glyph-name="Edieresis" unicode="&#xcb;" horiz-adv-x="639" 
d="M181 807q-17 17 -17 43q0 25 17 41.5t43 16.5t42.5 -16t16.5 -42t-16.5 -43t-42.5 -17t-43 17zM411.5 807q-16.5 17 -16.5 43t16.5 42t42.5 16t43 -16.5t17 -41.5q0 -26 -17 -43t-43 -17t-42.5 17zM95 705h484v-80h-392v-220h352v-80h-352v-245h402v-80h-494v705z" />
    <glyph glyph-name="Igrave" unicode="&#xcc;" horiz-adv-x="281" 
d="M89 788l-109 113h103l105 -113h-99zM95 705h92v-705h-92v705z" />
    <glyph glyph-name="Iacute" unicode="&#xcd;" horiz-adv-x="281" 
d="M199 901h103l-109 -113h-99zM95 705h92v-705h-92v705z" />
    <glyph glyph-name="Icircumflex" unicode="&#xce;" horiz-adv-x="281" 
d="M189 901l116 -113h-84l-75 62h-10l-75 -62h-84l115 113h97zM95 705h92v-705h-92v705z" />
    <glyph glyph-name="Idieresis" unicode="&#xcf;" horiz-adv-x="281" 
d="M-17 807q-17 17 -17 43q0 25 17 41.5t43 16.5t42.5 -16t16.5 -42t-16.5 -43t-42.5 -17t-43 17zM213 807q-17 17 -17 43q0 25 17 41.5t43 16.5t43 -16.5t17 -41.5q0 -26 -17 -43t-43 -17t-43 17zM95 705h92v-705h-92v705z" />
    <glyph glyph-name="Ntilde" unicode="&#xd1;" horiz-adv-x="755" 
d="M414.5 806.5q-18.5 8.5 -40.5 25.5q-16 12 -26.5 17.5t-23.5 5.5q-37 0 -63 -46l-44 32q15 31 44 50t66 19q25 0 42.5 -8t39.5 -24q18 -13 29.5 -19t26.5 -6q20 0 37 12.5t27 33.5l44 -32q-14 -31 -44 -50t-68 -19q-28 0 -46.5 8.5zM95 705h131l334 -585h9v585h91v-705
h-130l-334 585h-10v-585h-91v705z" />
    <glyph glyph-name="Ograve" unicode="&#xd2;" horiz-adv-x="864" 
d="M380 788l-110 113h104l105 -113h-99zM235 23q-87 48 -135.5 134t-48.5 196q0 109 48.5 194.5t135.5 134t197 48.5t197 -48.5t135.5 -134t48.5 -194.5q0 -110 -48.5 -196t-135.5 -134t-197 -48t-197 48zM581 93.5q66 38.5 103 106t37 153.5q0 85 -37 153t-103 106t-149 38
t-149.5 -38t-103.5 -106t-37 -153t37 -153t103.5 -106.5t149.5 -38.5t149 38.5z" />
    <glyph glyph-name="Oacute" unicode="&#xd3;" horiz-adv-x="864" 
d="M490 901h103l-109 -113h-99zM235 23q-87 48 -135.5 134t-48.5 196q0 109 48.5 194.5t135.5 134t197 48.5t197 -48.5t135.5 -134t48.5 -194.5q0 -110 -48.5 -196t-135.5 -134t-197 -48t-197 48zM581 93.5q66 38.5 103 106t37 153.5q0 85 -37 153t-103 106t-149 38
t-149.5 -38t-103.5 -106t-37 -153t37 -153t103.5 -106.5t149.5 -38.5t149 38.5z" />
    <glyph glyph-name="Ocircumflex" unicode="&#xd4;" horiz-adv-x="864" 
d="M481 901l116 -113h-84l-75 62h-10l-75 -62h-84l115 113h97zM235 23q-87 48 -135.5 134t-48.5 196q0 109 48.5 194.5t135.5 134t197 48.5t197 -48.5t135.5 -134t48.5 -194.5q0 -110 -48.5 -196t-135.5 -134t-197 -48t-197 48zM581 93.5q66 38.5 103 106t37 153.5
q0 85 -37 153t-103 106t-149 38t-149.5 -38t-103.5 -106t-37 -153t37 -153t103.5 -106.5t149.5 -38.5t149 38.5z" />
    <glyph glyph-name="Otilde" unicode="&#xd5;" horiz-adv-x="864" 
d="M448.5 806.5q-18.5 8.5 -40.5 25.5q-16 12 -26.5 17.5t-23.5 5.5q-37 0 -63 -46l-44 32q15 31 44 50t66 19q25 0 43.5 -8.5t39.5 -24.5q18 -12 29 -18t26 -6q20 0 37 12.5t27 33.5l44 -32q-14 -31 -44 -50t-68 -19q-28 0 -46.5 8.5zM235 23q-87 48 -135.5 134t-48.5 196
q0 109 48.5 194.5t135.5 134t197 48.5t197 -48.5t135.5 -134t48.5 -194.5q0 -110 -48.5 -196t-135.5 -134t-197 -48t-197 48zM581 93.5q66 38.5 103 106t37 153.5q0 85 -37 153t-103 106t-149 38t-149.5 -38t-103.5 -106t-37 -153t37 -153t103.5 -106.5t149.5 -38.5
t149 38.5z" />
    <glyph glyph-name="Odieresis" unicode="&#xd6;" horiz-adv-x="864" 
d="M274 807q-17 17 -17 43q0 25 17 41.5t43 16.5t42.5 -16.5t16.5 -41.5q0 -26 -16.5 -43t-42.5 -17t-43 17zM504 807q-17 17 -17 43q0 25 17 41.5t43 16.5t43 -16.5t17 -41.5q0 -26 -17 -43t-43 -17t-43 17zM235 23q-87 48 -135.5 134t-48.5 196q0 109 48.5 194.5
t135.5 134t197 48.5t197 -48.5t135.5 -134t48.5 -194.5q0 -110 -48.5 -196t-135.5 -134t-197 -48t-197 48zM581 93.5q66 38.5 103 106t37 153.5q0 85 -37 153t-103 106t-149 38t-149.5 -38t-103.5 -106t-37 -153t37 -153t103.5 -106.5t149.5 -38.5t149 38.5z" />
    <glyph glyph-name="multiply" unicode="&#xd7;" horiz-adv-x="399" 
d="M51 247l100 107l-100 108l50 50l98 -106l98 106l51 -50l-100 -108l100 -107l-50 -50l-99 106l-98 -106z" />
    <glyph glyph-name="Oslash" unicode="&#xd8;" horiz-adv-x="845" 
d="M227 26q-82 48 -128.5 133.5t-46.5 193.5t47.5 194t132 134.5t190.5 48.5q78 0 144 -27l79 157h85l-96 -192q74 -49 116.5 -131.5t42.5 -183.5q0 -108 -47.5 -194.5t-132 -135t-191.5 -48.5q-65 0 -127 20l-66 -135h-85zM530 629q-53 21 -108 21q-80 0 -143.5 -38.5
t-99.5 -106t-36 -152.5q0 -80 32 -145t89 -105zM566 93.5q64 38.5 100 106.5t36 153q0 75 -28.5 136.5t-79.5 101.5l-261 -522q44 -14 89 -14q80 0 144 38.5z" />
    <glyph glyph-name="Ugrave" unicode="&#xd9;" horiz-adv-x="757" 
d="M328 788l-109 113h103l105 -113h-99zM230 13q-66 38 -103 105.5t-37 152.5v434h91v-434q0 -62 25.5 -111.5t70.5 -77t102 -27.5t102 27.5t70.5 77t25.5 111.5v434h91v-434q0 -85 -37 -152.5t-103 -105.5t-149 -38t-149 38z" />
    <glyph glyph-name="Uacute" unicode="&#xda;" horiz-adv-x="757" 
d="M438 901h103l-109 -113h-99zM230 13q-66 38 -103 105.5t-37 152.5v434h91v-434q0 -62 25.5 -111.5t70.5 -77t102 -27.5t102 27.5t70.5 77t25.5 111.5v434h91v-434q0 -85 -37 -152.5t-103 -105.5t-149 -38t-149 38z" />
    <glyph glyph-name="Ucircumflex" unicode="&#xdb;" horiz-adv-x="757" 
d="M430 901l116 -113h-85l-74 62h-11l-74 -62h-85l115 113h98zM230 13q-66 38 -103 105.5t-37 152.5v434h91v-434q0 -62 25.5 -111.5t70.5 -77t102 -27.5t102 27.5t70.5 77t25.5 111.5v434h91v-434q0 -85 -37 -152.5t-103 -105.5t-149 -38t-149 38z" />
    <glyph glyph-name="Udieresis" unicode="&#xdc;" horiz-adv-x="757" 
d="M222 807q-17 17 -17 43q0 25 17 41.5t43 16.5t43 -16.5t17 -41.5q0 -26 -17 -43t-43 -17t-43 17zM452.5 807q-16.5 17 -16.5 43t16.5 42t42.5 16t43 -16.5t17 -41.5q0 -26 -17 -43t-43 -17t-42.5 17zM230 13q-66 38 -103 105.5t-37 152.5v434h91v-434q0 -62 25.5 -111.5
t70.5 -77t102 -27.5t102 27.5t70.5 77t25.5 111.5v434h91v-434q0 -85 -37 -152.5t-103 -105.5t-149 -38t-149 38z" />
    <glyph glyph-name="Yacute" unicode="&#xdd;" horiz-adv-x="660" 
d="M389 901h103l-109 -113h-99zM285 258l-255 447h96l200 -360h10l196 360h98l-253 -447v-258h-92v258z" />
    <glyph glyph-name="germandbls" unicode="&#xdf;" horiz-adv-x="664" 
d="M330.5 -17.5q-36.5 7.5 -66.5 18.5v86q28 -15 63 -24t66 -9q61 0 98.5 37t37.5 101q0 65 -42 105.5t-123 40.5h-44v74h44q46 0 75 30.5t29 77.5q0 54 -39.5 88.5t-101.5 34.5q-68 0 -109.5 -47t-41.5 -125v-471h-92v480q0 70 31.5 125t87 86.5t126.5 31.5q66 0 118.5 -25
t82.5 -69.5t30 -100.5q0 -53 -25.5 -91t-68.5 -52v-9q67 -13 110.5 -66.5t43.5 -126.5q0 -58 -29.5 -105.5t-80 -75t-112.5 -27.5q-31 0 -67.5 7.5z" />
    <glyph glyph-name="agrave" unicode="&#xe0;" horiz-adv-x="553" 
d="M118 735h94l107 -142h-87zM86.5 23.5q-49.5 39.5 -49.5 104.5q0 68 58 114t168 58l140 17v20q0 51 -35 81.5t-97 30.5q-58 0 -92 -26.5t-33 -73.5h-84q0 80 57 127.5t153 47.5q98 0 156 -51.5t58 -137.5v-335h-83v74h-9q-56 -90 -176 -90q-82 0 -131.5 39.5zM320 72
q39 19 61 53t22 76v45l-140 -16q-74 -9 -108.5 -35.5t-34.5 -64.5q0 -36 29.5 -56.5t80.5 -20.5t90 19z" />
    <glyph glyph-name="aacute" unicode="&#xe1;" horiz-adv-x="553" 
d="M225 593l107 142h94l-114 -142h-87zM86.5 23.5q-49.5 39.5 -49.5 104.5q0 68 58 114t168 58l140 17v20q0 51 -35 81.5t-97 30.5q-58 0 -92 -26.5t-33 -73.5h-84q0 80 57 127.5t153 47.5q98 0 156 -51.5t58 -137.5v-335h-83v74h-9q-56 -90 -176 -90q-82 0 -131.5 39.5z
M320 72q39 19 61 53t22 76v45l-140 -16q-74 -9 -108.5 -35.5t-34.5 -64.5q0 -36 29.5 -56.5t80.5 -20.5t90 19z" />
    <glyph glyph-name="acircumflex" unicode="&#xe2;" horiz-adv-x="553" 
d="M227 735h93l115 -142h-82l-74 86h-10l-76 -86h-80zM86.5 23.5q-49.5 39.5 -49.5 104.5q0 68 58 114t168 58l140 17v20q0 51 -35 81.5t-97 30.5q-58 0 -92 -26.5t-33 -73.5h-84q0 80 57 127.5t153 47.5q98 0 156 -51.5t58 -137.5v-335h-83v74h-9q-56 -90 -176 -90
q-82 0 -131.5 39.5zM320 72q39 19 61 53t22 76v45l-140 -16q-74 -9 -108.5 -35.5t-34.5 -64.5q0 -36 29.5 -56.5t80.5 -20.5t90 19z" />
    <glyph glyph-name="atilde" unicode="&#xe3;" horiz-adv-x="553" 
d="M291.5 601.5q-18.5 8.5 -39.5 24.5q-16 12 -28 18t-27 6q-18 0 -34 -10t-25 -26l-44 33q14 30 44 49t66 19q25 0 42.5 -8.5t39.5 -23.5q17 -13 29.5 -19.5t28.5 -6.5q20 0 36.5 10.5t24.5 27.5l45 -33q-14 -31 -44 -50t-69 -19q-27 0 -45.5 8.5zM86.5 23.5
q-49.5 39.5 -49.5 104.5q0 68 58 114t168 58l140 17v20q0 51 -35 81.5t-97 30.5q-58 0 -92 -26.5t-33 -73.5h-84q0 80 57 127.5t153 47.5q98 0 156 -51.5t58 -137.5v-335h-83v74h-9q-56 -90 -176 -90q-82 0 -131.5 39.5zM320 72q39 19 61 53t22 76v45l-140 -16
q-74 -9 -108.5 -35.5t-34.5 -64.5q0 -36 29.5 -56.5t80.5 -20.5t90 19z" />
    <glyph glyph-name="adieresis" unicode="&#xe4;" horiz-adv-x="553" 
d="M112.5 616.5q-15.5 15.5 -15.5 38.5q0 24 15.5 39t39.5 15q25 0 40 -15t15 -39q0 -23 -15 -38.5t-40 -15.5q-24 0 -39.5 15.5zM352.5 616.5q-15.5 15.5 -15.5 38.5q0 24 15 39t40 15q24 0 39.5 -15t15.5 -39q0 -23 -15.5 -38.5t-39.5 -15.5t-39.5 15.5zM86.5 23.5
q-49.5 39.5 -49.5 104.5q0 68 58 114t168 58l140 17v20q0 51 -35 81.5t-97 30.5q-58 0 -92 -26.5t-33 -73.5h-84q0 80 57 127.5t153 47.5q98 0 156 -51.5t58 -137.5v-335h-83v74h-9q-56 -90 -176 -90q-82 0 -131.5 39.5zM320 72q39 19 61 53t22 76v45l-140 -16
q-74 -9 -108.5 -35.5t-34.5 -64.5q0 -36 29.5 -56.5t80.5 -20.5t90 19z" />
    <glyph glyph-name="aring" unicode="&#xe5;" horiz-adv-x="553" 
d="M193.5 617.5q-30.5 29.5 -30.5 74.5q0 46 30.5 75t78.5 29t78 -29t30 -75q0 -45 -30 -74.5t-78 -29.5t-78.5 29.5zM318 646q18 18 18 46t-18 46t-46 18t-46 -17.5t-18 -46.5q0 -28 18 -46t46 -18t46 18zM86.5 23.5q-49.5 39.5 -49.5 104.5q0 68 58 114t168 58l140 17v20
q0 51 -35 81.5t-97 30.5q-58 0 -92 -26.5t-33 -73.5h-84q0 80 57 127.5t153 47.5q98 0 156 -51.5t58 -137.5v-335h-83v74h-9q-56 -90 -176 -90q-82 0 -131.5 39.5zM320 72q39 19 61 53t22 76v45l-140 -16q-74 -9 -108.5 -35.5t-34.5 -64.5q0 -36 29.5 -56.5t80.5 -20.5
t90 19z" />
    <glyph glyph-name="ae" unicode="&#xe6;" horiz-adv-x="952" 
d="M388.5 500.5q51.5 -26.5 76.5 -72.5q73 97 193 97q71 0 126.5 -34.5t86.5 -95t31 -137.5q0 -21 -1 -32h-405q9 -77 55.5 -124t113.5 -47q47 0 86.5 25.5t63.5 71.5l68 -34q-27 -61 -86 -99.5t-127 -38.5q-74 0 -132 39.5t-85 104.5q-20 -63 -82 -101.5t-144 -38.5
q-86 0 -138 41t-52 108q0 70 59 114t170 56l140 15v23q0 52 -36.5 81.5t-99.5 29.5q-55 0 -90 -27.5t-34 -70.5h-84q0 49 26.5 88.5t74 62t106.5 22.5q68 0 119.5 -26.5zM550 408q-42 -42 -53 -111h317q-10 69 -53 111t-107 42q-62 0 -104 -42zM156.5 201.5
q-36.5 -27.5 -36.5 -66.5t32.5 -61t83.5 -22q49 0 88 20.5t60.5 55.5t21.5 77v48l-140 -16q-73 -8 -109.5 -35.5z" />
    <glyph glyph-name="ccedilla" unicode="&#xe7;" horiz-adv-x="612" 
d="M483.5 39.5q-62.5 -50.5 -145.5 -58.5l-4 -30q44 0 73.5 -26.5t29.5 -66.5t-29 -65t-75 -25q-41 0 -71 20t-36 52l53 13q3 -19 18 -30.5t35 -11.5q23 0 37 13t14 33q0 23 -18 37t-46 14h-51l11 74q-66 8 -118 44.5t-81 94.5t-29 130q0 78 34 140.5t94 98t135 35.5
q61 0 114 -24t88 -66.5t44 -95.5l-80 -11q-14 54 -60.5 88t-104.5 34q-51 0 -92.5 -25t-65 -70t-23.5 -102q0 -58 23.5 -103t64.5 -70t92 -25q59 0 105 33.5t62 86.5l81 -10q-16 -75 -78.5 -125.5z" />
    <glyph glyph-name="egrave" unicode="&#xe8;" horiz-adv-x="635" 
d="M164 735h94l107 -142h-87zM183.5 16q-62.5 36 -97.5 99.5t-35 143.5q0 76 34.5 136.5t95.5 95t138 34.5q76 0 136.5 -34.5t95 -95.5t34.5 -137q0 -22 -1 -33h-447q9 -77 60.5 -123.5t127.5 -46.5q57 0 103.5 26.5t69.5 71.5l69 -35q-30 -65 -94.5 -101.5t-148.5 -36.5
q-78 0 -140.5 36zM497 298q-11 68 -60.5 110t-120.5 42q-70 0 -118.5 -41.5t-59.5 -110.5h359z" />
    <glyph glyph-name="eacute" unicode="&#xe9;" horiz-adv-x="635" 
d="M271 593l108 142h94l-115 -142h-87zM183.5 16q-62.5 36 -97.5 99.5t-35 143.5q0 76 34.5 136.5t95.5 95t138 34.5q76 0 136.5 -34.5t95 -95.5t34.5 -137q0 -22 -1 -33h-447q9 -77 60.5 -123.5t127.5 -46.5q57 0 103.5 26.5t69.5 71.5l69 -35q-30 -65 -94.5 -101.5
t-148.5 -36.5q-78 0 -140.5 36zM497 298q-11 68 -60.5 110t-120.5 42q-70 0 -118.5 -41.5t-59.5 -110.5h359z" />
    <glyph glyph-name="ecircumflex" unicode="&#xea;" horiz-adv-x="635" 
d="M273 735h93l115 -142h-81l-75 86h-10l-75 -86h-81zM183.5 16q-62.5 36 -97.5 99.5t-35 143.5q0 76 34.5 136.5t95.5 95t138 34.5q76 0 136.5 -34.5t95 -95.5t34.5 -137q0 -22 -1 -33h-447q9 -77 60.5 -123.5t127.5 -46.5q57 0 103.5 26.5t69.5 71.5l69 -35
q-30 -65 -94.5 -101.5t-148.5 -36.5q-78 0 -140.5 36zM497 298q-11 68 -60.5 110t-120.5 42q-70 0 -118.5 -41.5t-59.5 -110.5h359z" />
    <glyph glyph-name="edieresis" unicode="&#xeb;" horiz-adv-x="635" 
d="M158.5 616.5q-15.5 15.5 -15.5 38.5q0 24 15.5 39t39.5 15q25 0 40.5 -15t15.5 -39q0 -23 -15.5 -38.5t-40.5 -15.5q-24 0 -39.5 15.5zM398.5 616.5q-15.5 15.5 -15.5 38.5q0 24 15.5 39t39.5 15t39.5 -15t15.5 -39q0 -23 -15.5 -38.5t-39.5 -15.5t-39.5 15.5zM183.5 16
q-62.5 36 -97.5 99.5t-35 143.5q0 76 34.5 136.5t95.5 95t138 34.5q76 0 136.5 -34.5t95 -95.5t34.5 -137q0 -22 -1 -33h-447q9 -77 60.5 -123.5t127.5 -46.5q57 0 103.5 26.5t69.5 71.5l69 -35q-30 -65 -94.5 -101.5t-148.5 -36.5q-78 0 -140.5 36zM497 298
q-11 68 -60.5 110t-120.5 42q-70 0 -118.5 -41.5t-59.5 -110.5h359z" />
    <glyph glyph-name="igrave" unicode="&#xec;" horiz-adv-x="235" 
d="M-36 735h94l107 -142h-87zM77 505h83v-505h-83v505z" />
    <glyph glyph-name="iacute" unicode="&#xed;" horiz-adv-x="235" 
d="M72 593l107 142h94l-114 -142h-87zM77 505h83v-505h-83v505z" />
    <glyph glyph-name="icircumflex" unicode="&#xee;" horiz-adv-x="235" 
d="M73 735h93l115 -142h-81l-75 86h-10l-75 -86h-81zM77 505h83v-505h-83v505z" />
    <glyph glyph-name="idieresis" unicode="&#xef;" horiz-adv-x="235" 
d="M-41.5 616.5q-15.5 15.5 -15.5 38.5q0 24 15.5 39t40.5 15q24 0 39.5 -15t15.5 -39q0 -23 -15.5 -38.5t-39.5 -15.5q-25 0 -40.5 15.5zM198.5 616.5q-15.5 15.5 -15.5 38.5q0 24 15.5 39t39.5 15t39.5 -15t15.5 -39q0 -23 -15.5 -38.5t-39.5 -15.5t-39.5 15.5zM77 505h83
v-505h-83v505z" />
    <glyph glyph-name="ntilde" unicode="&#xf1;" 
d="M339.5 601.5q-18.5 8.5 -39.5 24.5q-16 12 -28 18t-27 6q-18 0 -34 -10t-25 -26l-44 33q14 30 44 49t66 19q25 0 43 -8.5t40 -24.5q17 -13 29.5 -19t27.5 -6q20 0 36.5 10.5t24.5 27.5l45 -33q-14 -31 -44 -50t-69 -19q-27 0 -45.5 8.5zM78 505h83v-69h9q27 42 68 65
t91 23q63 0 110.5 -28.5t73.5 -79t26 -114.5v-302h-83v302q0 65 -37 106t-101 41q-42 0 -78 -20t-57.5 -55.5t-21.5 -78.5v-295h-83v505z" />
    <glyph glyph-name="ograve" unicode="&#xf2;" horiz-adv-x="642" 
d="M167 735h94l107 -142h-87zM180.5 15q-61.5 35 -96 97t-34.5 141t34.5 140.5t96 96.5t140.5 35q78 0 140 -35t96.5 -97t34.5 -140q0 -79 -34.5 -141t-96.5 -97t-140 -35q-79 0 -140.5 35zM418 80.5q43 25.5 67 70.5t24 102q0 56 -24 101t-67 70.5t-97 25.5t-97 -25.5
t-67 -70.5t-24 -101q0 -57 24 -102t67 -70.5t97 -25.5t97 25.5z" />
    <glyph glyph-name="oacute" unicode="&#xf3;" horiz-adv-x="642" 
d="M274 593l107 142h94l-114 -142h-87zM180.5 15q-61.5 35 -96 97t-34.5 141t34.5 140.5t96 96.5t140.5 35q78 0 140 -35t96.5 -97t34.5 -140q0 -79 -34.5 -141t-96.5 -97t-140 -35q-79 0 -140.5 35zM418 80.5q43 25.5 67 70.5t24 102q0 56 -24 101t-67 70.5t-97 25.5
t-97 -25.5t-67 -70.5t-24 -101q0 -57 24 -102t67 -70.5t97 -25.5t97 25.5z" />
    <glyph glyph-name="ocircumflex" unicode="&#xf4;" horiz-adv-x="642" 
d="M276 735h93l114 -142h-81l-75 86h-9l-76 -86h-80zM180.5 15q-61.5 35 -96 97t-34.5 141t34.5 140.5t96 96.5t140.5 35q78 0 140 -35t96.5 -97t34.5 -140q0 -79 -34.5 -141t-96.5 -97t-140 -35q-79 0 -140.5 35zM418 80.5q43 25.5 67 70.5t24 102q0 56 -24 101t-67 70.5
t-97 25.5t-97 -25.5t-67 -70.5t-24 -101q0 -57 24 -102t67 -70.5t97 -25.5t97 25.5z" />
    <glyph glyph-name="otilde" unicode="&#xf5;" horiz-adv-x="642" 
d="M341 601q-17 8 -42 25q-14 12 -26.5 18t-26.5 6q-18 0 -34 -10t-25 -26l-44 33q14 30 44 49t66 19q24 0 41.5 -8t39.5 -24q18 -13 31 -19.5t28 -6.5q20 0 36.5 10.5t24.5 27.5l45 -33q-15 -32 -44.5 -50.5t-68.5 -18.5q-28 0 -45 8zM180.5 15q-61.5 35 -96 97t-34.5 141
t34.5 140.5t96 96.5t140.5 35q78 0 140 -35t96.5 -97t34.5 -140q0 -79 -34.5 -141t-96.5 -97t-140 -35q-79 0 -140.5 35zM418 80.5q43 25.5 67 70.5t24 102q0 56 -24 101t-67 70.5t-97 25.5t-97 -25.5t-67 -70.5t-24 -101q0 -57 24 -102t67 -70.5t97 -25.5t97 25.5z" />
    <glyph glyph-name="odieresis" unicode="&#xf6;" horiz-adv-x="642" 
d="M161.5 616.5q-15.5 15.5 -15.5 38.5q0 24 15.5 39t39.5 15t39.5 -15t15.5 -39q0 -23 -15.5 -38.5t-39.5 -15.5t-39.5 15.5zM400.5 616.5q-15.5 15.5 -15.5 38.5q0 24 15.5 39t39.5 15q25 0 40.5 -15t15.5 -39q0 -23 -15.5 -38.5t-40.5 -15.5q-24 0 -39.5 15.5zM180.5 15
q-61.5 35 -96 97t-34.5 141t34.5 140.5t96 96.5t140.5 35q78 0 140 -35t96.5 -97t34.5 -140q0 -79 -34.5 -141t-96.5 -97t-140 -35q-79 0 -140.5 35zM418 80.5q43 25.5 67 70.5t24 102q0 56 -24 101t-67 70.5t-97 25.5t-97 -25.5t-67 -70.5t-24 -101q0 -57 24 -102t67 -70.5
t97 -25.5t97 25.5z" />
    <glyph glyph-name="divide" unicode="&#xf7;" horiz-adv-x="552" 
d="M240 502.5q-14 13.5 -14 35.5q0 21 14 34.5t36 13.5t36 -13.5t14 -34.5q0 -22 -14 -35.5t-36 -13.5t-36 13.5zM51 386h450v-75h-450v75zM240 108.5q-14 13.5 -14 35.5q0 21 14 34.5t36 13.5t36 -13.5t14 -34.5q0 -22 -14 -35.5t-36 -13.5t-36 13.5z" />
    <glyph glyph-name="oslash" unicode="&#xf8;" horiz-adv-x="648" 
d="M424 509l45 91h79l-62 -123q52 -36 81.5 -94t29.5 -130q0 -79 -35 -141t-97 -97t-141 -35q-46 0 -82 11l-34 -71h-79l49 97q-60 35 -93.5 96t-33.5 140t35 140.5t97 96.5t141 35q56 0 100 -16zM221.5 434.5q-45.5 -26.5 -71 -74t-25.5 -107.5q0 -56 22 -101.5t62 -72.5
l185 370q-33 12 -70 12q-57 0 -102.5 -26.5zM426 71q45 27 70.5 74.5t25.5 107.5q0 49 -18 90.5t-51 69.5l-181 -363q24 -6 52 -6q57 0 102 27z" />
    <glyph glyph-name="ugrave" unicode="&#xf9;" 
d="M141 735h94l107 -142h-87zM528 0h-83v69h-10q-26 -41 -67.5 -64t-90.5 -23q-63 0 -111 28.5t-73.5 79t-25.5 114.5v301h83v-301q0 -66 36.5 -106.5t100.5 -40.5q42 0 78.5 20t58 55.5t21.5 78.5v294h83v-505z" />
    <glyph glyph-name="uacute" unicode="&#xfa;" 
d="M248 593l107 142h94l-114 -142h-87zM528 0h-83v69h-10q-26 -41 -67.5 -64t-90.5 -23q-63 0 -111 28.5t-73.5 79t-25.5 114.5v301h83v-301q0 -66 36.5 -106.5t100.5 -40.5q42 0 78.5 20t58 55.5t21.5 78.5v294h83v-505z" />
    <glyph glyph-name="ucircumflex" unicode="&#xfb;" 
d="M250 735h93l115 -142h-82l-74 86h-10l-76 -86h-80zM528 0h-83v69h-10q-26 -41 -67.5 -64t-90.5 -23q-63 0 -111 28.5t-73.5 79t-25.5 114.5v301h83v-301q0 -66 36.5 -106.5t100.5 -40.5q42 0 78.5 20t58 55.5t21.5 78.5v294h83v-505z" />
    <glyph glyph-name="udieresis" unicode="&#xfc;" 
d="M135.5 616.5q-15.5 15.5 -15.5 38.5q0 24 15.5 39t39.5 15q25 0 40 -15t15 -39q0 -23 -15 -38.5t-40 -15.5q-24 0 -39.5 15.5zM375.5 616.5q-15.5 15.5 -15.5 38.5q0 24 15 39t40 15q24 0 39.5 -15t15.5 -39q0 -23 -15.5 -38.5t-39.5 -15.5t-39.5 15.5zM528 0h-83v69h-10
q-26 -41 -67.5 -64t-90.5 -23q-63 0 -111 28.5t-73.5 79t-25.5 114.5v301h83v-301q0 -66 36.5 -106.5t100.5 -40.5q42 0 78.5 20t58 55.5t21.5 78.5v294h83v-505z" />
    <glyph glyph-name="yacute" unicode="&#xfd;" horiz-adv-x="533" 
d="M229 593l108 142h94l-115 -142h-87zM85 -219.5q-22 4.5 -39 11.5v73q38 -15 67 -15q30 0 51 16.5t33.5 41t28.5 64.5l12 29l-225 504h87l173 -395h10l148 395h89l-200 -513q-30 -75 -52 -117t-56.5 -70.5t-85.5 -28.5q-19 0 -41 4.5z" />
    <glyph glyph-name="ydieresis" unicode="&#xff;" horiz-adv-x="533" 
d="M116.5 616.5q-15.5 15.5 -15.5 38.5q0 24 15.5 39t40.5 15q24 0 39.5 -15t15.5 -39q0 -23 -15.5 -38.5t-39.5 -15.5q-25 0 -40.5 15.5zM356.5 616.5q-15.5 15.5 -15.5 38.5q0 24 15.5 39t39.5 15t39.5 -15t15.5 -39q0 -23 -15.5 -38.5t-39.5 -15.5t-39.5 15.5zM85 -219.5
q-22 4.5 -39 11.5v73q38 -15 67 -15q30 0 51 16.5t33.5 41t28.5 64.5l12 29l-225 504h87l173 -395h10l148 395h89l-200 -513q-30 -75 -52 -117t-56.5 -70.5t-85.5 -28.5q-19 0 -41 4.5z" />
    <glyph glyph-name="Amacron" unicode="&#x100;" horiz-adv-x="713" 
d="M203 868h310v-66h-310v66zM296 705h124l263 -705h-87l-60 158h-359l-60 -158h-87zM510 233l-148 392h-9l-149 -392h306z" />
    <glyph glyph-name="amacron" unicode="&#x101;" horiz-adv-x="553" 
d="M117 668h310v-66h-310v66zM86.5 23.5q-49.5 39.5 -49.5 104.5q0 68 58 114t168 58l140 17v20q0 51 -35 81.5t-97 30.5q-58 0 -92 -26.5t-33 -73.5h-84q0 80 57 127.5t153 47.5q98 0 156 -51.5t58 -137.5v-335h-83v74h-9q-56 -90 -176 -90q-82 0 -131.5 39.5zM320 72
q39 19 61 53t22 76v45l-140 -16q-74 -9 -108.5 -35.5t-34.5 -64.5q0 -36 29.5 -56.5t80.5 -20.5t90 19z" />
    <glyph glyph-name="Abreve" unicode="&#x102;" horiz-adv-x="713" 
d="M249.5 813q-42.5 35 -42.5 88h82q0 -28 18.5 -43.5t50.5 -15.5t50 15.5t18 43.5h81q0 -53 -42 -88t-107 -35q-66 0 -108.5 35zM296 705h124l263 -705h-87l-60 158h-359l-60 -158h-87zM510 233l-148 392h-9l-149 -392h306z" />
    <glyph glyph-name="abreve" unicode="&#x103;" horiz-adv-x="553" 
d="M176 639q-38 38 -38 96h70q0 -33 17 -53t47 -20q29 0 46.5 20t17.5 53h69q0 -58 -37.5 -96t-95.5 -38t-96 38zM86.5 23.5q-49.5 39.5 -49.5 104.5q0 68 58 114t168 58l140 17v20q0 51 -35 81.5t-97 30.5q-58 0 -92 -26.5t-33 -73.5h-84q0 80 57 127.5t153 47.5
q98 0 156 -51.5t58 -137.5v-335h-83v74h-9q-56 -90 -176 -90q-82 0 -131.5 39.5zM320 72q39 19 61 53t22 76v45l-140 -16q-74 -9 -108.5 -35.5t-34.5 -64.5q0 -36 29.5 -56.5t80.5 -20.5t90 19z" />
    <glyph glyph-name="Aogonek" unicode="&#x104;" horiz-adv-x="713" 
d="M580 -53.5q-30 -28.5 -30 -57.5q0 -19 12 -30t32 -11q26 0 58 20v-47q-16 -9 -36 -15t-37 -6q-34 0 -55.5 21t-21.5 56q0 34 23.5 66t69.5 60l-59 155h-359l-60 -158h-87l266 705h124l263 -705h-17q-56 -25 -86 -53.5zM510 233l-148 392h-9l-149 -392h306z" />
    <glyph glyph-name="aogonek" unicode="&#x105;" horiz-adv-x="553" 
d="M428 472.5q58 -51.5 58 -137.5v-335h-8q-56 -24 -86 -53t-30 -58q0 -19 11.5 -30t32.5 -11q26 0 58 20v-47q-37 -21 -74 -21q-34 0 -55 21.5t-21 55.5q0 33 22.5 64.5t66.5 58.5v74h-9q-56 -90 -176 -90q-82 0 -131.5 39.5t-49.5 104.5q0 68 58 114t168 58l140 17v20
q0 51 -35 81.5t-97 30.5q-58 0 -92 -26.5t-33 -73.5h-84q0 80 57 127.5t153 47.5q98 0 156 -51.5zM320 72q39 19 61 53t22 76v45l-140 -16q-74 -9 -108.5 -35.5t-34.5 -64.5q0 -36 29.5 -56.5t80.5 -20.5t90 19z" />
    <glyph glyph-name="Cacute" unicode="&#x106;" horiz-adv-x="803" 
d="M476 914h103l-110 -113h-99zM229.5 23.5q-83.5 48.5 -130.5 134t-47 193.5t46.5 194.5t130 135.5t188.5 49q78 0 148.5 -33t119.5 -91.5t67 -131.5l-89 -12q-13 54 -49.5 97t-88 67t-108.5 24q-79 0 -141.5 -38.5t-97.5 -106t-35 -152.5t35.5 -153t98 -106.5t140.5 -38.5
q56 0 107 23.5t88 65t52 92.5l87 -17q-17 -69 -66 -125t-119.5 -87.5t-148.5 -31.5q-104 0 -187.5 48.5z" />
    <glyph glyph-name="cacute" unicode="&#x107;" horiz-adv-x="612" 
d="M268 593l107 142h94l-114 -142h-87zM179 15q-60 35 -94 97t-34 139q0 78 34 140.5t94 98t135 35.5q61 0 114 -24t88 -66.5t44 -95.5l-80 -11q-14 54 -60.5 88t-104.5 34q-51 0 -92.5 -25t-65 -70t-23.5 -102q0 -58 23.5 -103t64.5 -70t92 -25q59 0 105 33.5t62 86.5
l81 -10q-11 -53 -47 -95.5t-89 -66t-112 -23.5q-75 0 -135 35z" />
    <glyph glyph-name="Ccircumflex" unicode="&#x108;" horiz-adv-x="803" 
d="M467 914l116 -113h-85l-74 62h-11l-74 -62h-85l115 113h98zM229.5 23.5q-83.5 48.5 -130.5 134t-47 193.5t46.5 194.5t130 135.5t188.5 49q78 0 148.5 -33t119.5 -91.5t67 -131.5l-89 -12q-13 54 -49.5 97t-88 67t-108.5 24q-79 0 -141.5 -38.5t-97.5 -106t-35 -152.5
t35.5 -153t98 -106.5t140.5 -38.5q56 0 107 23.5t88 65t52 92.5l87 -17q-17 -69 -66 -125t-119.5 -87.5t-148.5 -31.5q-104 0 -187.5 48.5z" />
    <glyph glyph-name="ccircumflex" unicode="&#x109;" horiz-adv-x="612" 
d="M269 735h93l115 -142h-81l-75 86h-9l-76 -86h-80zM179 15q-60 35 -94 97t-34 139q0 78 34 140.5t94 98t135 35.5q61 0 114 -24t88 -66.5t44 -95.5l-80 -11q-14 54 -60.5 88t-104.5 34q-51 0 -92.5 -25t-65 -70t-23.5 -102q0 -58 23.5 -103t64.5 -70t92 -25q59 0 105 33.5
t62 86.5l81 -10q-11 -53 -47 -95.5t-89 -66t-112 -23.5q-75 0 -135 35z" />
    <glyph glyph-name="Cdotaccent" unicode="&#x10a;" horiz-adv-x="803" 
d="M374.5 819.5q-16.5 16.5 -16.5 42.5t16.5 42.5t43.5 16.5q26 0 42.5 -16.5t16.5 -42.5t-16.5 -42.5t-42.5 -16.5q-27 0 -43.5 16.5zM229.5 23.5q-83.5 48.5 -130.5 134t-47 193.5t46.5 194.5t130 135.5t188.5 49q78 0 148.5 -33t119.5 -91.5t67 -131.5l-89 -12
q-13 54 -49.5 97t-88 67t-108.5 24q-79 0 -141.5 -38.5t-97.5 -106t-35 -152.5t35.5 -153t98 -106.5t140.5 -38.5q56 0 107 23.5t88 65t52 92.5l87 -17q-17 -69 -66 -125t-119.5 -87.5t-148.5 -31.5q-104 0 -187.5 48.5z" />
    <glyph glyph-name="cdotaccent" unicode="&#x10b;" horiz-adv-x="612" 
d="M272 618q-17 17 -17 43q0 25 17 41.5t43 16.5t42.5 -16t16.5 -42t-16.5 -43t-42.5 -17t-43 17zM179 15q-60 35 -94 97t-34 139q0 78 34 140.5t94 98t135 35.5q61 0 114 -24t88 -66.5t44 -95.5l-80 -11q-14 54 -60.5 88t-104.5 34q-51 0 -92.5 -25t-65 -70t-23.5 -102
q0 -58 23.5 -103t64.5 -70t92 -25q59 0 105 33.5t62 86.5l81 -10q-11 -53 -47 -95.5t-89 -66t-112 -23.5q-75 0 -135 35z" />
    <glyph glyph-name="Ccaron" unicode="&#x10c;" horiz-adv-x="803" 
d="M253 914h85l74 -62h11l74 62h85l-116 -113h-98zM229.5 23.5q-83.5 48.5 -130.5 134t-47 193.5t46.5 194.5t130 135.5t188.5 49q78 0 148.5 -33t119.5 -91.5t67 -131.5l-89 -12q-13 54 -49.5 97t-88 67t-108.5 24q-79 0 -141.5 -38.5t-97.5 -106t-35 -152.5t35.5 -153
t98 -106.5t140.5 -38.5q56 0 107 23.5t88 65t52 92.5l87 -17q-17 -69 -66 -125t-119.5 -87.5t-148.5 -31.5q-104 0 -187.5 48.5z" />
    <glyph glyph-name="ccaron" unicode="&#x10d;" horiz-adv-x="612" 
d="M233 735l76 -85h9l75 85h82l-115 -142h-93l-114 142h80zM179 15q-60 35 -94 97t-34 139q0 78 34 140.5t94 98t135 35.5q61 0 114 -24t88 -66.5t44 -95.5l-80 -11q-14 54 -60.5 88t-104.5 34q-51 0 -92.5 -25t-65 -70t-23.5 -102q0 -58 23.5 -103t64.5 -70t92 -25
q59 0 105 33.5t62 86.5l81 -10q-11 -53 -47 -95.5t-89 -66t-112 -23.5q-75 0 -135 35z" />
    <glyph glyph-name="Dcaron" unicode="&#x10e;" horiz-adv-x="779" 
d="M217 901h85l74 -62h11l74 62h85l-116 -113h-98zM95 705h227q120 0 212.5 -43.5t143 -123.5t50.5 -185t-50.5 -185t-143 -124t-212.5 -44h-227v705zM322 80q94 0 165 33t110.5 95t39.5 145t-39.5 144.5t-110.5 94.5t-165 33h-135v-545h135z" />
    <glyph glyph-name="dcaron" unicode="&#x10f;" horiz-adv-x="674" 
d="M677 566l38 74q-23 2 -38 16t-15 35q0 24 15.5 39t39.5 15t39.5 -15t15.5 -39q0 -21 -11 -42l-50 -93zM180 15.5q-60 35.5 -94.5 97.5t-34.5 140t34 140t94 97t133 35q61 0 109 -24.5t76 -70.5h10v305h83v-735h-83v78h-10q-28 -47 -75.5 -72.5t-108.5 -25.5
q-73 0 -133 35.5zM417.5 81q42.5 26 67 71.5t24.5 100.5t-24 100t-67 71t-96 26q-54 0 -96.5 -26t-67 -71t-24.5 -100q0 -56 24.5 -101t67.5 -71t96 -26t95.5 26z" />
    <glyph glyph-name="Dcroat" unicode="&#x110;" horiz-adv-x="825" 
d="M580.5 661.5q92.5 -43.5 143 -123.5t50.5 -185t-50.5 -185t-143 -124t-212.5 -44h-227v366h-111v75h111v264h227q120 0 212.5 -43.5zM533 113q71 33 110.5 95t39.5 145t-39.5 144.5t-110.5 94.5t-165 33h-135v-184h247v-75h-247v-286h135q94 0 165 33z" />
    <glyph glyph-name="dcroat" unicode="&#x111;" horiz-adv-x="665" 
d="M679 610h-90v-610h-83v78h-10q-28 -47 -75.5 -72.5t-108.5 -25.5q-73 0 -133 35.5t-94.5 97.5t-34.5 140t34 140t94 97t133 35q61 0 109 -24.5t76 -70.5h10v180h-209v61h209v64h83v-64h90v-61zM417 81q43 26 67.5 71.5t24.5 100.5t-24.5 100t-67 71t-96.5 26t-96.5 -26
t-67 -71t-24.5 -100q0 -56 24.5 -101t67.5 -71t96 -26t96 26z" />
    <glyph glyph-name="Emacron" unicode="&#x112;" horiz-adv-x="639" 
d="M184 868h310v-66h-310v66zM95 705h484v-80h-392v-220h352v-80h-352v-245h402v-80h-494v705z" />
    <glyph glyph-name="emacron" unicode="&#x113;" horiz-adv-x="635" 
d="M163 668h310v-66h-310v66zM183.5 16q-62.5 36 -97.5 99.5t-35 143.5q0 76 34.5 136.5t95.5 95t138 34.5q76 0 136.5 -34.5t95 -95.5t34.5 -137q0 -22 -1 -33h-447q9 -77 60.5 -123.5t127.5 -46.5q57 0 103.5 26.5t69.5 71.5l69 -35q-30 -65 -94.5 -101.5t-148.5 -36.5
q-78 0 -140.5 36zM497 298q-11 68 -60.5 110t-120.5 42q-70 0 -118.5 -41.5t-59.5 -110.5h359z" />
    <glyph glyph-name="Ebreve" unicode="&#x114;" horiz-adv-x="639" 
d="M231.5 813q-42.5 35 -42.5 88h82q0 -28 18 -43.5t50 -15.5t50 15.5t18 43.5h82q0 -53 -42.5 -88t-107.5 -35t-107.5 35zM95 705h484v-80h-392v-220h352v-80h-352v-245h402v-80h-494v705z" />
    <glyph glyph-name="ebreve" unicode="&#x115;" horiz-adv-x="635" 
d="M222.5 638.5q-37.5 37.5 -37.5 96.5h69q0 -33 17 -53t47 -20t47 20t17 53h70q0 -58 -38 -96t-96 -38t-95.5 37.5zM183.5 16q-62.5 36 -97.5 99.5t-35 143.5q0 76 34.5 136.5t95.5 95t138 34.5q76 0 136.5 -34.5t95 -95.5t34.5 -137q0 -22 -1 -33h-447q9 -77 60.5 -123.5
t127.5 -46.5q57 0 103.5 26.5t69.5 71.5l69 -35q-30 -65 -94.5 -101.5t-148.5 -36.5q-78 0 -140.5 36zM497 298q-11 68 -60.5 110t-120.5 42q-70 0 -118.5 -41.5t-59.5 -110.5h359z" />
    <glyph glyph-name="Edotaccent" unicode="&#x116;" horiz-adv-x="639" 
d="M296.5 807q-16.5 17 -16.5 43t16.5 42t42.5 16t43 -16.5t17 -41.5q0 -26 -17 -43t-43 -17t-42.5 17zM95 705h484v-80h-392v-220h352v-80h-352v-245h402v-80h-494v705z" />
    <glyph glyph-name="edotaccent" unicode="&#x117;" horiz-adv-x="635" 
d="M275.5 618q-16.5 17 -16.5 43t16.5 42t42.5 16t43 -16.5t17 -41.5q0 -26 -17 -43t-43 -17t-42.5 17zM183.5 16q-62.5 36 -97.5 99.5t-35 143.5q0 76 34.5 136.5t95.5 95t138 34.5q76 0 136.5 -34.5t95 -95.5t34.5 -137q0 -22 -1 -33h-447q9 -77 60.5 -123.5t127.5 -46.5
q57 0 103.5 26.5t69.5 71.5l69 -35q-30 -65 -94.5 -101.5t-148.5 -36.5q-78 0 -140.5 36zM497 298q-11 68 -60.5 110t-120.5 42q-70 0 -118.5 -41.5t-59.5 -110.5h359z" />
    <glyph glyph-name="Eogonek" unicode="&#x118;" horiz-adv-x="639" 
d="M589 80v-80h-30q-56 -24 -86 -53t-30 -58q0 -19 11.5 -30t32.5 -11q26 0 58 20v-47q-37 -21 -74 -21q-34 0 -55 21.5t-21 55.5q0 33 22.5 64.5t66.5 58.5h-389v705h484v-80h-392v-220h352v-80h-352v-245h402z" />
    <glyph glyph-name="eogonek" unicode="&#x119;" horiz-adv-x="635" 
d="M584 225h-447q9 -77 60.5 -123.5t127.5 -46.5q57 0 103.5 26.5t69.5 71.5l69 -35q-22 -48 -64 -81t-98 -47q-46 -23 -70 -49t-24 -52q0 -19 11.5 -30t32.5 -11q26 0 58 20v-47q-37 -21 -74 -21q-34 0 -55 21.5t-21 55.5q0 55 60 103q-78 0 -140 36t-97 99.5t-35 143.5
q0 76 34.5 136.5t95.5 95t138 34.5q76 0 136.5 -34.5t95 -95.5t34.5 -137q0 -22 -1 -33zM497 298q-11 68 -60.5 110t-120.5 42q-70 0 -118.5 -41.5t-59.5 -110.5h359z" />
    <glyph glyph-name="Ecaron" unicode="&#x11a;" horiz-adv-x="639" 
d="M175 901h84l75 -62h11l74 62h85l-116 -113h-98zM95 705h484v-80h-392v-220h352v-80h-352v-245h402v-80h-494v705z" />
    <glyph glyph-name="ecaron" unicode="&#x11b;" horiz-adv-x="635" 
d="M237 735l76 -85h9l75 85h81l-115 -142h-93l-113 142h80zM183.5 16q-62.5 36 -97.5 99.5t-35 143.5q0 76 34.5 136.5t95.5 95t138 34.5q76 0 136.5 -34.5t95 -95.5t34.5 -137q0 -22 -1 -33h-447q9 -77 60.5 -123.5t127.5 -46.5q57 0 103.5 26.5t69.5 71.5l69 -35
q-30 -65 -94.5 -101.5t-148.5 -36.5q-78 0 -140.5 36zM497 298q-11 68 -60.5 110t-120.5 42q-70 0 -118.5 -41.5t-59.5 -110.5h359z" />
    <glyph glyph-name="Gcircumflex" unicode="&#x11c;" horiz-adv-x="852" 
d="M482 901l116 -113h-84l-75 62h-10l-75 -62h-84l115 113h97zM237 23.5q-87 48.5 -136 135t-49 194.5t49 194t136 134.5t196 48.5q72 0 138.5 -26.5t115 -73t67.5 -105.5l-84 -26q-22 66 -89 108.5t-148 42.5q-84 0 -150 -38t-103 -105.5t-37 -153.5q0 -85 37 -153
t103.5 -106.5t149.5 -38.5q74 0 136.5 33t99.5 91t39 128h-350v81h442q1 -11 1 -32q0 -110 -46.5 -197t-130 -135.5t-191.5 -48.5q-109 0 -196 48.5z" />
    <glyph glyph-name="gcircumflex" unicode="&#x11d;" horiz-adv-x="666" 
d="M276 735h93l114 -142h-81l-75 86h-9l-76 -86h-80zM155.5 -205.5q-68.5 44.5 -94.5 123.5l83 31q20 -59 67 -91.5t114 -32.5q83 0 132.5 49.5t49.5 134.5v68h-10q-71 -90 -184 -90q-75 0 -135 34t-93.5 95t-33.5 137q0 77 34 139t93.5 97t134.5 35q115 0 185 -91h10v72h82
v-496q0 -78 -33 -136.5t-94 -90.5t-142 -32q-97 0 -165.5 44.5zM419 85q43 25 67 69t24 99q0 56 -24.5 101t-67.5 70.5t-96 25.5q-54 0 -97 -25.5t-67 -70.5t-24 -101q0 -55 24 -99t67 -69t97 -25t97 25z" />
    <glyph glyph-name="Gbreve" unicode="&#x11e;" horiz-adv-x="852" 
d="M325 813q-43 35 -43 88h83q0 -28 18 -43.5t50 -15.5t50 15.5t18 43.5h81q0 -53 -42 -88t-107 -35t-108 35zM237 23.5q-87 48.5 -136 135t-49 194.5t49 194t136 134.5t196 48.5q72 0 138.5 -26.5t115 -73t67.5 -105.5l-84 -26q-22 66 -89 108.5t-148 42.5q-84 0 -150 -38
t-103 -105.5t-37 -153.5q0 -85 37 -153t103.5 -106.5t149.5 -38.5q74 0 136.5 33t99.5 91t39 128h-350v81h442q1 -11 1 -32q0 -110 -46.5 -197t-130 -135.5t-191.5 -48.5q-109 0 -196 48.5z" />
    <glyph glyph-name="gbreve" unicode="&#x11f;" horiz-adv-x="666" 
d="M225 639q-38 38 -38 96h70q0 -33 17 -53t47 -20q29 0 46.5 20t17.5 53h69q0 -58 -37.5 -96t-95.5 -38t-96 38zM155.5 -205.5q-68.5 44.5 -94.5 123.5l83 31q20 -59 67 -91.5t114 -32.5q83 0 132.5 49.5t49.5 134.5v68h-10q-71 -90 -184 -90q-75 0 -135 34t-93.5 95
t-33.5 137q0 77 34 139t93.5 97t134.5 35q115 0 185 -91h10v72h82v-496q0 -78 -33 -136.5t-94 -90.5t-142 -32q-97 0 -165.5 44.5zM419 85q43 25 67 69t24 99q0 56 -24.5 101t-67.5 70.5t-96 25.5q-54 0 -97 -25.5t-67 -70.5t-24 -101q0 -55 24 -99t67 -69t97 -25t97 25z
" />
    <glyph glyph-name="Gdotaccent" unicode="&#x120;" horiz-adv-x="852" 
d="M390 807q-17 17 -17 43q0 25 17 41.5t43 16.5t43 -16.5t17 -41.5q0 -26 -17 -43t-43 -17t-43 17zM237 23.5q-87 48.5 -136 135t-49 194.5t49 194t136 134.5t196 48.5q72 0 138.5 -26.5t115 -73t67.5 -105.5l-84 -26q-22 66 -89 108.5t-148 42.5q-84 0 -150 -38
t-103 -105.5t-37 -153.5q0 -85 37 -153t103.5 -106.5t149.5 -38.5q74 0 136.5 33t99.5 91t39 128h-350v81h442q1 -11 1 -32q0 -110 -46.5 -197t-130 -135.5t-191.5 -48.5q-109 0 -196 48.5z" />
    <glyph glyph-name="gdotaccent" unicode="&#x121;" horiz-adv-x="666" 
d="M278 618q-17 17 -17 43q0 25 17 41.5t43 16.5t43 -16.5t17 -41.5q0 -26 -17 -43t-43 -17t-43 17zM155.5 -205.5q-68.5 44.5 -94.5 123.5l83 31q20 -59 67 -91.5t114 -32.5q83 0 132.5 49.5t49.5 134.5v68h-10q-71 -90 -184 -90q-75 0 -135 34t-93.5 95t-33.5 137
q0 77 34 139t93.5 97t134.5 35q115 0 185 -91h10v72h82v-496q0 -78 -33 -136.5t-94 -90.5t-142 -32q-97 0 -165.5 44.5zM419 85q43 25 67 69t24 99q0 56 -24.5 101t-67.5 70.5t-96 25.5q-54 0 -97 -25.5t-67 -70.5t-24 -101q0 -55 24 -99t67 -69t97 -25t97 25z" />
    <glyph glyph-name="Gcommaaccent" unicode="&#x122;" horiz-adv-x="852" 
d="M237 23.5q-87 48.5 -136 135t-49 194.5t49 194t136 134.5t196 48.5q72 0 138.5 -26.5t115 -73t67.5 -105.5l-84 -26q-22 66 -89 108.5t-148 42.5q-84 0 -150 -38t-103 -105.5t-37 -153.5q0 -85 37 -153t103.5 -106.5t149.5 -38.5q74 0 136.5 33t99.5 91t39 128h-350v81
h442q1 -11 1 -32q0 -110 -46.5 -197t-130 -135.5t-191.5 -48.5q-109 0 -196 48.5zM394 -258l37 74q-23 2 -38 16.5t-15 35.5q0 23 15.5 38.5t40.5 15.5q24 0 39.5 -15.5t15.5 -38.5t-12 -43l-49 -93z" />
    <glyph glyph-name="gcommaaccent" unicode="&#x123;" horiz-adv-x="666" 
d="M361 763l-38 -74q23 -2 38 -16t15 -35q0 -24 -15.5 -39t-39.5 -15t-39.5 15t-15.5 39q0 21 11 42l50 93zM155.5 -205.5q-68.5 44.5 -94.5 123.5l83 31q20 -59 67 -91.5t114 -32.5q83 0 132.5 49.5t49.5 134.5v68h-10q-71 -90 -184 -90q-75 0 -135 34t-93.5 95t-33.5 137
q0 77 34 139t93.5 97t134.5 35q115 0 185 -91h10v72h82v-496q0 -78 -33 -136.5t-94 -90.5t-142 -32q-97 0 -165.5 44.5zM419 85q43 25 67 69t24 99q0 56 -24.5 101t-67.5 70.5t-96 25.5q-54 0 -97 -25.5t-67 -70.5t-24 -101q0 -55 24 -99t67 -69t97 -25t97 25z" />
    <glyph glyph-name="Itilde" unicode="&#x128;" horiz-adv-x="281" 
d="M157.5 806.5q-18.5 8.5 -40.5 25.5q-16 12 -26.5 17.5t-23.5 5.5q-37 0 -63 -46l-44 32q15 31 44 50t66 19q25 0 43.5 -8.5t39.5 -24.5q18 -12 29 -18t26 -6q20 0 37 12.5t27 33.5l44 -32q-14 -31 -44 -50t-68 -19q-28 0 -46.5 8.5zM95 705h92v-705h-92v705z" />
    <glyph glyph-name="itilde" unicode="&#x129;" horiz-adv-x="235" 
d="M137.5 601.5q-18.5 8.5 -39.5 24.5q-16 12 -28 18t-27 6q-18 0 -34 -10t-25 -26l-44 33q14 30 44 49t66 19q25 0 43 -8.5t40 -24.5q17 -13 29.5 -19t27.5 -6q20 0 37 10.5t25 27.5l45 -33q-15 -32 -44.5 -50.5t-69.5 -18.5q-27 0 -45.5 8.5zM77 505h83v-505h-83v505z" />
    <glyph glyph-name="Imacron" unicode="&#x12a;" horiz-adv-x="281" 
d="M-14 868h310v-66h-310v66zM95 705h92v-705h-92v705z" />
    <glyph glyph-name="imacron" unicode="&#x12b;" horiz-adv-x="235" 
d="M-36 668h310v-66h-310v66zM77 505h83v-505h-83v505z" />
    <glyph glyph-name="Iogonek" unicode="&#x12e;" horiz-adv-x="281" 
d="M187 705v-705h-20q-56 -24 -86 -53t-30 -58q0 -19 11.5 -30t32.5 -11q26 0 58 20v-47q-37 -21 -74 -21q-34 0 -55 21.5t-21 55.5t23 66t69 59v703h92z" />
    <glyph glyph-name="iogonek" unicode="&#x12f;" horiz-adv-x="253" 
d="M170 702.5q17 -16.5 17 -41.5q0 -26 -17 -43t-43 -17t-42.5 17t-16.5 43t16.5 42t42.5 16t43 -16.5zM85 505h83v-505h-10q-56 -25 -86 -53.5t-30 -57.5q0 -19 12 -30t32 -11q26 0 58 20v-47q-37 -21 -74 -21q-34 0 -55 21.5t-21 55.5q0 33 23 65t68 59v504z" />
    <glyph glyph-name="Idotaccent" unicode="&#x130;" horiz-adv-x="281" 
d="M98 807q-17 17 -17 43q0 25 17 41.5t43 16.5t43 -16.5t17 -41.5q0 -26 -17 -43t-43 -17t-43 17zM95 705h92v-705h-92v705z" />
    <glyph glyph-name="dotlessi" unicode="&#x131;" horiz-adv-x="235" 
d="M76 505h83v-505h-83v505z" />
    <glyph glyph-name="IJ" unicode="&#x132;" horiz-adv-x="716" 
d="M95 705h92v-705h-92v705zM347.5 -14.5q-35.5 5.5 -64.5 14.5v78q27 -8 57.5 -13t51.5 -5q63 0 102.5 41t39.5 111v493h91v-493q0 -68 -27.5 -120.5t-76 -82t-109.5 -29.5q-29 0 -64.5 5.5z" />
    <glyph glyph-name="ij" unicode="&#x133;" horiz-adv-x="517" 
d="M84.5 618q-16.5 17 -16.5 43t16.5 42t42.5 16t43 -16.5t17 -41.5q0 -26 -17 -43t-43 -17t-42.5 17zM339 618q-17 17 -17 43q0 25 17 41.5t43 16.5t43 -16.5t17 -41.5q0 -26 -17 -43t-43 -17t-43 17zM85 505h83v-505h-83v505zM199 -212v71q29 -9 66 -9q34 0 55 22t21 58
v575h83v-575q0 -67 -38.5 -111t-97.5 -44q-52 0 -89 13z" />
    <glyph glyph-name="Kcommaaccent" unicode="&#x136;" horiz-adv-x="633" 
d="M95 705h91v-308h10l292 308h114l-328 -341l338 -364h-115l-301 331h-10v-331h-91v705zM310 -258l38 74q-23 2 -38 16.5t-15 35.5q0 23 15.5 38.5t39.5 15.5q25 0 40 -15.5t15 -38.5q0 -25 -11 -43l-49 -93z" />
    <glyph glyph-name="kcommaaccent" unicode="&#x137;" horiz-adv-x="503" 
d="M77 735h83v-446h10l216 216h110l-249 -242l255 -263h-111l-221 235h-10v-235h-83v735zM236 -258l38 74q-23 1 -38 16t-15 36q0 23 15.5 38.5t39.5 15.5t39.5 -15.5t15.5 -38.5q0 -22 -11 -43l-50 -93z" />
    <glyph glyph-name="Lacute" unicode="&#x139;" horiz-adv-x="572" 
d="M200 901h103l-109 -113h-99zM95 705h92v-625h355v-80h-447v705z" />
    <glyph glyph-name="lacute" unicode="&#x13a;" horiz-adv-x="236" 
d="M177 901h103l-110 -113h-98zM77 735h83v-735h-83v735z" />
    <glyph glyph-name="Lcommaaccent" unicode="&#x13b;" horiz-adv-x="572" 
d="M95 705h92v-625h355v-80h-447v705zM298 -258l38 74q-23 1 -38 16t-15 36q0 23 15.5 38.5t39.5 15.5t39.5 -15.5t15.5 -38.5q0 -22 -11 -43l-50 -93z" />
    <glyph glyph-name="lcommaaccent" unicode="&#x13c;" horiz-adv-x="236" 
d="M77 735h83v-735h-83v735zM79 -258l37 74q-23 2 -38 16.5t-15 35.5q0 23 15.5 38.5t39.5 15.5q25 0 40.5 -15.5t15.5 -38.5t-12 -43l-49 -93z" />
    <glyph glyph-name="Lcaron" unicode="&#x13d;" horiz-adv-x="572" 
d="M310 536l37 74q-23 2 -38 16t-15 35q0 24 15.5 39t39.5 15q25 0 40 -15t15 -39t-11 -42l-49 -93zM95 705h92v-625h355v-80h-447v705z" />
    <glyph glyph-name="lcaron" unicode="&#x13e;" horiz-adv-x="236" 
d="M246 566l38 74q-23 2 -38 16t-15 35q0 24 15.5 39t39.5 15q25 0 40 -15t15 -39t-11 -42l-49 -93zM77 735h83v-735h-83v735z" />
    <glyph glyph-name="Lslash" unicode="&#x141;" horiz-adv-x="616" 
d="M587 80v-80h-447v247l-110 -67v79l110 67v379h92v-324l275 167v-79l-275 -167v-222h355z" />
    <glyph glyph-name="lslash" unicode="&#x142;" horiz-adv-x="407" 
d="M398 470l-156 -100v-370h-83v317l-149 -96v79l149 96v339h83v-286l156 100v-79z" />
    <glyph glyph-name="Nacute" unicode="&#x143;" horiz-adv-x="755" 
d="M456 901h103l-110 -113h-98zM95 705h131l334 -585h9v585h91v-705h-130l-334 585h-10v-585h-91v705z" />
    <glyph glyph-name="nacute" unicode="&#x144;" 
d="M273 593l108 142h94l-115 -142h-87zM78 505h83v-69h9q27 42 68 65t91 23q63 0 110.5 -28.5t73.5 -79t26 -114.5v-302h-83v302q0 65 -37 106t-101 41q-42 0 -78 -20t-57.5 -55.5t-21.5 -78.5v-295h-83v505z" />
    <glyph glyph-name="Ncommaaccent" unicode="&#x145;" horiz-adv-x="755" 
d="M95 705h131l334 -585h9v585h91v-705h-130l-334 585h-10v-585h-91v705zM358 -258l37 74q-23 2 -37.5 16.5t-14.5 35.5q0 23 15.5 38.5t39.5 15.5t39.5 -15.5t15.5 -38.5q0 -22 -11 -43l-50 -93z" />
    <glyph glyph-name="ncommaaccent" unicode="&#x146;" 
d="M78 505h83v-69h9q27 42 68 65t91 23q63 0 110.5 -28.5t73.5 -79t26 -114.5v-302h-83v302q0 65 -37 106t-101 41q-42 0 -78 -20t-57.5 -55.5t-21.5 -78.5v-295h-83v505zM271 -258l37 74q-23 2 -38 16.5t-15 35.5q0 23 15.5 38.5t39.5 15.5q25 0 40.5 -15.5t15.5 -38.5
t-12 -43l-49 -93z" />
    <glyph glyph-name="Ncaron" unicode="&#x147;" horiz-adv-x="755" 
d="M234 901h84l75 -62h10l75 62h84l-116 -113h-97zM95 705h131l334 -585h9v585h91v-705h-130l-334 585h-10v-585h-91v705z" />
    <glyph glyph-name="ncaron" unicode="&#x148;" 
d="M239 735l76 -85h9l75 85h81l-115 -142h-93l-113 142h80zM78 505h83v-69h9q27 42 68 65t91 23q63 0 110.5 -28.5t73.5 -79t26 -114.5v-302h-83v302q0 65 -37 106t-101 41q-42 0 -78 -20t-57.5 -55.5t-21.5 -78.5v-295h-83v505z" />
    <glyph glyph-name="Omacron" unicode="&#x14c;" horiz-adv-x="864" 
d="M277 868h310v-66h-310v66zM235 23q-87 48 -135.5 134t-48.5 196q0 109 48.5 194.5t135.5 134t197 48.5t197 -48.5t135.5 -134t48.5 -194.5q0 -110 -48.5 -196t-135.5 -134t-197 -48t-197 48zM581 93.5q66 38.5 103 106t37 153.5q0 85 -37 153t-103 106t-149 38
t-149.5 -38t-103.5 -106t-37 -153t37 -153t103.5 -106.5t149.5 -38.5t149 38.5z" />
    <glyph glyph-name="omacron" unicode="&#x14d;" horiz-adv-x="642" 
d="M166 668h310v-66h-310v66zM180.5 15q-61.5 35 -96 97t-34.5 141t34.5 140.5t96 96.5t140.5 35q78 0 140 -35t96.5 -97t34.5 -140q0 -79 -34.5 -141t-96.5 -97t-140 -35q-79 0 -140.5 35zM418 80.5q43 25.5 67 70.5t24 102q0 56 -24 101t-67 70.5t-97 25.5t-97 -25.5
t-67 -70.5t-24 -101q0 -57 24 -102t67 -70.5t97 -25.5t97 25.5z" />
    <glyph glyph-name="Obreve" unicode="&#x14e;" horiz-adv-x="864" 
d="M324 813q-43 35 -43 88h83q0 -28 18 -43.5t50 -15.5t50 15.5t18 43.5h81q0 -53 -42 -88t-107 -35t-108 35zM235 23q-87 48 -135.5 134t-48.5 196q0 109 48.5 194.5t135.5 134t197 48.5t197 -48.5t135.5 -134t48.5 -194.5q0 -110 -48.5 -196t-135.5 -134t-197 -48t-197 48
zM581 93.5q66 38.5 103 106t37 153.5q0 85 -37 153t-103 106t-149 38t-149.5 -38t-103.5 -106t-37 -153t37 -153t103.5 -106.5t149.5 -38.5t149 38.5z" />
    <glyph glyph-name="obreve" unicode="&#x14f;" horiz-adv-x="642" 
d="M225 639q-38 38 -38 96h70q0 -33 17 -53t47 -20q29 0 46.5 20t17.5 53h69q0 -58 -37.5 -96t-95.5 -38t-96 38zM180.5 15q-61.5 35 -96 97t-34.5 141t34.5 140.5t96 96.5t140.5 35q78 0 140 -35t96.5 -97t34.5 -140q0 -79 -34.5 -141t-96.5 -97t-140 -35q-79 0 -140.5 35z
M418 80.5q43 25.5 67 70.5t24 102q0 56 -24 101t-67 70.5t-97 25.5t-97 -25.5t-67 -70.5t-24 -101q0 -57 24 -102t67 -70.5t97 -25.5t97 25.5z" />
    <glyph glyph-name="Ohungarumlaut" unicode="&#x150;" horiz-adv-x="864" 
d="M398 902h100l-107 -113h-87zM559 902h100l-113 -113h-86zM235 23q-87 48 -135.5 134t-48.5 196q0 109 48.5 194.5t135.5 134t197 48.5t197 -48.5t135.5 -134t48.5 -194.5q0 -110 -48.5 -196t-135.5 -134t-197 -48t-197 48zM581 93.5q66 38.5 103 106t37 153.5
q0 85 -37 153t-103 106t-149 38t-149.5 -38t-103.5 -106t-37 -153t37 -153t103.5 -106.5t149.5 -38.5t149 38.5z" />
    <glyph glyph-name="ohungarumlaut" unicode="&#x151;" horiz-adv-x="642" 
d="M303 730h91l-114 -137h-77zM364 593l106 137h89l-118 -137h-77zM180.5 15q-61.5 35 -96 97t-34.5 141t34.5 140.5t96 96.5t140.5 35q78 0 140 -35t96.5 -97t34.5 -140q0 -79 -34.5 -141t-96.5 -97t-140 -35q-79 0 -140.5 35zM418 80.5q43 25.5 67 70.5t24 102
q0 56 -24 101t-67 70.5t-97 25.5t-97 -25.5t-67 -70.5t-24 -101q0 -57 24 -102t67 -70.5t97 -25.5t97 25.5z" />
    <glyph glyph-name="OE" unicode="&#x152;" horiz-adv-x="1044" 
d="M231 30.5q-84 46.5 -131.5 130.5t-47.5 192t47.5 191.5t131.5 130t191 46.5q70 0 124 -16h447v-80h-360v-229h320v-76h-320v-240h370v-80h-457q-25 -7 -59 -11.5t-65 -4.5q-107 0 -191 46.5zM487.5 69.5q34.5 4.5 54.5 12.5v541q-20 8 -52 12.5t-63 4.5q-81 0 -146 -36
t-101.5 -101.5t-36.5 -149.5t35.5 -149.5t98 -102t141.5 -36.5q35 0 69.5 4.5z" />
    <glyph glyph-name="oe" unicode="&#x153;" horiz-adv-x="1094" 
d="M1043 225h-447q9 -77 60.5 -123.5t128.5 -46.5q56 0 102.5 26.5t70.5 71.5l68 -34q-30 -65 -94.5 -102t-148.5 -37q-74 0 -134 33t-97 91q-35 -58 -95 -91t-136 -33q-79 0 -140.5 35t-96 97t-34.5 141t34.5 140.5t96 96.5t140.5 35q74 0 133.5 -31.5t95.5 -87.5
q35 56 94.5 88t134.5 32q76 0 136 -34.5t94.5 -96t34.5 -137.5q0 -22 -1 -33zM956 298q-11 69 -60 111t-121 42q-70 0 -118.5 -42t-59.5 -111h359zM418 80.5q43 25.5 67 70.5t24 102q0 56 -24 101t-67 70.5t-97 25.5t-97 -25.5t-67 -70.5t-24 -101q0 -57 24 -102t67 -70.5
t97 -25.5t97 25.5z" />
    <glyph glyph-name="Racute" unicode="&#x154;" horiz-adv-x="709" 
d="M425 901h103l-109 -113h-99zM95 705h308q75 0 132.5 -26.5t89 -75t31.5 -112.5q0 -59 -29 -105.5t-80 -74t-116 -30.5h-11l255 -281h-114l-245 276h-129v-276h-92v705zM403 356q76 0 119.5 36.5t43.5 98.5t-44 98t-119 36h-216v-269h216z" />
    <glyph glyph-name="racute" unicode="&#x155;" horiz-adv-x="394" 
d="M174 593l108 142h94l-115 -142h-87zM78 505h80v-68h9q18 35 55.5 56.5t80.5 21.5q37 0 61 -13v-77q-35 15 -75 15q-57 0 -92.5 -46.5t-35.5 -121.5v-272h-83v505z" />
    <glyph glyph-name="Rcommaaccent" unicode="&#x156;" horiz-adv-x="709" 
d="M95 705h308q75 0 132.5 -26.5t89 -75t31.5 -112.5q0 -59 -29 -105.5t-80 -74t-116 -30.5h-11l255 -281h-114l-245 276h-129v-276h-92v705zM403 356q76 0 119.5 36.5t43.5 98.5t-44 98t-119 36h-216v-269h216zM355 -258l37 74q-23 2 -38 16.5t-15 35.5q0 23 15.5 38.5
t40.5 15.5q24 0 39.5 -15.5t15.5 -38.5t-12 -43l-49 -93z" />
    <glyph glyph-name="rcommaaccent" unicode="&#x157;" horiz-adv-x="394" 
d="M78 505h80v-68h9q18 35 55.5 56.5t80.5 21.5q37 0 61 -13v-77q-35 15 -75 15q-57 0 -92.5 -46.5t-35.5 -121.5v-272h-83v505zM83 -258l38 74q-23 1 -38 16t-15 36q0 23 15.5 38.5t39.5 15.5t39.5 -15.5t15.5 -38.5q0 -22 -11 -43l-50 -93z" />
    <glyph glyph-name="Rcaron" unicode="&#x158;" horiz-adv-x="709" 
d="M203 901h85l74 -62h11l74 62h85l-116 -113h-98zM95 705h308q75 0 132.5 -26.5t89 -75t31.5 -112.5q0 -59 -29 -105.5t-80 -74t-116 -30.5h-11l255 -281h-114l-245 276h-129v-276h-92v705zM403 356q76 0 119.5 36.5t43.5 98.5t-44 98t-119 36h-216v-269h216z" />
    <glyph glyph-name="rcaron" unicode="&#x159;" horiz-adv-x="394" 
d="M140 735l76 -85h9l75 85h81l-114 -142h-93l-114 142h80zM78 505h80v-68h9q18 35 55.5 56.5t80.5 21.5q37 0 61 -13v-77q-35 15 -75 15q-57 0 -92.5 -46.5t-35.5 -121.5v-272h-83v505z" />
    <glyph glyph-name="Sacute" unicode="&#x15a;" horiz-adv-x="686" 
d="M402 901h103l-110 -113h-98zM197 5.5q-67 30.5 -103 88t-36 135.5h90q0 -82 55 -128t154 -46q86 0 134 34.5t48 94.5q0 45 -27 70.5t-67 37t-110 22.5q-80 13 -136 32t-93.5 61t-37.5 113q0 96 70.5 153t196.5 57q130 0 204.5 -63.5t74.5 -175.5h-89q1 75 -49 117
t-141 42q-84 0 -130 -33.5t-46 -91.5q0 -44 26 -68.5t66 -36t106 -21.5q84 -14 140 -32t94.5 -60.5t38.5 -116.5q0 -100 -72.5 -157.5t-201.5 -57.5q-92 0 -159 30.5z" />
    <glyph glyph-name="sacute" unicode="&#x15b;" horiz-adv-x="545" 
d="M222 593l107 142h94l-114 -142h-87zM115.5 30.5q-60.5 50.5 -60.5 140.5h81q1 -55 41 -88t110 -33q58 0 91.5 22.5t33.5 62.5q0 31 -19 46.5t-45 21.5t-81 13q-91 11 -146.5 42.5t-55.5 108.5q0 73 55.5 115.5t146.5 42.5q95 0 153.5 -46.5t58.5 -124.5h-81
q-1 46 -37 73.5t-95 27.5q-55 0 -89 -23t-34 -62q0 -29 18.5 -44.5t45 -21t79.5 -11.5q59 -7 102.5 -21.5t73 -47t29.5 -88.5q0 -74 -54.5 -115t-151.5 -41q-109 0 -169.5 50.5z" />
    <glyph glyph-name="Scircumflex" unicode="&#x15c;" horiz-adv-x="686" 
d="M393 901l116 -113h-84l-75 62h-10l-75 -62h-85l116 113h97zM197 5.5q-67 30.5 -103 88t-36 135.5h90q0 -82 55 -128t154 -46q86 0 134 34.5t48 94.5q0 45 -27 70.5t-67 37t-110 22.5q-80 13 -136 32t-93.5 61t-37.5 113q0 96 70.5 153t196.5 57q130 0 204.5 -63.5
t74.5 -175.5h-89q1 75 -49 117t-141 42q-84 0 -130 -33.5t-46 -91.5q0 -44 26 -68.5t66 -36t106 -21.5q84 -14 140 -32t94.5 -60.5t38.5 -116.5q0 -100 -72.5 -157.5t-201.5 -57.5q-92 0 -159 30.5z" />
    <glyph glyph-name="scircumflex" unicode="&#x15d;" horiz-adv-x="545" 
d="M224 735h93l114 -142h-81l-75 86h-9l-76 -86h-80zM115.5 30.5q-60.5 50.5 -60.5 140.5h81q1 -55 41 -88t110 -33q58 0 91.5 22.5t33.5 62.5q0 31 -19 46.5t-45 21.5t-81 13q-91 11 -146.5 42.5t-55.5 108.5q0 73 55.5 115.5t146.5 42.5q95 0 153.5 -46.5t58.5 -124.5h-81
q-1 46 -37 73.5t-95 27.5q-55 0 -89 -23t-34 -62q0 -29 18.5 -44.5t45 -21t79.5 -11.5q59 -7 102.5 -21.5t73 -47t29.5 -88.5q0 -74 -54.5 -115t-151.5 -41q-109 0 -169.5 50.5z" />
    <glyph glyph-name="Scedilla" unicode="&#x15e;" horiz-adv-x="686" 
d="M563 37q-67 -57 -187 -62l-4 -24q45 0 74.5 -26.5t29.5 -66.5t-29 -65t-75 -25q-41 0 -71 20t-36 52l53 13q3 -19 18 -30.5t35 -11.5q23 0 37 13t14 33q0 23 -18 37t-46 14h-51l10 69q-122 9 -190.5 76t-68.5 176h90q0 -82 55 -128t154 -46q86 0 134 34.5t48 94.5
q0 45 -27 70.5t-67 37t-110 22.5q-80 13 -136 32t-93.5 61t-37.5 113q0 96 70.5 153t196.5 57q130 0 204.5 -63.5t74.5 -175.5h-89q1 75 -49 117t-141 42q-84 0 -130 -33.5t-46 -91.5q0 -44 26 -68.5t66 -36t106 -21.5q84 -14 140 -32t94.5 -60.5t38.5 -116.5
q0 -96 -67 -153z" />
    <glyph glyph-name="scedilla" unicode="&#x15f;" horiz-adv-x="545" 
d="M439 23q-52 -41 -145 -43l-4 -29q45 0 74 -26t29 -67q0 -40 -29 -65t-75 -25q-41 0 -71 20t-36 52l53 13q3 -19 18 -30.5t35 -11.5q23 0 37 13t14 33q0 23 -18 37t-46 14h-51l11 75q-86 11 -133 60t-47 128h81q1 -55 41 -88t110 -33q58 0 91.5 22.5t33.5 62.5
q0 31 -19 46.5t-45 21.5t-81 13q-91 11 -146.5 42.5t-55.5 108.5q0 73 55.5 115.5t146.5 42.5q95 0 153.5 -46.5t58.5 -124.5h-81q-1 46 -37 73.5t-95 27.5q-55 0 -89 -23t-34 -62q0 -29 18.5 -44.5t45 -21t79.5 -11.5q59 -7 102.5 -21.5t73 -47t29.5 -88.5q0 -72 -52 -113z
" />
    <glyph glyph-name="Scaron" unicode="&#x160;" horiz-adv-x="686" 
d="M179 901h85l75 -62h10l75 62h84l-116 -113h-97zM197 5.5q-67 30.5 -103 88t-36 135.5h90q0 -82 55 -128t154 -46q86 0 134 34.5t48 94.5q0 45 -27 70.5t-67 37t-110 22.5q-80 13 -136 32t-93.5 61t-37.5 113q0 96 70.5 153t196.5 57q130 0 204.5 -63.5t74.5 -175.5h-89
q1 75 -49 117t-141 42q-84 0 -130 -33.5t-46 -91.5q0 -44 26 -68.5t66 -36t106 -21.5q84 -14 140 -32t94.5 -60.5t38.5 -116.5q0 -100 -72.5 -157.5t-201.5 -57.5q-92 0 -159 30.5z" />
    <glyph glyph-name="scaron" unicode="&#x161;" horiz-adv-x="545" 
d="M187 735l76 -85h10l74 85h82l-115 -142h-93l-114 142h80zM115.5 30.5q-60.5 50.5 -60.5 140.5h81q1 -55 41 -88t110 -33q58 0 91.5 22.5t33.5 62.5q0 31 -19 46.5t-45 21.5t-81 13q-91 11 -146.5 42.5t-55.5 108.5q0 73 55.5 115.5t146.5 42.5q95 0 153.5 -46.5
t58.5 -124.5h-81q-1 46 -37 73.5t-95 27.5q-55 0 -89 -23t-34 -62q0 -29 18.5 -44.5t45 -21t79.5 -11.5q59 -7 102.5 -21.5t73 -47t29.5 -88.5q0 -74 -54.5 -115t-151.5 -41q-109 0 -169.5 50.5z" />
    <glyph glyph-name="uni0162" unicode="&#x162;" horiz-adv-x="582" 
d="M246 625h-234v80h559v-80h-234v-625h-91v625zM252 -258l38 74q-23 2 -38 16.5t-15 35.5q0 23 15.5 38.5t39.5 15.5q25 0 40 -15.5t15 -38.5q0 -25 -11 -43l-49 -93z" />
    <glyph glyph-name="uni0163" unicode="&#x163;" horiz-adv-x="391" 
d="M160 22q-38 41 -38 108v309h-82v66h82l18 163h65v-163h129v-66h-129v-306q0 -37 20.5 -59.5t56.5 -22.5q28 0 60 10v-67q-17 -6 -39.5 -9.5t-41.5 -3.5q-63 0 -101 41zM209 -258l38 74q-23 1 -38 16t-15 36q0 23 15.5 38.5t39.5 15.5t39.5 -15.5t15.5 -38.5
q0 -22 -11 -43l-50 -93z" />
    <glyph glyph-name="Tcaron" unicode="&#x164;" horiz-adv-x="582" 
d="M128 901h85l74 -62h11l74 62h85l-116 -113h-98zM246 625h-234v80h559v-80h-234v-625h-91v625z" />
    <glyph glyph-name="tcaron" unicode="&#x165;" horiz-adv-x="391" 
d="M255 560l37 74q-23 2 -37.5 16.5t-14.5 35.5q0 24 15.5 39t39.5 15t39.5 -15.5t15.5 -38.5q0 -21 -11 -42l-50 -93zM160 22q-38 41 -38 108v309h-82v66h82l18 163h65v-163h129v-66h-129v-306q0 -37 20.5 -59.5t56.5 -22.5q28 0 60 10v-67q-17 -6 -39.5 -9.5t-41.5 -3.5
q-63 0 -101 41z" />
    <glyph glyph-name="Utilde" unicode="&#x168;" horiz-adv-x="757" 
d="M396.5 806.5q-18.5 8.5 -40.5 25.5q-16 12 -26.5 17.5t-23.5 5.5q-37 0 -63 -46l-43 32q14 31 43 50t66 19q25 0 42 -8t41 -24q16 -12 28.5 -18.5t27.5 -6.5q20 0 36.5 12.5t27.5 33.5l44 -32q-15 -32 -44.5 -50.5t-68.5 -18.5q-28 0 -46.5 8.5zM230 13
q-66 38 -103 105.5t-37 152.5v434h91v-434q0 -62 25.5 -111.5t70.5 -77t102 -27.5t102 27.5t70.5 77t25.5 111.5v434h91v-434q0 -85 -37 -152.5t-103 -105.5t-149 -38t-149 38z" />
    <glyph glyph-name="utilde" unicode="&#x169;" 
d="M314.5 601.5q-18.5 8.5 -39.5 24.5q-16 12 -28 18t-27 6q-18 0 -34 -10t-25 -26l-44 33q14 30 44 49t66 19q25 0 42.5 -8.5t39.5 -23.5q17 -13 29.5 -19.5t28.5 -6.5q20 0 36.5 10.5t24.5 27.5l45 -33q-14 -31 -44 -50t-69 -19q-27 0 -45.5 8.5zM528 0h-83v69h-10
q-26 -41 -67.5 -64t-90.5 -23q-63 0 -111 28.5t-73.5 79t-25.5 114.5v301h83v-301q0 -66 36.5 -106.5t100.5 -40.5q42 0 78.5 20t58 55.5t21.5 78.5v294h83v-505z" />
    <glyph glyph-name="Umacron" unicode="&#x16a;" horiz-adv-x="757" 
d="M225 868h310v-66h-310v66zM230 13q-66 38 -103 105.5t-37 152.5v434h91v-434q0 -62 25.5 -111.5t70.5 -77t102 -27.5t102 27.5t70.5 77t25.5 111.5v434h91v-434q0 -85 -37 -152.5t-103 -105.5t-149 -38t-149 38z" />
    <glyph glyph-name="umacron" unicode="&#x16b;" 
d="M140 668h310v-66h-310v66zM528 0h-83v69h-10q-26 -41 -67.5 -64t-90.5 -23q-63 0 -111 28.5t-73.5 79t-25.5 114.5v301h83v-301q0 -66 36.5 -106.5t100.5 -40.5q42 0 78.5 20t58 55.5t21.5 78.5v294h83v-505z" />
    <glyph glyph-name="Ubreve" unicode="&#x16c;" horiz-adv-x="757" 
d="M272.5 813q-42.5 35 -42.5 88h82q0 -28 18 -43.5t50 -15.5t50.5 15.5t18.5 43.5h81q0 -53 -42 -88t-108 -35q-65 0 -107.5 35zM230 13q-66 38 -103 105.5t-37 152.5v434h91v-434q0 -62 25.5 -111.5t70.5 -77t102 -27.5t102 27.5t70.5 77t25.5 111.5v434h91v-434
q0 -85 -37 -152.5t-103 -105.5t-149 -38t-149 38z" />
    <glyph glyph-name="ubreve" unicode="&#x16d;" 
d="M199.5 638.5q-37.5 37.5 -37.5 96.5h69q0 -33 17 -53t47 -20q29 0 46.5 20t17.5 53h69q0 -58 -37.5 -96t-95.5 -38t-95.5 37.5zM528 0h-83v69h-10q-26 -41 -67.5 -64t-90.5 -23q-63 0 -111 28.5t-73.5 79t-25.5 114.5v301h83v-301q0 -66 36.5 -106.5t100.5 -40.5
q42 0 78.5 20t58 55.5t21.5 78.5v294h83v-505z" />
    <glyph glyph-name="Uring" unicode="&#x16e;" horiz-adv-x="757" 
d="M309 795.5q-28 26.5 -28 67.5t28 67.5t71 26.5t71 -26.5t28 -67.5t-28 -67.5t-71 -26.5t-71 26.5zM418.5 824.5q15.5 15.5 15.5 38.5q0 24 -15.5 39t-38.5 15q-24 0 -39 -15t-15 -39q0 -23 15 -38.5t39 -15.5q23 0 38.5 15.5zM230 13q-66 38 -103 105.5t-37 152.5v434h91
v-434q0 -62 25.5 -111.5t70.5 -77t102 -27.5t102 27.5t70.5 77t25.5 111.5v434h91v-434q0 -85 -37 -152.5t-103 -105.5t-149 -38t-149 38z" />
    <glyph glyph-name="uring" unicode="&#x16f;" 
d="M216.5 617.5q-30.5 29.5 -30.5 74.5q0 46 30.5 75t78.5 29t78.5 -29t30.5 -75q0 -45 -30.5 -74.5t-78.5 -29.5t-78.5 29.5zM341 646q18 18 18 46t-18 46t-46 18t-46 -17.5t-18 -46.5q0 -28 18 -46t46 -18t46 18zM528 0h-83v69h-10q-26 -41 -67.5 -64t-90.5 -23
q-63 0 -111 28.5t-73.5 79t-25.5 114.5v301h83v-301q0 -66 36.5 -106.5t100.5 -40.5q42 0 78.5 20t58 55.5t21.5 78.5v294h83v-505z" />
    <glyph glyph-name="Uhungarumlaut" unicode="&#x170;" horiz-adv-x="757" 
d="M346 902h100l-107 -113h-87zM508 902h99l-113 -113h-85zM230 13q-66 38 -103 105.5t-37 152.5v434h91v-434q0 -62 25.5 -111.5t70.5 -77t102 -27.5t102 27.5t70.5 77t25.5 111.5v434h91v-434q0 -85 -37 -152.5t-103 -105.5t-149 -38t-149 38z" />
    <glyph glyph-name="uhungarumlaut" unicode="&#x171;" 
d="M278 730h90l-113 -137h-78zM338 593l107 137h88l-118 -137h-77zM528 0h-83v69h-10q-26 -41 -67.5 -64t-90.5 -23q-63 0 -111 28.5t-73.5 79t-25.5 114.5v301h83v-301q0 -66 36.5 -106.5t100.5 -40.5q42 0 78.5 20t58 55.5t21.5 78.5v294h83v-505z" />
    <glyph glyph-name="Uogonek" unicode="&#x172;" horiz-adv-x="757" 
d="M668 705v-434q0 -101 -52 -176t-138 -104q-47 -23 -71.5 -49.5t-24.5 -52.5q0 -19 11.5 -30t32.5 -11q26 0 58 20v-47q-37 -21 -74 -21q-34 0 -55 21.5t-21 55.5q0 53 54 98h-9q-83 0 -149 38t-103 105.5t-37 152.5v434h91v-434q0 -62 25.5 -111.5t70.5 -77t102 -27.5
t102 27.5t70.5 77t25.5 111.5v434h91z" />
    <glyph glyph-name="uogonek" unicode="&#x173;" 
d="M528 505v-505h-18q-56 -25 -86 -53.5t-30 -57.5q0 -19 11.5 -30t32.5 -11q26 0 58 20v-47q-37 -21 -74 -21q-34 0 -55 21.5t-21 55.5q0 35 25 68t74 61v63h-10q-26 -41 -67.5 -64t-90.5 -23q-63 0 -111 28.5t-73.5 79t-25.5 114.5v301h83v-301q0 -66 36.5 -106.5
t100.5 -40.5q42 0 78.5 20t58 55.5t21.5 78.5v294h83z" />
    <glyph glyph-name="Wcircumflex" unicode="&#x174;" horiz-adv-x="1088" 
d="M595 901l116 -113h-84l-75 62h-10l-75 -62h-84l115 113h97zM48 705h88l180 -628h10l160 628h118l159 -628h10l180 628h87l-204 -705h-140l-147 595h-9l-147 -595h-140z" />
    <glyph glyph-name="wcircumflex" unicode="&#x175;" horiz-adv-x="840" 
d="M376 735h93l115 -142h-81l-75 86h-10l-76 -86h-80zM22 505h82l141 -423h9l113 423h106l116 -424h9l138 424h82l-169 -505h-119l-105 409h-10l-106 -409h-118z" />
    <glyph glyph-name="Ycircumflex" unicode="&#x176;" horiz-adv-x="660" 
d="M381 901l116 -113h-85l-74 62h-11l-74 -62h-85l115 113h98zM285 258l-255 447h96l200 -360h10l196 360h98l-253 -447v-258h-92v258z" />
    <glyph glyph-name="ycircumflex" unicode="&#x177;" horiz-adv-x="533" 
d="M231 735h93l115 -142h-81l-75 86h-10l-75 -86h-81zM85 -219.5q-22 4.5 -39 11.5v73q38 -15 67 -15q30 0 51 16.5t33.5 41t28.5 64.5l12 29l-225 504h87l173 -395h10l148 395h89l-200 -513q-30 -75 -52 -117t-56.5 -70.5t-85.5 -28.5q-19 0 -41 4.5z" />
    <glyph glyph-name="Ydieresis" unicode="&#x178;" horiz-adv-x="660" 
d="M173 807q-17 17 -17 43q0 25 17 41.5t43 16.5t42.5 -16t16.5 -42t-16.5 -43t-42.5 -17t-43 17zM403.5 807q-16.5 17 -16.5 43t16.5 42t42.5 16t43 -16.5t17 -41.5q0 -26 -17 -43t-43 -17t-42.5 17zM285 258l-255 447h96l200 -360h10l196 360h98l-253 -447v-258h-92v258z
" />
    <glyph glyph-name="Zacute" unicode="&#x179;" horiz-adv-x="656" 
d="M405 901h103l-109 -113h-99zM49 42l414 573v10h-404v80h538v-41l-414 -574v-10h424v-80h-558v42z" />
    <glyph glyph-name="zacute" unicode="&#x17a;" horiz-adv-x="520" 
d="M231 593l107 142h94l-114 -142h-87zM32 36l311 385v9h-301v75h436v-36l-309 -384v-10h319v-75h-456v36z" />
    <glyph glyph-name="Zdotaccent" unicode="&#x17b;" horiz-adv-x="656" 
d="M304 807q-17 17 -17 43q0 25 17 41.5t43 16.5t43 -16.5t17 -41.5q0 -26 -17 -43t-43 -17t-43 17zM49 42l414 573v10h-404v80h538v-41l-414 -574v-10h424v-80h-558v42z" />
    <glyph glyph-name="zdotaccent" unicode="&#x17c;" horiz-adv-x="520" 
d="M235 618q-17 17 -17 43q0 25 17 41.5t43 16.5t43 -16.5t17 -41.5q0 -26 -17 -43t-43 -17t-43 17zM32 36l311 385v9h-301v75h436v-36l-309 -384v-10h319v-75h-456v36z" />
    <glyph glyph-name="Zcaron" unicode="&#x17d;" horiz-adv-x="656" 
d="M183 901h84l75 -62h10l75 62h84l-116 -113h-97zM49 42l414 573v10h-404v80h538v-41l-414 -574v-10h424v-80h-558v42z" />
    <glyph glyph-name="zcaron" unicode="&#x17e;" horiz-adv-x="520" 
d="M197 735l75 -85h10l75 85h81l-115 -142h-93l-114 142h81zM32 36l311 385v9h-301v75h436v-36l-309 -384v-10h319v-75h-456v36z" />
    <glyph glyph-name="AEacute" unicode="&#x1fc;" horiz-adv-x="930" 
d="M559 901h103l-109 -113h-99zM388 705h491v-80h-327v-224h287v-75h-287v-246h336v-80h-427v142h-256l-74 -142h-101zM461 217v417h-10l-210 -417h220z" />
    <glyph glyph-name="aeacute" unicode="&#x1fd;" horiz-adv-x="952" 
d="M423 593l107 142h94l-114 -142h-87zM388.5 500.5q51.5 -26.5 76.5 -72.5q73 97 193 97q71 0 126.5 -34.5t86.5 -95t31 -137.5q0 -21 -1 -32h-405q9 -77 55.5 -124t113.5 -47q47 0 86.5 25.5t63.5 71.5l68 -34q-27 -61 -86 -99.5t-127 -38.5q-74 0 -132 39.5t-85 104.5
q-20 -63 -82 -101.5t-144 -38.5q-86 0 -138 41t-52 108q0 70 59 114t170 56l140 15v23q0 52 -36.5 81.5t-99.5 29.5q-55 0 -90 -27.5t-34 -70.5h-84q0 49 26.5 88.5t74 62t106.5 22.5q68 0 119.5 -26.5zM550 408q-42 -42 -53 -111h317q-10 69 -53 111t-107 42
q-62 0 -104 -42zM156.5 201.5q-36.5 -27.5 -36.5 -66.5t32.5 -61t83.5 -22q49 0 88 20.5t60.5 55.5t21.5 77v48l-140 -16q-73 -8 -109.5 -35.5z" />
    <glyph glyph-name="Oslashacute" unicode="&#x1fe;" horiz-adv-x="845" 
d="M443 901h103l-109 -113h-99zM227 26q-81 48 -128 134t-47 193q0 108 48 194t132.5 134.5t190.5 48.5q78 0 144 -27l79 157h85l-96 -192q74 -50 116.5 -132.5t42.5 -182.5q0 -108 -48 -194.5t-132.5 -135t-190.5 -48.5q-67 0 -127 20l-67 -135h-85zM530 629
q-52 21 -107 21q-80 0 -144 -38.5t-100 -106t-36 -152.5q0 -80 32.5 -145t89.5 -105zM566.5 93.5q63.5 38.5 99.5 106.5t36 153q0 75 -28 136.5t-79 101.5l-262 -522q44 -14 90 -14q80 0 143.5 38.5z" />
    <glyph glyph-name="oslashacute" unicode="&#x1ff;" horiz-adv-x="648" 
d="M257 593l107 142h94l-114 -142h-87zM177 17q-59 35 -92.5 96.5t-33.5 139.5q0 79 35 140.5t97 96.5t141 35q56 0 100 -16l45 91h79l-62 -122q52 -36 81.5 -94.5t29.5 -130.5q0 -79 -35 -141t-97 -97t-141 -35q-45 0 -82 10l-34 -70h-79zM394 449q-33 12 -70 12
q-57 0 -102.5 -26.5t-71 -74t-25.5 -107.5q0 -56 22 -101t61 -74zM426 71q45 27 70.5 74.5t25.5 107.5q0 49 -18.5 90.5t-50.5 70.5l-181 -364q24 -6 52 -6q57 0 102 27z" />
    <glyph glyph-name="Scommaaccent" unicode="&#x218;" horiz-adv-x="686" 
d="M197 5.5q-67 30.5 -103 88t-36 135.5h90q0 -82 55 -128t154 -46q86 0 134 34.5t48 94.5q0 45 -27 70.5t-67 37t-110 22.5q-80 13 -136 32t-93.5 61t-37.5 113q0 96 70.5 153t196.5 57q130 0 204.5 -63.5t74.5 -175.5h-89q1 75 -49 117t-141 42q-84 0 -130 -33.5
t-46 -91.5q0 -44 26 -68.5t66 -36t106 -21.5q84 -14 140 -32t94.5 -60.5t38.5 -116.5q0 -100 -72.5 -157.5t-201.5 -57.5q-92 0 -159 30.5zM314 -258l37 74q-23 2 -38 16.5t-15 35.5q0 23 15.5 38.5t39.5 15.5q25 0 40.5 -15.5t15.5 -38.5t-12 -43l-49 -93z" />
    <glyph glyph-name="scommaaccent" unicode="&#x219;" horiz-adv-x="545" 
d="M115.5 30.5q-60.5 50.5 -60.5 140.5h81q1 -55 41 -88t110 -33q58 0 91.5 22.5t33.5 62.5q0 31 -19 46.5t-45 21.5t-81 13q-91 11 -146.5 42.5t-55.5 108.5q0 73 55.5 115.5t146.5 42.5q95 0 153.5 -46.5t58.5 -124.5h-81q-1 46 -37 73.5t-95 27.5q-55 0 -89 -23t-34 -62
q0 -29 18.5 -44.5t45 -21t79.5 -11.5q59 -7 102.5 -21.5t73 -47t29.5 -88.5q0 -74 -54.5 -115t-151.5 -41q-109 0 -169.5 50.5zM231 -258l37 74q-22 2 -37 16.5t-15 35.5q0 23 15.5 38.5t39.5 15.5t39.5 -15.5t15.5 -38.5q0 -22 -11 -43l-50 -93z" />
    <glyph glyph-name="uni021A" unicode="&#x21a;" horiz-adv-x="582" 
d="M246 625h-234v80h559v-80h-234v-625h-91v625zM252 -258l38 74q-23 2 -38 16.5t-15 35.5q0 23 15.5 38.5t39.5 15.5q25 0 40 -15.5t15 -38.5q0 -25 -11 -43l-49 -93z" />
    <glyph glyph-name="uni021B" unicode="&#x21b;" horiz-adv-x="391" 
d="M160 22q-38 41 -38 108v309h-82v66h82l18 163h65v-163h129v-66h-129v-306q0 -37 20.5 -59.5t56.5 -22.5q28 0 60 10v-67q-17 -6 -39.5 -9.5t-41.5 -3.5q-63 0 -101 41zM209 -258l38 74q-23 1 -38 16t-15 36q0 23 15.5 38.5t39.5 15.5t39.5 -15.5t15.5 -38.5
q0 -22 -11 -43l-50 -93z" />
    <glyph glyph-name="circumflex" unicode="&#x2c6;" horiz-adv-x="423" 
d="M165 735h93l114 -142h-81l-75 86h-9l-76 -86h-80z" />
    <glyph glyph-name="caron" unicode="&#x2c7;" horiz-adv-x="423" 
d="M131 736l76 -86h9l75 86h81l-115 -143h-93l-113 143h80z" />
    <glyph glyph-name="breve" unicode="&#x2d8;" horiz-adv-x="368" 
d="M88.5 639q-37.5 38 -37.5 96h69q0 -33 17 -53t47 -20t47 20t17 53h69q1 -58 -36.5 -96t-96.5 -38q-58 0 -95.5 38z" />
    <glyph glyph-name="dotaccent" unicode="&#x2d9;" horiz-adv-x="220" 
d="M67.5 618q-16.5 17 -16.5 43t16.5 42t42.5 16t43 -16.5t17 -41.5q0 -26 -17 -43t-43 -17t-42.5 17z" />
    <glyph glyph-name="ring" unicode="&#x2da;" horiz-adv-x="319" 
d="M81.5 617.5q-30.5 29.5 -30.5 74.5q0 46 30.5 75t78.5 29t78 -29t30 -75q0 -45 -30 -74.5t-78 -29.5t-78.5 29.5zM206 646q18 18 18 46t-18 46t-46 18q-29 0 -47 -18t-18 -46t18.5 -46t46.5 -18t46 18z" />
    <glyph glyph-name="ogonek" unicode="&#x2db;" horiz-adv-x="265" 
d="M72 -178.5q-21 21.5 -21 55.5q0 43 37 82.5t111 70.5l16 -30q-57 -25 -87 -53.5t-30 -57.5q0 -19 12 -30t32 -11q27 0 59 20v-47q-38 -21 -74 -21q-34 0 -55 21.5z" />
    <glyph glyph-name="tilde" unicode="&#x2dc;" horiz-adv-x="457" 
d="M248 601.5q-19 8.5 -40 24.5q-16 12 -27.5 18t-26.5 6q-18 0 -34 -10t-25 -26l-44 33q14 30 44 49t66 19q24 0 41.5 -8t39.5 -24q18 -13 31 -19.5t28 -6.5q20 0 36.5 10.5t24.5 27.5l45 -33q-14 -31 -44 -50t-69 -19q-27 0 -46 8.5z" />
    <glyph glyph-name="hungarumlaut" unicode="&#x2dd;" horiz-adv-x="457" 
d="M151 730h91l-114 -137h-77zM211 593l107 137h89l-119 -137h-77z" />
    <glyph glyph-name="uni0401" unicode="&#x401;" horiz-adv-x="639" 
d="M181 807q-17 17 -17 43q0 25 17 41.5t43 16.5t42.5 -16t16.5 -42t-16.5 -43t-42.5 -17t-43 17zM411.5 807q-16.5 17 -16.5 43t16.5 42t42.5 16t43 -16.5t17 -41.5q0 -26 -17 -43t-43 -17t-42.5 17zM95 705h484v-80h-392v-220h352v-80h-352v-245h402v-80h-494v705z" />
    <glyph glyph-name="uni0402" unicode="&#x402;" horiz-adv-x="691" 
d="M328 -7v70q34 -8 68 -8q67 0 106 38t39 114v62q0 89 -44 135t-124 46q-82 0 -135 -50t-53 -140v-260h-83v630h-90v75h265v-75h-92v-213h9q25 56 76.5 82t113.5 26q112 0 176 -67.5t64 -188.5v-64q0 -107 -57 -164.5t-155 -57.5q-46 0 -84 10z" />
    <glyph glyph-name="uni0403" unicode="&#x403;" horiz-adv-x="603" 
d="M364 901h103l-110 -113h-98zM94 705h473v-80h-381v-625h-92v705z" />
    <glyph glyph-name="uni0404" unicode="&#x404;" horiz-adv-x="823" 
d="M234.5 23.5q-86.5 48.5 -135 135t-48.5 194.5t48.5 194t135 134.5t194.5 48.5q86 0 159.5 -35t121.5 -96t60 -136l-85 -11q-12 55 -48.5 100.5t-90 71.5t-114.5 26q-76 0 -138.5 -32.5t-101.5 -90.5t-47 -133h410v-81h-410q7 -74 46 -133t102 -92t139 -33q62 0 116 25.5
t90.5 69.5t47.5 98l86 -12q-12 -73 -60 -133t-122 -94t-161 -34q-108 0 -194.5 48.5z" />
    <glyph glyph-name="uni0405" unicode="&#x405;" horiz-adv-x="686" 
d="M197 5.5q-67 30.5 -103 88t-36 135.5h90q0 -82 55 -128t154 -46q86 0 134 34.5t48 94.5q0 45 -27 70.5t-67 37t-110 22.5q-80 13 -136 32t-93.5 61t-37.5 113q0 96 70.5 153t196.5 57q130 0 204.5 -63.5t74.5 -175.5h-89q1 75 -49 117t-141 42q-84 0 -130 -33.5
t-46 -91.5q0 -44 26 -68.5t66 -36t106 -21.5q84 -14 140 -32t94.5 -60.5t38.5 -116.5q0 -100 -72.5 -157.5t-201.5 -57.5q-92 0 -159 30.5z" />
    <glyph glyph-name="uni0406" unicode="&#x406;" horiz-adv-x="281" 
d="M95 705h91v-705h-91v705z" />
    <glyph glyph-name="uni0407" unicode="&#x407;" horiz-adv-x="282" 
d="M-16.5 807q-16.5 17 -16.5 43t16.5 42t42.5 16t43 -16.5t17 -41.5q0 -26 -17 -43t-43 -17t-42.5 17zM214 807q-17 17 -17 43q0 25 17 41.5t43 16.5t42.5 -16t16.5 -42t-16.5 -43t-42.5 -17t-43 17zM95 705h91v-705h-91v705z" />
    <glyph glyph-name="uni0408" unicode="&#x408;" horiz-adv-x="477" 
d="M104.5 -14.5q-35.5 5.5 -64.5 14.5v78q27 -8 57.5 -13t51.5 -5q63 0 102.5 41t39.5 110v494h91v-493q0 -68 -27.5 -120.5t-76 -82t-109.5 -29.5q-29 0 -64.5 5.5z" />
    <glyph glyph-name="uni0409" unicode="&#x409;" horiz-adv-x="1127" 
d="M30 80q74 0 109.5 42.5t44.5 144.5l42 438h440v-291h189q66 0 119 -26.5t82.5 -73.5t29.5 -106q0 -60 -29.5 -107.5t-82.5 -74t-119 -26.5h-280v625h-267l-40 -401q-10 -109 -71.5 -166.5t-166.5 -57.5v80zM840 80q67 0 111 35.5t44 90.5t-43.5 91t-111.5 36h-173v-253
h173z" />
    <glyph glyph-name="uni040A" unicode="&#x40a;" horiz-adv-x="1051" 
d="M94 705h92v-295h315v295h91v-295h190q66 0 118 -26t81 -72.5t29 -105.5t-29 -106t-81 -73.5t-118 -26.5h-281v329h-315v-329h-92v705zM767 80q67 0 109.5 35t42.5 88q0 55 -42.5 90.5t-109.5 35.5h-174v-249h174z" />
    <glyph glyph-name="uni040B" unicode="&#x40b;" horiz-adv-x="691" 
d="M102 630h-90v75h265v-75h-92v-213h9q25 56 76.5 82t113.5 26q112 0 176 -67.5t64 -188.5v-266h-83v266q0 89 -44 135t-124 46q-82 0 -135 -50t-53 -140v-260h-83v630z" />
    <glyph glyph-name="uni040C" unicode="&#x40c;" horiz-adv-x="633" 
d="M410 901h103l-110 -113h-99zM95 705h91v-308h10l292 308h114l-328 -341l338 -364h-115l-301 331h-10v-331h-91v705z" />
    <glyph glyph-name="uni040E" unicode="&#x40e;" horiz-adv-x="671" 
d="M236.5 813q-42.5 35 -42.5 88h82q0 -28 18.5 -43.5t50.5 -15.5t50 15.5t18 43.5h81q0 -53 -42 -88t-107 -35q-66 0 -108.5 35zM97.5 -16.5q-25.5 3.5 -38.5 9.5v80q33 -12 73 -12q34 0 60.5 12t52.5 44t54 92l13 29l-277 467h97l219 -373h10l185 373h96l-250 -503
q-45 -90 -78.5 -136.5t-71.5 -66t-93 -19.5q-26 0 -51.5 3.5z" />
    <glyph glyph-name="uni040F" unicode="&#x40f;" horiz-adv-x="752" 
d="M330 0h-236v705h92v-625h380v625h91v-705h-236v-150h-91v150z" />
    <glyph glyph-name="uni0410" unicode="&#x410;" horiz-adv-x="713" 
d="M296 705h124l263 -705h-87l-60 158h-359l-60 -158h-87zM510 233l-148 392h-9l-149 -392h306z" />
    <glyph glyph-name="uni0411" unicode="&#x411;" horiz-adv-x="676" 
d="M94 705h490v-79h-398v-192h198q118 0 184.5 -58t66.5 -159t-69 -159t-189 -58h-283v705zM362 80q85 0 133.5 37t48.5 100q0 62 -47.5 99.5t-127.5 37.5h-183v-274h176z" />
    <glyph glyph-name="uni0412" unicode="&#x412;" horiz-adv-x="697" 
d="M95 705h307q64 0 114.5 -24.5t79.5 -67.5t29 -97q0 -50 -29 -91t-74 -55v-10q54 -15 88.5 -60t34.5 -102q0 -56 -31.5 -101.5t-87 -71t-125.5 -25.5h-306v705zM391 402q63 0 103.5 31t40.5 80t-40.5 80.5t-103.5 31.5h-205v-223h205zM389 80q47 0 85 16t59.5 44t21.5 63
q0 52 -47 85.5t-119 33.5h-203v-242h203z" />
    <glyph glyph-name="uni0413" unicode="&#x413;" horiz-adv-x="597" 
d="M94 705h473v-80h-381v-625h-92v705z" />
    <glyph glyph-name="uni0414" unicode="&#x414;" horiz-adv-x="839" 
d="M20 80h69q47 36 74.5 90t38.5 134l53 401h448v-625h107v-230h-83v150h-625v-150h-82v230zM612 80v545h-276l-48 -338q-9 -68 -33.5 -115t-61.5 -82v-10h419z" />
    <glyph glyph-name="uni0415" unicode="&#x415;" horiz-adv-x="639" 
d="M95 705h484v-80h-392v-220h352v-80h-352v-245h402v-80h-494v705z" />
    <glyph glyph-name="uni0416" unicode="&#x416;" horiz-adv-x="989" 
d="M362 364l-322 341h113l287 -311h9v311h92v-311h9l287 311h113l-322 -341l332 -364h-114l-296 334h-9v-334h-92v334h-9l-296 -334h-114z" />
    <glyph glyph-name="uni0417" unicode="&#x417;" horiz-adv-x="648" 
d="M187.5 8.5q-64.5 33.5 -100 93.5t-35.5 136h89q0 -53 24.5 -94.5t68 -65t100.5 -23.5q51 0 91.5 17.5t64 49t23.5 71.5q0 59 -47.5 96.5t-120.5 37.5h-90v80h95q61 0 101.5 34t40.5 86q0 54 -46 88.5t-116 34.5q-78 0 -126 -44.5t-48 -114.5h-89q0 69 33 123.5t92.5 85
t137.5 30.5q71 0 128.5 -25t90.5 -69.5t33 -101.5q0 -59 -33 -101.5t-88 -56.5v-10q63 -12 103.5 -62.5t40.5 -117.5q0 -60 -35 -108t-96.5 -75.5t-137.5 -27.5q-84 0 -148.5 33.5z" />
    <glyph glyph-name="uni0418" unicode="&#x418;" horiz-adv-x="755" 
d="M568 0v585h-9l-334 -585h-131v705h92v-585h9l334 585h130v-705h-91z" />
    <glyph glyph-name="uni0419" unicode="&#x419;" horiz-adv-x="755" 
d="M289.5 813q-42.5 35 -42.5 88h82q0 -28 18.5 -43.5t50.5 -15.5t50 15.5t18 43.5h81q0 -53 -42 -88t-107 -35q-66 0 -108.5 35zM186 705v-585h10l334 585h130v-705h-91v586h-9l-334 -586h-131v705h91z" />
    <glyph glyph-name="uni041A" unicode="&#x41a;" horiz-adv-x="633" 
d="M95 705h91v-308h10l292 308h114l-328 -341l338 -364h-115l-301 331h-10v-331h-91v705z" />
    <glyph glyph-name="uni041B" unicode="&#x41b;" horiz-adv-x="760" 
d="M30 80q74 0 109.5 42.5t44.5 144.5l42 438h440v-705h-91v625h-267l-40 -401q-10 -109 -71.5 -166.5t-166.5 -57.5v80z" />
    <glyph glyph-name="uni041C" unicode="&#x41c;" horiz-adv-x="953" 
d="M94 705h144l233 -578h9l234 578h143v-705h-91v590h-9l-238 -590h-87l-237 589h-9v-589h-92v705z" />
    <glyph glyph-name="uni041D" unicode="&#x41d;" horiz-adv-x="752" 
d="M94 705h92v-297h380v297h91v-705h-91v328h-380v-328h-92v705z" />
    <glyph glyph-name="uni041E" unicode="&#x41e;" horiz-adv-x="864" 
d="M235 23q-87 48 -135.5 134t-48.5 196q0 109 48.5 194.5t135.5 134t197 48.5t197 -48.5t135.5 -134t48.5 -194.5q0 -110 -48.5 -196t-135.5 -134t-197 -48t-197 48zM581 93.5q66 38.5 103 106t37 153.5q0 85 -37 153t-103 106t-149 38t-149.5 -38t-103.5 -106t-37 -153
t37 -153t103.5 -106.5t149.5 -38.5t149 38.5z" />
    <glyph glyph-name="uni041F" unicode="&#x41f;" horiz-adv-x="749" 
d="M94 705h561v-705h-91v630h-378v-630h-92v705z" />
    <glyph glyph-name="uni0420" unicode="&#x420;" horiz-adv-x="671" 
d="M95 705h281q116 0 184.5 -57t68.5 -157q0 -66 -31.5 -115.5t-89 -76t-132.5 -26.5h-192v-273h-89v705zM376 354q76 0 119.5 36.5t43.5 98.5q0 63 -43.5 99.5t-119.5 36.5h-192v-271h192z" />
    <glyph glyph-name="uni0421" unicode="&#x421;" horiz-adv-x="803" 
d="M229.5 23.5q-83.5 48.5 -130.5 134t-47 193.5t46.5 194.5t130 135.5t188.5 49q78 0 148.5 -33t119.5 -91.5t67 -131.5l-89 -12q-13 54 -49.5 97t-88 67t-108.5 24q-79 0 -141.5 -38.5t-97.5 -106t-35 -152.5t35.5 -153t98 -106.5t140.5 -38.5q56 0 107 23.5t88 65
t52 92.5l87 -17q-17 -69 -66 -125t-119.5 -87.5t-148.5 -31.5q-104 0 -187.5 48.5z" />
    <glyph glyph-name="uni0422" unicode="&#x422;" horiz-adv-x="582" 
d="M246 625h-234v80h559v-80h-234v-625h-91v625z" />
    <glyph glyph-name="uni0423" unicode="&#x423;" horiz-adv-x="670" 
d="M97.5 -16.5q-25.5 3.5 -38.5 9.5v80q33 -12 73 -12q34 0 60.5 12t52.5 44t54 92l13 29l-277 467h97l219 -373h10l185 373h96l-250 -503q-45 -90 -78.5 -136.5t-71.5 -66t-93 -19.5q-26 0 -51.5 3.5z" />
    <glyph glyph-name="uni0424" unicode="&#x424;" horiz-adv-x="831" 
d="M369 53q-98 3 -172.5 44.5t-115 109t-40.5 149.5q0 83 40.5 151t115 109t173.5 44v75h91v-75q98 -1 173 -41.5t115.5 -109.5t40.5 -153t-41 -152.5t-116 -109t-173 -41.5v-83h-91v83zM370 579q-70 -2 -124 -32.5t-84 -81t-30 -108.5t30 -108.5t84.5 -82t123.5 -33.5v446z
M584.5 163.5q54.5 30.5 84.5 82t30 111.5q0 59 -30 110t-84.5 81.5t-123.5 30.5v-446q69 0 123.5 30.5z" />
    <glyph glyph-name="uni0425" unicode="&#x425;" horiz-adv-x="711" 
d="M293 373l-244 332h103l196 -279h9l202 279h103l-250 -332l260 -373h-102l-213 313h-9l-207 -313h-102z" />
    <glyph glyph-name="uni0426" unicode="&#x426;" horiz-adv-x="800" 
d="M680 0h-586v705h92v-626h381v626h91v-626h113v-230h-91v151z" />
    <glyph glyph-name="uni0427" unicode="&#x427;" horiz-adv-x="700" 
d="M514 318q-30 -43 -84.5 -68t-113.5 -25q-73 0 -130 28t-89.5 84t-32.5 137v231h92v-222q0 -91 49.5 -137t130.5 -46q52 0 102.5 30.5t75.5 76.5v298h91v-705h-91v318z" />
    <glyph glyph-name="uni0428" unicode="&#x428;" horiz-adv-x="991" 
d="M94 705h92v-625h264v625h91v-625h264v625h91v-705h-802v705z" />
    <glyph glyph-name="uni0429" unicode="&#x429;" horiz-adv-x="1046" 
d="M926 0h-832v705h92v-625h264v625h91v-625h264v625h91v-625h121v-230h-91v150z" />
    <glyph glyph-name="uni042A" unicode="&#x42a;" horiz-adv-x="745" 
d="M159 628h-129v77h220v-247h206q72 0 128.5 -30.5t88 -83t31.5 -115.5t-31.5 -115.5t-88 -83t-128.5 -30.5h-297v628zM441 80q49 0 88.5 19t61.5 53t22 76t-22 76t-61.5 53.5t-88.5 19.5h-189v-297h189z" />
    <glyph glyph-name="uni042B" unicode="&#x42b;" horiz-adv-x="949" 
d="M94 705h92v-247h203q72 0 128.5 -31t88 -83.5t31.5 -114.5q0 -63 -31.5 -115.5t-88 -83t-128.5 -30.5h-295v705zM764 705h91v-705h-91v705zM374 80q50 0 89 19t61 53t22 76q0 43 -22 77t-61 53t-89 19h-188v-297h188z" />
    <glyph glyph-name="uni042C" unicode="&#x42c;" horiz-adv-x="679" 
d="M94 705h92v-247h203q72 0 128.5 -31t88 -83.5t31.5 -114.5q0 -63 -31.5 -115.5t-88 -83t-128.5 -30.5h-295v705zM374 80q50 0 89 19t61 53t22 76q0 43 -22 77t-61 53t-89 19h-188v-297h188z" />
    <glyph glyph-name="uni042D" unicode="&#x42d;" horiz-adv-x="822" 
d="M233 9q-74 34 -122 94t-60 133l86 12q11 -54 47.5 -98t90.5 -69.5t116 -25.5q76 0 139 33t102 92t46 133h-410v81h410q-8 75 -47 133t-101.5 90.5t-138.5 32.5q-61 0 -114.5 -26t-90.5 -71.5t-48 -100.5l-85 11q12 75 60 136t121.5 96t159.5 35q108 0 194 -48.5
t134.5 -134.5t48.5 -194t-48.5 -194.5t-134.5 -135t-194 -48.5q-87 0 -161 34z" />
    <glyph glyph-name="uni042E" unicode="&#x42e;" horiz-adv-x="1032" 
d="M467.5 18q-74.5 42 -120 118.5t-53.5 177.5h-108v-314h-92v705h92v-311h108q7 100 52.5 176.5t120.5 118t169 41.5q100 0 178.5 -47t122.5 -132.5t44 -197.5q0 -113 -44 -198.5t-122.5 -132t-178.5 -46.5q-94 0 -168.5 42zM767.5 92.5q57.5 36.5 90 104t32.5 156.5
t-32.5 156.5t-90 104t-131.5 36.5q-73 0 -130.5 -36.5t-90 -104t-32.5 -156.5t32.5 -156.5t90 -104t130.5 -36.5q74 0 131.5 36.5z" />
    <glyph glyph-name="uni042F" unicode="&#x42f;" horiz-adv-x="709" 
d="M522 0v276h-129l-245 -276h-114l255 281h-12q-65 3 -116 30.5t-79.5 74t-28.5 105.5q0 64 31.5 112.5t89 75t132.5 26.5h307v-705h-91zM522 625h-216q-75 0 -119 -36t-44 -98t43.5 -98.5t119.5 -36.5h216v269z" />
    <glyph glyph-name="uni0430" unicode="&#x430;" horiz-adv-x="553" 
d="M86.5 23.5q-49.5 39.5 -49.5 104.5q0 68 58 114t168 58l140 17v20q0 51 -35 81.5t-97 30.5q-58 0 -92 -26.5t-33 -73.5h-84q0 80 57 127.5t153 47.5q98 0 156 -51.5t58 -137.5v-335h-83v74h-9q-56 -90 -176 -90q-82 0 -131.5 39.5zM320 72q39 19 61 53t22 76v45l-140 -16
q-74 -9 -108.5 -35.5t-34.5 -64.5q0 -36 29.5 -56.5t80.5 -20.5t90 19z" />
    <glyph glyph-name="uni0431" unicode="&#x431;" horiz-adv-x="619" 
d="M188 8q-57 32 -89 89.5t-32 131.5q0 190 25 290.5t85.5 142t174.5 41.5q61 0 87.5 11t26.5 36h73q0 -65 -44 -95t-135 -30q-76 0 -118 -20t-62 -68t-25 -137h10q25 41 67.5 63t99.5 22q72 0 125.5 -33t82.5 -91t29 -132t-32 -131.5t-89 -89.5t-130 -32t-130 32zM405 74.5
q38 23.5 59.5 64.5t21.5 93q0 51 -21.5 91.5t-59.5 63.5t-87 23q-48 0 -86 -22.5t-60 -63t-22 -92.5t21.5 -93t60 -64.5t86.5 -23.5q49 0 87 23.5z" />
    <glyph glyph-name="uni0432" unicode="&#x432;" horiz-adv-x="542" 
d="M77 505h253q68 0 112 -36t44 -90q0 -39 -21.5 -68t-55.5 -41v-10q41 -9 66.5 -38.5t25.5 -75.5q0 -64 -46.5 -105t-120.5 -41h-257v505zM321 300q36 0 59.5 19t23.5 47t-23.5 48t-59.5 20h-161v-134h161zM320 71q43 0 70.5 23.5t27.5 57.5q0 33 -27.5 54.5t-70.5 21.5
h-160v-157h160z" />
    <glyph glyph-name="uni0433" unicode="&#x433;" horiz-adv-x="458" 
d="M77 505h351v-75h-268v-430h-83v505z" />
    <glyph glyph-name="uni0434" unicode="&#x434;" horiz-adv-x="663" 
d="M20 75h66q31 22 47 65t25 124l28 241h352v-430h85v-225h-74v150h-455v-150h-74v225zM455 75v355h-198l-24 -201q-7 -55 -20.5 -87.5t-40.5 -56.5v-10h283z" />
    <glyph glyph-name="uni0435" unicode="&#x435;" horiz-adv-x="635" 
d="M183.5 16q-62.5 36 -97.5 99.5t-35 143.5q0 76 34.5 136.5t95.5 95t138 34.5q76 0 136.5 -34.5t95 -95.5t34.5 -137q0 -22 -1 -33h-447q9 -77 60.5 -123.5t127.5 -46.5q57 0 103.5 26.5t69.5 71.5l69 -35q-30 -65 -94.5 -101.5t-148.5 -36.5q-78 0 -140.5 36zM497 298
q-11 68 -60.5 110t-120.5 42q-70 0 -118.5 -41.5t-59.5 -110.5h359z" />
    <glyph glyph-name="uni0436" unicode="&#x436;" horiz-adv-x="697" 
d="M223 263l-209 242h95l189 -219h10v219h83v-219h9l189 219h96l-210 -242l219 -263h-98l-196 239h-9v-239h-83v239h-10l-195 -239h-99z" />
    <glyph glyph-name="uni0437" unicode="&#x437;" horiz-adv-x="516" 
d="M157.5 4.5q-50.5 24.5 -79 68t-28.5 97.5h83q0 -50 38.5 -82.5t99.5 -32.5q53 0 87 25.5t34 65.5q0 38 -28.5 58t-75.5 20h-90v75h91q40 0 65.5 20t25.5 51q0 36 -33 58t-84 22q-55 0 -90 -27t-35 -70h-80q0 49 26 88.5t73.5 61.5t107.5 22q56 0 100.5 -19t70 -53.5
t25.5 -78.5q0 -41 -21.5 -67.5t-61.5 -36.5v-10q45 -10 71 -42t26 -78q0 -47 -26 -83.5t-72.5 -56.5t-104.5 -20q-64 0 -114.5 24.5z" />
    <glyph glyph-name="uni0438" unicode="&#x438;" horiz-adv-x="615" 
d="M77 505h83v-387h9l269 387h101v-505h-83v386h-10l-268 -386h-101v505z" />
    <glyph glyph-name="uni0439" unicode="&#x439;" horiz-adv-x="615" 
d="M208.5 638.5q-37.5 37.5 -37.5 96.5h70q0 -33 17 -53t46 -20q30 0 47 20t17 53h70q0 -58 -37.5 -96t-96.5 -38q-58 0 -95.5 37.5zM77 505h83v-387h9l269 387h101v-505h-83v386h-10l-268 -386h-101v505z" />
    <glyph glyph-name="uni043A" unicode="&#x43a;" horiz-adv-x="503" 
d="M77 505h83v-216h10l216 216h110l-249 -242l255 -263h-111l-221 235h-10v-235h-83v505z" />
    <glyph glyph-name="uni043B" unicode="&#x43b;" horiz-adv-x="565" 
d="M11 70q50 0 70.5 33.5t30.5 111.5l36 290h341v-505h-83v430h-184l-37 -263q-12 -87 -58.5 -127t-115.5 -40v70z" />
    <glyph glyph-name="uni043C" unicode="&#x43c;" horiz-adv-x="772" 
d="M77 505h120l183 -401h10l185 401h121v-505h-83v389h-10l-180 -389h-74l-180 389h-9v-389h-83v505z" />
    <glyph glyph-name="uni043D" unicode="&#x43d;" horiz-adv-x="614" 
d="M77 505h83v-212h295v212h83v-505h-83v218h-295v-218h-83v505z" />
    <glyph glyph-name="uni043E" unicode="&#x43e;" horiz-adv-x="642" 
d="M180.5 15q-61.5 35 -96 97t-34.5 141t34.5 140.5t96 96.5t140.5 35q78 0 140 -35t96.5 -97t34.5 -140q0 -79 -34.5 -141t-96.5 -97t-140 -35q-79 0 -140.5 35zM418 80.5q43 25.5 67 70.5t24 102q0 56 -24 101t-67 70.5t-97 25.5t-97 -25.5t-67 -70.5t-24 -101
q0 -57 24 -102t67 -70.5t97 -25.5t97 25.5z" />
    <glyph glyph-name="uni043F" unicode="&#x43f;" horiz-adv-x="624" 
d="M77 505h470v-505h-83v430h-304v-430h-83v505z" />
    <glyph glyph-name="uni0440" unicode="&#x440;" horiz-adv-x="666" 
d="M486.5 490q59.5 -35 94 -97t34.5 -140t-34 -140t-93.5 -97.5t-132.5 -35.5q-61 0 -109.5 25t-76.5 70h-9v-305h-83v735h83v-77h9q28 46 75.5 71.5t109.5 25.5q73 0 132.5 -35zM248.5 424q-42.5 -26 -67 -71t-24.5 -100t24.5 -100.5t67.5 -71.5t96 -26t95.5 26t67 71.5
t24.5 100.5q0 56 -24 101t-67 70.5t-96 25.5q-54 0 -96.5 -26z" />
    <glyph glyph-name="uni0441" unicode="&#x441;" horiz-adv-x="612" 
d="M179 15q-60 35 -94 97t-34 139q0 78 34 140.5t94 98t135 35.5q61 0 114 -24t88 -66.5t44 -95.5l-80 -11q-14 54 -60.5 88t-104.5 34q-51 0 -92.5 -25t-65 -70t-23.5 -102q0 -58 23.5 -103t64.5 -70t92 -25q59 0 105 33.5t62 86.5l81 -10q-11 -53 -47 -95.5t-89 -66
t-112 -23.5q-75 0 -135 35z" />
    <glyph glyph-name="uni0442" unicode="&#x442;" horiz-adv-x="491" 
d="M205 430h-183v75h448v-75h-182v-430h-83v430z" />
    <glyph glyph-name="uni0443" unicode="&#x443;" horiz-adv-x="533" 
d="M85 -219.5q-22 4.5 -39 11.5v73q38 -15 67 -15q30 0 51 16.5t33.5 41t28.5 64.5l12 29l-225 504h87l173 -395h10l148 395h89l-200 -513q-30 -75 -52 -117t-56.5 -70.5t-85.5 -28.5q-19 0 -41 4.5z" />
    <glyph glyph-name="uni0444" unicode="&#x444;" horiz-adv-x="750" 
d="M334 -20q-81 3 -145.5 39t-101.5 97.5t-37 137.5q0 74 37 135t101.5 97t145.5 39v211h83v-211q80 -3 144.5 -39t101.5 -97t37 -135q0 -75 -37 -136.5t-101.5 -98t-144.5 -39.5v-211h-83v211zM334 450q-56 -2 -102 -29t-72.5 -71t-26.5 -96q0 -53 26.5 -97.5t72.5 -72
t102 -29.5v395zM517.5 84.5q45.5 27.5 72.5 72t27 97.5q0 52 -26.5 95.5t-72.5 70.5t-101 30v-395q55 2 100.5 29.5z" />
    <glyph glyph-name="uni0445" unicode="&#x445;" horiz-adv-x="512" 
d="M204 263l-180 242h89l138 -188h10l138 188h89l-180 -242l190 -263h-92l-145 206h-10l-145 -206h-92z" />
    <glyph glyph-name="uni0446" unicode="&#x446;" horiz-adv-x="645" 
d="M539 0h-462v505h83v-430h285v430h83v-430h86v-225h-75v150z" />
    <glyph glyph-name="uni0447" unicode="&#x447;" horiz-adv-x="560" 
d="M403 227q-25 -35 -73 -57.5t-100 -22.5q-54 0 -96.5 25t-67 71.5t-24.5 107.5v154h83v-154q0 -61 32 -94.5t91 -33.5q50 0 92 22.5t61 58.5v200h83v-504h-81v227z" />
    <glyph glyph-name="uni0448" unicode="&#x448;" horiz-adv-x="845" 
d="M77 505h83v-430h221v430h83v-430h222v430h83v-505h-692v505z" />
    <glyph glyph-name="uni0449" unicode="&#x449;" horiz-adv-x="886" 
d="M780 0h-703v505h83v-430h221v430h83v-430h222v430h83v-430h86v-225h-75v150z" />
    <glyph glyph-name="uni044A" unicode="&#x44a;" horiz-adv-x="597" 
d="M134 430h-124v75h207v-155h139q91 0 146.5 -48t55.5 -126q0 -80 -55 -128t-147 -48h-222v430zM357 75q55 0 87.5 27t32.5 73t-33 73t-87 27h-140v-200h140z" />
    <glyph glyph-name="uni044B" unicode="&#x44b;" horiz-adv-x="703" 
d="M77 505h83v-155h108q91 0 146.5 -48t55.5 -126q0 -80 -55 -128t-147 -48h-191v505zM543 505h83v-505h-83v505zM268 75q55 0 87.5 27t32.5 73t-33 73t-87 27h-108v-200h108z" />
    <glyph glyph-name="uni044C" unicode="&#x44c;" horiz-adv-x="540" 
d="M77 505h83v-155h139q91 0 146.5 -48t55.5 -126q0 -80 -55 -128t-147 -48h-222v505zM299 75q55 0 87.5 27t32.5 73t-33 73t-87 27h-139v-200h139z" />
    <glyph glyph-name="uni044D" unicode="&#x44d;" horiz-adv-x="611" 
d="M185.5 3.5q-52.5 23.5 -88.5 66t-47 95.5l81 10q15 -53 61 -86.5t106 -33.5q68 0 117.5 45t59.5 118h-256v70h256q-10 73 -59.5 117.5t-118.5 44.5q-58 0 -104.5 -34t-60.5 -88l-80 11q9 53 44 95.5t88 66.5t114 24q75 0 135 -35t94 -97t34 -140t-34 -140.5t-94 -97.5
t-135 -35q-60 0 -112.5 23.5z" />
    <glyph glyph-name="uni044E" unicode="&#x44e;" horiz-adv-x="793" 
d="M372 8q-54 29 -87 82.5t-39 123.5h-86v-215h-83v506h83v-216h85q8 70 41 123.5t86.5 83t120.5 29.5q73 0 129.5 -35t88.5 -97.5t32 -141.5q0 -80 -32 -142t-88.5 -96t-129.5 -34q-67 0 -121 29zM615.5 107.5q44.5 53.5 44.5 143.5t-45 144.5t-122 54.5
q-78 0 -123.5 -54.5t-45.5 -144.5t45.5 -143.5t123.5 -53.5t122.5 53.5z" />
    <glyph glyph-name="uni044F" unicode="&#x44f;" horiz-adv-x="550" 
d="M211 187q-77 7 -118.5 51.5t-41.5 107.5q0 47 24.5 83t70 56t104.5 20h224v-505h-83v186h-88l-151 -186h-102zM391 261v169h-141q-53 0 -84.5 -23t-31.5 -61t31.5 -61.5t84.5 -23.5h141z" />
    <glyph glyph-name="uni0451" unicode="&#x451;" horiz-adv-x="635" 
d="M158.5 616.5q-15.5 15.5 -15.5 38.5q0 24 15.5 39t39.5 15q25 0 40.5 -15t15.5 -39q0 -23 -15.5 -38.5t-40.5 -15.5q-24 0 -39.5 15.5zM398.5 616.5q-15.5 15.5 -15.5 38.5q0 24 15.5 39t39.5 15t39.5 -15t15.5 -39q0 -23 -15.5 -38.5t-39.5 -15.5t-39.5 15.5zM183.5 16
q-62.5 36 -97.5 99.5t-35 143.5q0 76 34.5 136.5t95.5 95t138 34.5q76 0 136.5 -34.5t95 -95.5t34.5 -137q0 -22 -1 -33h-447q9 -77 60.5 -123.5t127.5 -46.5q57 0 103.5 26.5t69.5 71.5l69 -35q-30 -65 -94.5 -101.5t-148.5 -36.5q-78 0 -140.5 36zM497 298
q-11 68 -60.5 110t-120.5 42q-70 0 -118.5 -41.5t-59.5 -110.5h359z" />
    <glyph glyph-name="uni0452" unicode="&#x452;" horiz-adv-x="604" 
d="M241 -122v70q35 -8 68 -8q68 0 107 38t39 112v213q0 66 -37 106.5t-101 40.5q-42 0 -78 -20t-57.5 -55.5t-21.5 -79.5v-295h-83v590h-90v75h90v70h83v-70h130v-75h-130v-152h9q26 42 67 64.5t92 22.5q63 0 110.5 -28.5t73.5 -79t26 -114.5v-215q0 -106 -57.5 -163
t-154.5 -57q-45 0 -85 10z" />
    <glyph glyph-name="uni0453" unicode="&#x453;" horiz-adv-x="440" 
d="M305 735h94l-115 -142h-87zM77 505h351v-75h-268v-430h-83v505z" />
    <glyph glyph-name="uni0454" unicode="&#x454;" horiz-adv-x="611" 
d="M178 15q-60 35 -94 97.5t-34 140.5t34 140t94 97t135 35q61 0 114 -24t88 -66.5t44 -95.5l-80 -11q-14 54 -60.5 88t-104.5 34q-70 0 -119 -44.5t-59 -117.5h256v-70h-256q10 -73 59 -118t118 -45q60 0 105.5 33t61.5 87l81 -10q-11 -53 -47 -95.5t-89 -66t-112 -23.5
q-75 0 -135 35z" />
    <glyph glyph-name="uni0455" unicode="&#x455;" horiz-adv-x="545" 
d="M115.5 30.5q-60.5 50.5 -60.5 140.5h81q1 -55 41 -88t110 -33q58 0 91.5 22.5t33.5 62.5q0 31 -19 46.5t-45 21.5t-81 13q-91 11 -146.5 42.5t-55.5 108.5q0 73 55.5 115.5t146.5 42.5q95 0 153.5 -46.5t58.5 -124.5h-81q-1 46 -37 73.5t-95 27.5q-55 0 -89 -23t-34 -62
q0 -29 18.5 -44.5t45 -21t79.5 -11.5q59 -7 102.5 -21.5t73 -47t29.5 -88.5q0 -74 -54.5 -115t-151.5 -41q-109 0 -169.5 50.5z" />
    <glyph glyph-name="uni0456" unicode="&#x456;" horiz-adv-x="271" 
d="M93 618q-17 17 -17 43q0 25 17 41.5t43 16.5t42.5 -16t16.5 -42t-16.5 -43t-42.5 -17t-43 17zM94 505h83v-505h-83v505z" />
    <glyph glyph-name="uni0457" unicode="&#x457;" horiz-adv-x="236" 
d="M-41.5 616.5q-15.5 15.5 -15.5 38.5q0 24 15.5 39t39.5 15q25 0 40 -15t15 -39q0 -23 -15 -38.5t-40 -15.5q-24 0 -39.5 15.5zM198.5 616.5q-15.5 15.5 -15.5 38.5q0 24 15 39t40 15q24 0 39.5 -15t15.5 -39q0 -23 -15.5 -38.5t-39.5 -15.5t-39.5 15.5zM76 505h83v-505
h-83v505z" />
    <glyph glyph-name="uni0458" unicode="&#x458;" horiz-adv-x="264" 
d="M85 618q-17 17 -17 43q0 25 17 41.5t43 16.5t43 -16.5t17 -41.5q0 -26 -17 -43t-43 -17t-43 17zM-54 -212v71q28 -9 65 -9q34 0 55 22t21 58v575h83v-575q0 -68 -38.5 -111.5t-97.5 -43.5q-51 0 -88 13z" />
    <glyph glyph-name="uni0459" unicode="&#x459;" horiz-adv-x="799" 
d="M11 70q50 0 70.5 33.5t30.5 111.5l36 290h313v-211h125q50 0 89.5 -19t61.5 -52.5t22 -75.5t-22.5 -75.5t-62 -52.5t-88.5 -19h-208v436h-156l-37 -269q-12 -87 -58.5 -127t-115.5 -40v70zM586 75q40 0 65.5 20.5t25.5 51.5t-25.5 51.5t-65.5 20.5h-125v-144h125z" />
    <glyph glyph-name="uni045A" unicode="&#x45a;" horiz-adv-x="792" 
d="M77 505h83v-211h212v211h83v-211h124q50 0 89.5 -19t61.5 -52.5t22 -75.5t-22 -75.5t-61.5 -52.5t-89.5 -19h-207v219h-212v-219h-83v505zM579 75q40 0 65.5 20t25.5 52q0 31 -25.5 51.5t-65.5 20.5h-124v-144h124z" />
    <glyph glyph-name="uni045B" unicode="&#x45b;" horiz-adv-x="604" 
d="M77 590h-90v75h90v70h83v-70h130v-75h-130v-152h9q26 42 67 64.5t92 22.5q63 0 110.5 -28.5t73.5 -79t26 -114.5v-303h-83v303q0 66 -37 106.5t-101 40.5q-42 0 -78 -20t-57.5 -55.5t-21.5 -79.5v-295h-83v590z" />
    <glyph glyph-name="uni045C" unicode="&#x45c;" horiz-adv-x="503" 
d="M324 735h94l-115 -142h-86zM77 505h83v-216h9l216 216h110l-249 -242l255 -263h-111l-221 235h-9v-235h-83v505z" />
    <glyph glyph-name="uni045E" unicode="&#x45e;" horiz-adv-x="533" 
d="M180.5 638.5q-37.5 37.5 -37.5 96.5h69q0 -33 17 -53t47 -20t47 20t17 53h70q0 -58 -38 -96t-96 -38t-95.5 37.5zM85 -219.5q-22 4.5 -39 11.5v73q38 -15 67 -15q30 0 51 16.5t33.5 41t28.5 64.5l12 29l-225 504h87l173 -395h10l148 395h89l-200 -513q-30 -75 -52 -117
t-56.5 -70.5t-85.5 -28.5q-19 0 -41 4.5z" />
    <glyph glyph-name="uni045F" unicode="&#x45f;" horiz-adv-x="618" 
d="M267 0h-190v505h83v-430h298v430h83v-505h-191v-150h-83v150z" />
    <glyph glyph-name="uni0490" unicode="&#x490;" horiz-adv-x="630" 
d="M94 705h427v114h79v-189h-414v-630h-92v705z" />
    <glyph glyph-name="uni0491" unicode="&#x491;" horiz-adv-x="440" 
d="M77 505h276v86h75v-161h-268v-430h-83v505z" />
    <glyph glyph-name="Wgrave" unicode="&#x1e80;" horiz-adv-x="1088" 
d="M494 788l-110 113h103l105 -113h-98zM48 705h88l180 -628h10l160 628h118l159 -628h10l180 628h87l-204 -705h-140l-147 595h-9l-147 -595h-140z" />
    <glyph glyph-name="wgrave" unicode="&#x1e81;" horiz-adv-x="840" 
d="M267 735h94l107 -142h-87zM22 505h82l141 -423h9l113 423h106l116 -424h9l138 424h82l-169 -505h-119l-105 409h-10l-106 -409h-118z" />
    <glyph glyph-name="Wacute" unicode="&#x1e82;" horiz-adv-x="1088" 
d="M604 901h103l-110 -113h-98zM48 705h88l180 -628h10l160 628h118l159 -628h10l180 628h87l-204 -705h-140l-147 595h-9l-147 -595h-140z" />
    <glyph glyph-name="wacute" unicode="&#x1e83;" horiz-adv-x="840" 
d="M374 593l107 142h94l-114 -142h-87zM22 505h82l141 -423h9l113 423h106l116 -424h9l138 424h82l-169 -505h-119l-105 409h-10l-106 -409h-118z" />
    <glyph glyph-name="Wdieresis" unicode="&#x1e84;" horiz-adv-x="1088" 
d="M387.5 807q-16.5 17 -16.5 43t16.5 42t42.5 16t43 -16.5t17 -41.5q0 -26 -17 -43t-43 -17t-42.5 17zM618 807q-17 17 -17 43q0 25 17 41.5t43 16.5t43 -16.5t17 -41.5q0 -26 -17 -43t-43 -17t-43 17zM48 705h88l180 -628h10l160 628h118l159 -628h10l180 628h87
l-204 -705h-140l-147 595h-9l-147 -595h-140z" />
    <glyph glyph-name="wdieresis" unicode="&#x1e85;" horiz-adv-x="840" 
d="M261.5 616.5q-15.5 15.5 -15.5 38.5q0 24 15.5 39t39.5 15q25 0 40 -15t15 -39q0 -23 -15 -38.5t-40 -15.5q-24 0 -39.5 15.5zM501.5 616.5q-15.5 15.5 -15.5 38.5q0 24 15 39t40 15q24 0 39.5 -15t15.5 -39q0 -23 -15.5 -38.5t-39.5 -15.5t-39.5 15.5zM22 505h82
l141 -423h9l113 423h106l116 -424h9l138 424h82l-169 -505h-119l-105 409h-10l-106 -409h-118z" />
    <glyph glyph-name="uni1E9E" unicode="&#x1e9e;" horiz-adv-x="664" 
d="M330.5 -17.5q-36.5 7.5 -66.5 18.5v86q28 -15 63 -24t66 -9q61 0 98.5 37t37.5 101q0 65 -42 105.5t-123 40.5h-44v74h44q46 0 75 30.5t29 77.5q0 54 -39.5 88.5t-101.5 34.5q-68 0 -109.5 -47t-41.5 -125v-471h-92v480q0 70 31.5 125t87 86.5t126.5 31.5q66 0 118.5 -25
t82.5 -69.5t30 -100.5q0 -53 -25.5 -91t-68.5 -52v-9q67 -13 110.5 -66.5t43.5 -126.5q0 -58 -29.5 -105.5t-80 -75t-112.5 -27.5q-31 0 -67.5 7.5z" />
    <glyph glyph-name="Ygrave" unicode="&#x1ef2;" horiz-adv-x="660" 
d="M279 788l-109 113h103l105 -113h-99zM285 258l-255 447h96l200 -360h10l196 360h98l-253 -447v-258h-92v258z" />
    <glyph glyph-name="ygrave" unicode="&#x1ef3;" horiz-adv-x="533" 
d="M122 735h94l107 -142h-87zM85 -219.5q-22 4.5 -39 11.5v73q38 -15 67 -15q30 0 51 16.5t33.5 41t28.5 64.5l12 29l-225 504h87l173 -395h10l148 395h89l-200 -513q-30 -75 -52 -117t-56.5 -70.5t-85.5 -28.5q-19 0 -41 4.5z" />
    <glyph glyph-name="endash" unicode="&#x2013;" horiz-adv-x="670" 
d="M50 349h570v-75h-570v75z" />
    <glyph glyph-name="emdash" unicode="&#x2014;" horiz-adv-x="870" 
d="M50 349h770v-75h-770v75z" />
    <glyph glyph-name="quoteleft" unicode="&#x2018;" horiz-adv-x="213" 
d="M163 730l-46 -116q20 -5 31.5 -19.5t11.5 -35.5q0 -23 -15 -38.5t-40 -15.5q-24 0 -39.5 15.5t-15.5 38.5q0 18 11 43l61 138z" />
    <glyph glyph-name="quoteright" unicode="&#x2019;" horiz-adv-x="213" 
d="M50 513l46 116q-20 5 -31.5 19.5t-11.5 35.5q0 24 15.5 39t39.5 15t39.5 -15.5t15.5 -38.5q0 -18 -11 -43l-61 -138z" />
    <glyph glyph-name="quotesinglbase" unicode="&#x201a;" horiz-adv-x="213" 
d="M50 -128l46 116q-20 5 -31.5 19.5t-11.5 34.5q0 24 15 39.5t40 15.5q24 0 39.5 -15.5t15.5 -39.5q0 -17 -11 -42l-61 -138z" />
    <glyph glyph-name="quotedblleft" unicode="&#x201c;" horiz-adv-x="377" 
d="M163 730l-46 -116q20 -5 31.5 -19.5t11.5 -35.5q0 -23 -15 -38.5t-40 -15.5q-24 0 -39.5 15.5t-15.5 38.5q0 18 11 43l61 138zM327 730l-46 -116q20 -5 31.5 -19.5t11.5 -35.5q0 -23 -15.5 -38.5t-39.5 -15.5t-39.5 15.5t-15.5 38.5q0 18 11 43l61 138z" />
    <glyph glyph-name="quotedblright" unicode="&#x201d;" horiz-adv-x="375" 
d="M50 513l46 116q-20 5 -31.5 19.5t-11.5 35.5q0 24 15.5 39t39.5 15t39.5 -15.5t15.5 -38.5q0 -18 -11 -43l-61 -138zM213 513l46 116q-20 5 -31.5 19.5t-11.5 35.5q0 24 15.5 39t39.5 15t39.5 -15.5t15.5 -38.5q0 -18 -11 -43l-61 -138z" />
    <glyph glyph-name="quotedblbase" unicode="&#x201e;" horiz-adv-x="377" 
d="M50 -128l46 116q-20 5 -31.5 19.5t-11.5 34.5q0 24 15 39.5t40 15.5q24 0 39.5 -15.5t15.5 -39.5q0 -17 -11 -42l-61 -138zM214 -128l46 116q-20 5 -31.5 19.5t-11.5 34.5q0 24 15.5 39.5t39.5 15.5t39.5 -15.5t15.5 -39.5q0 -17 -11 -42l-61 -138z" />
    <glyph glyph-name="dagger" unicode="&#x2020;" horiz-adv-x="510" 
d="M218 279h-168v70h168v382h74v-382h168v-70h-168v-504h-74v504z" />
    <glyph glyph-name="daggerdbl" unicode="&#x2021;" horiz-adv-x="570" 
d="M248 154h-198v67h198v186h-198v67h198v261h74v-261h198v-67h-198v-186h198v-67h-198v-384h-74v384z" />
    <glyph glyph-name="bullet" unicode="&#x2022;" horiz-adv-x="233" 
d="M69.5 264q-18.5 18 -18.5 46t18.5 46t47.5 18t47.5 -18t18.5 -46t-18.5 -46t-47.5 -18t-47.5 18z" />
    <glyph glyph-name="ellipsis" unicode="&#x2026;" horiz-adv-x="553" 
d="M65.5 2.5q-15.5 15.5 -15.5 39.5t15.5 39.5t39.5 15.5t39.5 -15.5t15.5 -39.5t-15.5 -39.5t-39.5 -15.5t-39.5 15.5zM236.5 2.5q-15.5 15.5 -15.5 39.5t15.5 39.5t39.5 15.5q25 0 40.5 -15.5t15.5 -39.5t-15.5 -39.5t-40.5 -15.5q-24 0 -39.5 15.5zM408 2.5
q-15 15.5 -15 39.5t15 39.5t40 15.5q24 0 39.5 -15.5t15.5 -39.5t-15.5 -39.5t-39.5 -15.5q-25 0 -40 15.5z" />
    <glyph glyph-name="perthousand" unicode="&#x2030;" horiz-adv-x="1479" 
d="M148 367.5q-46 25.5 -71.5 71.5t-25.5 105t25.5 104.5t71.5 71t105 25.5t105 -25.5t71.5 -71t25.5 -104.5t-25.5 -105t-71.5 -71.5t-105 -25.5t-105 25.5zM716 735h101l-516 -735h-101zM337 459q32 32 32 85q0 52 -32 84t-85 32q-52 0 -84 -32t-32 -84t32 -84.5t84 -32.5
q53 0 85 32zM659.5 15.5q-45.5 25.5 -71 71.5t-25.5 105t25.5 105t71 71.5t104.5 25.5t105 -25.5t71.5 -71.5t25.5 -105t-25.5 -105t-71.5 -71.5t-105 -25.5t-104.5 25.5zM1122 15.5q-46 25.5 -71.5 71.5t-25.5 105t25.5 104.5t71.5 71t105 25.5t105 -25.5t71.5 -71
t25.5 -104.5t-25.5 -105t-71.5 -71.5t-105 -25.5t-105 25.5zM848.5 108q32.5 32 32.5 84t-32.5 84.5t-84.5 32.5t-84 -32.5t-32 -84.5t32 -84t84 -32t84.5 32zM1311 108q32 32 32 84t-32.5 84.5t-84.5 32.5t-84 -32.5t-32 -84.5t32 -84t84 -32q53 0 85 32z" />
    <glyph glyph-name="guilsinglleft" unicode="&#x2039;" horiz-adv-x="363" 
d="M13 253l200 252h99l-203 -252l203 -253h-99z" />
    <glyph glyph-name="guilsinglright" unicode="&#x203a;" horiz-adv-x="361" 
d="M50 0l203 253l-203 252h99l200 -252l-200 -253h-99z" />
    <glyph glyph-name="lira" unicode="&#x20a4;" horiz-adv-x="612" 
d="M51 90q39 6 65 36.5t36 104.5h-94v55h101q2 18 2 59h-103v58h103v128q0 57 25 102t69.5 70.5t99.5 25.5q57 0 102.5 -27.5t73 -76t30.5 -109.5h-81q-3 61 -38 101t-86 40q-49 0 -79 -35.5t-30 -90.5v-128h248v-58h-248q0 -21 -2 -59h250v-58h-260q-10 -67 -34.5 -101.5
t-65.5 -52.5v-10h424v-64h-508v90z" />
    <glyph glyph-name="Euro" unicode="&#x20ac;" horiz-adv-x="906" 
d="M627 78.5q51 23.5 88 65t51 92.5l88 -17q-18 -69 -67 -125t-119 -87.5t-148 -31.5q-89 0 -163 35.5t-124 99t-68 147.5h-114v61h105q-1 11 -1 35q0 13 2 39h-106v61h115q19 82 69 145t123.5 97.5t161.5 34.5q78 0 148 -33t119.5 -91.5t66.5 -131.5l-89 -12
q-13 54 -49 96.5t-87.5 67t-108.5 24.5q-95 0 -164 -53.5t-96 -143.5h295v-61h-307q-2 -26 -2 -39t2 -35h307v-61h-296q26 -92 96 -147t165 -55q56 0 107 23.5z" />
    <glyph glyph-name="uni20BD" unicode="&#x20bd;" horiz-adv-x="731" 
d="M621 648q69 -57 69 -157q0 -66 -32 -115.5t-89.5 -76t-132.5 -26.5h-192v-75h202v-81h-202v-117h-88v117h-106v81h106v75h-106v81h106v351h280q116 0 185 -57zM556.5 390.5q43.5 36.5 43.5 98.5q0 63 -44 99.5t-120 36.5h-192v-271h192q77 0 120.5 36.5z" />
    <glyph glyph-name="uni2116" unicode="&#x2116;" horiz-adv-x="931" 
d="M94 705h122l276 -575h10v575h85v-705h-122l-275 575h-10v-575h-86v705zM681 297q-31 31 -31 78t31 78t80 31q50 0 80.5 -30.5t30.5 -78.5q0 -47 -31 -78t-80 -31t-80 31zM800.5 338q15.5 15 15.5 37t-15.5 37t-38.5 15q-24 0 -39.5 -15t-15.5 -37t15.5 -37t39.5 -15
q23 0 38.5 15zM645 208h236v-59h-236v59z" />
    <glyph glyph-name="trademark" unicode="&#x2122;" horiz-adv-x="1102" 
d="M160 641h-149v64h372v-64h-151v-491h-72v491zM459 705h113l161 -451h9l160 451h115v-555h-70v451h-9l-167 -451h-66l-167 451h-9v-451h-70v555z" />
    <glyph glyph-name="arrowleft" unicode="&#x2190;" horiz-adv-x="640" 
d="M50 253l199 203h108l-166 -162v-4h399v-74h-399v-4l166 -162h-108z" />
    <glyph glyph-name="arrowup" unicode="&#x2191;" horiz-adv-x="506" 
d="M216 400h-4l-162 -167v109l203 199l203 -199v-109l-162 167h-4v-400h-74v400z" />
    <glyph glyph-name="arrowright" unicode="&#x2192;" horiz-adv-x="640" 
d="M449 212v4h-399v74h399v4l-166 162h108l199 -203l-199 -203h-108z" />
    <glyph glyph-name="arrowdown" unicode="&#x2193;" horiz-adv-x="506" 
d="M50 199v108l162 -166h4v400h74v-400h4l162 166v-108l-203 -199z" />
    <glyph glyph-name="uni2196" unicode="&#x2196;" horiz-adv-x="512" 
d="M126 335l-3 -2l4 -233l-77 78l3 284l284 3l78 -77l-234 4l-2 -3l283 -283l-53 -53z" />
    <glyph glyph-name="uni2197" unicode="&#x2197;" horiz-adv-x="512" 
d="M50 106l283 283l-2 3l-233 -4l77 77l284 -3l3 -284l-77 -78l4 233l-3 2l-283 -282z" />
    <glyph glyph-name="uni2198" unicode="&#x2198;" horiz-adv-x="512" 
d="M98 153l233 -4l2 3l-283 283l53 53l283 -282l3 1l-4 234l77 -78l-3 -284l-284 -3z" />
    <glyph glyph-name="uni2199" unicode="&#x2199;" horiz-adv-x="512" 
d="M53 79l-3 284l77 78l-4 -234l3 -1l283 282l53 -53l-283 -283l2 -3l234 4l-78 -77z" />
    <glyph glyph-name="minus" unicode="&#x2212;" horiz-adv-x="512" 
d="M51 401h410v-75h-410v75z" />
    <glyph glyph-name="notequal" unicode="&#x2260;" horiz-adv-x="571" 
d="M192 190h-141v75h169l66 175h-235v75h263l60 161h76l-61 -161h132v-75h-160l-65 -175h225v-75h-253l-71 -190h-77z" />
    <glyph glyph-name="lessequal" unicode="&#x2264;" horiz-adv-x="453" 
d="M50 355v90l353 157v-82l-279 -114v-10l279 -116v-80zM50 155h353v-75h-353v75z" />
    <glyph glyph-name="greaterequal" unicode="&#x2265;" horiz-adv-x="453" 
d="M50 280l279 116v10l-279 114v82l353 -157v-90l-353 -155v80zM50 80v75h353v-75h-353z" />
    <glyph glyph-name="uniF6C3" unicode="&#xf6c3;" horiz-adv-x="0" 
d="M-145 -258l37 74q-23 2 -38 16.5t-15 35.5q0 23 15.5 38.5t39.5 15.5q25 0 40.5 -15.5t15.5 -38.5t-12 -43l-49 -93z" />
    <glyph glyph-name="uni0430.alt1" unicode="&#xfb00;" horiz-adv-x="670" 
d="M177.5 15q-59.5 35 -93 97.5t-33.5 140.5t33.5 140t92.5 97t134 35q117 0 190 -102h9v82h83v-505h-83v83h-9q-71 -103 -190 -103q-74 0 -133.5 35zM418 80.5q43 25.5 67 70.5t24 102q0 56 -24 101t-67 70.5t-96 25.5q-54 0 -97 -25.5t-67 -70.5t-24 -101t24 -101.5
t67 -71t97 -25.5q53 0 96 25.5z" />
    <glyph glyph-name="a.alt1" horiz-adv-x="670" 
d="M177.5 15q-59.5 35 -93 97.5t-33.5 140.5t33.5 140t92.5 97t134 35q117 0 190 -102h9v82h83v-505h-83v83h-9q-71 -103 -190 -103q-74 0 -133.5 35zM418 80.5q43 25.5 67 70.5t24 102q0 56 -24 101t-67 70.5t-96 25.5q-54 0 -97 -25.5t-67 -70.5t-24 -101t24 -101.5
t67 -71t97 -25.5q53 0 96 25.5z" />
    <glyph glyph-name="agrave.alt1" horiz-adv-x="670" 
d="M175 735h94l107 -142h-87zM177.5 15q-59.5 35 -93 97.5t-33.5 140.5t33.5 140t92.5 97t134 35q117 0 190 -102h9v82h83v-505h-83v83h-9q-71 -103 -190 -103q-74 0 -133.5 35zM418 80.5q43 25.5 67 70.5t24 102q0 56 -24 101t-67 70.5t-96 25.5q-54 0 -97 -25.5t-67 -70.5
t-24 -101t24 -101.5t67 -71t97 -25.5q53 0 96 25.5z" />
    <glyph glyph-name="aacute.alt1" horiz-adv-x="670" 
d="M282 593l107 142h94l-114 -142h-87zM177.5 15q-59.5 35 -93 97.5t-33.5 140.5t33.5 140t92.5 97t134 35q117 0 190 -102h9v82h83v-505h-83v83h-9q-71 -103 -190 -103q-74 0 -133.5 35zM418 80.5q43 25.5 67 70.5t24 102q0 56 -24 101t-67 70.5t-96 25.5q-54 0 -97 -25.5
t-67 -70.5t-24 -101t24 -101.5t67 -71t97 -25.5q53 0 96 25.5z" />
    <glyph glyph-name="atilde.alt1" horiz-adv-x="670" 
d="M348 601.5q-19 8.5 -40 24.5q-16 12 -27.5 18t-26.5 6q-18 0 -34 -10t-25 -26l-44 33q14 30 44 49t66 19q25 0 42.5 -8.5t39.5 -23.5q17 -13 29.5 -19.5t28.5 -6.5q20 0 36.5 10.5t24.5 27.5l45 -33q-14 -31 -44 -50t-69 -19q-27 0 -46 8.5zM177.5 15q-59.5 35 -93 97.5
t-33.5 140.5t33.5 140t92.5 97t134 35q117 0 190 -102h9v82h83v-505h-83v83h-9q-71 -103 -190 -103q-74 0 -133.5 35zM418 80.5q43 25.5 67 70.5t24 102q0 56 -24 101t-67 70.5t-96 25.5q-54 0 -97 -25.5t-67 -70.5t-24 -101t24 -101.5t67 -71t97 -25.5q53 0 96 25.5z" />
    <glyph glyph-name="adieresis.alt1" horiz-adv-x="670" 
d="M169.5 616.5q-15.5 15.5 -15.5 38.5q0 24 15.5 39t39.5 15t39.5 -15t15.5 -39q0 -23 -15.5 -38.5t-39.5 -15.5t-39.5 15.5zM408.5 616.5q-15.5 15.5 -15.5 38.5q0 24 15.5 39t40.5 15q24 0 39.5 -15t15.5 -39q0 -23 -15.5 -38.5t-39.5 -15.5q-25 0 -40.5 15.5zM177.5 15
q-59.5 35 -93 97.5t-33.5 140.5t33.5 140t92.5 97t134 35q117 0 190 -102h9v82h83v-505h-83v83h-9q-71 -103 -190 -103q-74 0 -133.5 35zM418 80.5q43 25.5 67 70.5t24 102q0 56 -24 101t-67 70.5t-96 25.5q-54 0 -97 -25.5t-67 -70.5t-24 -101t24 -101.5t67 -71t97 -25.5
q53 0 96 25.5z" />
    <glyph glyph-name="aring.alt1" horiz-adv-x="670" 
d="M250.5 617.5q-30.5 29.5 -30.5 74.5q0 46 30.5 75t78.5 29t78 -29t30 -75q0 -45 -30 -74.5t-78 -29.5t-78.5 29.5zM375 646q18 18 18 46t-18 46t-46 18t-46 -17.5t-18 -46.5q0 -28 18 -46t46 -18t46 18zM177.5 15q-59.5 35 -93 97.5t-33.5 140.5t33.5 140t92.5 97t134 35
q117 0 190 -102h9v82h83v-505h-83v83h-9q-71 -103 -190 -103q-74 0 -133.5 35zM418 80.5q43 25.5 67 70.5t24 102q0 56 -24 101t-67 70.5t-96 25.5q-54 0 -97 -25.5t-67 -70.5t-24 -101t24 -101.5t67 -71t97 -25.5q53 0 96 25.5z" />
    <glyph glyph-name="amacron.alt1" horiz-adv-x="670" 
d="M174 668h310v-66h-310v66zM177.5 15q-59.5 35 -93 97.5t-33.5 140.5t33.5 140t92.5 97t134 35q117 0 190 -102h9v82h83v-505h-83v83h-9q-71 -103 -190 -103q-74 0 -133.5 35zM418 80.5q43 25.5 67 70.5t24 102q0 56 -24 101t-67 70.5t-96 25.5q-54 0 -97 -25.5t-67 -70.5
t-24 -101t24 -101.5t67 -71t97 -25.5q53 0 96 25.5z" />
    <glyph glyph-name="abreve.alt1" horiz-adv-x="670" 
d="M233 639q-38 38 -38 96h70q0 -33 17 -53t47 -20q29 0 46.5 20t17.5 53h69q0 -58 -37.5 -96t-95.5 -38t-96 38zM177.5 15q-59.5 35 -93 97.5t-33.5 140.5t33.5 140t92.5 97t134 35q117 0 190 -102h9v82h83v-505h-83v83h-9q-71 -103 -190 -103q-74 0 -133.5 35zM418 80.5
q43 25.5 67 70.5t24 102q0 56 -24 101t-67 70.5t-96 25.5q-54 0 -97 -25.5t-67 -70.5t-24 -101t24 -101.5t67 -71t97 -25.5q53 0 96 25.5z" />
    <glyph glyph-name="aogonek.alt1" horiz-adv-x="670" 
d="M593 505v-505h-12q-56 -24 -86 -53t-30 -58q0 -19 11.5 -30t32.5 -11q26 0 58 20v-47q-38 -21 -74 -21q-34 0 -55 21.5t-21 55.5t23.5 66t69.5 60v80h-9q-71 -103 -190 -103q-74 0 -133.5 35t-93 97.5t-33.5 140.5t33.5 140t92.5 97t134 35q117 0 190 -102h9v82h83z
M418 80.5q43 25.5 67 70.5t24 102q0 56 -24 101t-67 70.5t-96 25.5q-54 0 -97 -25.5t-67 -70.5t-24 -101t24 -101.5t67 -71t97 -25.5q53 0 96 25.5z" />
    <glyph glyph-name="acircumflex.alt1" horiz-adv-x="670" 
d="M284 735h93l115 -142h-82l-74 86h-10l-76 -86h-80zM177.5 15q-59.5 35 -93 97.5t-33.5 140.5t33.5 140t92.5 97t134 35q117 0 190 -102h9v82h83v-505h-83v83h-9q-71 -103 -190 -103q-74 0 -133.5 35zM418 80.5q43 25.5 67 70.5t24 102q0 56 -24 101t-67 70.5t-96 25.5
q-54 0 -97 -25.5t-67 -70.5t-24 -101t24 -101.5t67 -71t97 -25.5q53 0 96 25.5z" />
    <glyph glyph-name="IJacute" horiz-adv-x="701" 
d="M193 901h103l-110 -113h-98zM611 901h103l-109 -113h-99zM95 705h91v-705h-91v705zM335.5 -14.5q-35.5 5.5 -64.5 14.5v78q26 -8 57 -13t52 -5q63 0 102.5 41t39.5 110v494h91v-493q0 -68 -27.5 -120.5t-76.5 -82t-110 -29.5q-28 0 -63.5 5.5z" />
    <glyph glyph-name="ijacute" horiz-adv-x="485" 
d="M182 735h94l-113 -143h-87zM425 735h94l-113 -143h-87zM84 505h83v-505h-83v505zM191 -207v63q31 -10 65 -8q34 0 55 22t21 58v577h83v-580q0 -65 -38 -105t-99 -40q-50 0 -87 13z" />
    <glyph glyph-name="acute.case" horiz-adv-x="309" 
d="M156 901h103l-110 -113h-98z" />
    <glyph glyph-name="breve.case" horiz-adv-x="401" 
d="M93.5 813q-42.5 35 -42.5 88h82q0 -28 18 -43.5t50 -15.5t50.5 15.5t18.5 43.5h81q0 -53 -42 -88t-108 -35q-65 0 -107.5 35z" />
    <glyph glyph-name="caron.case" horiz-adv-x="430" 
d="M51 901h84l75 -62h11l74 62h85l-116 -113h-98z" />
    <glyph glyph-name="caron.alt1" horiz-adv-x="212" 
d="M67 536l37 74q-23 2 -38 16t-15 35q0 24 15.5 39t39.5 15q25 0 40.5 -15t15.5 -39q0 -22 -12 -42l-49 -93z" />
    <glyph glyph-name="circumflex.case" horiz-adv-x="430" 
d="M263 902l116 -114h-84l-75 63h-10l-75 -63h-84l115 114h97z" />
    <glyph glyph-name="dieresis.case" horiz-adv-x="451" 
d="M67.5 807q-16.5 17 -16.5 43t16.5 42t42.5 16t43 -16.5t17 -41.5q0 -26 -17 -43t-43 -17t-42.5 17zM298 807q-17 17 -17 43q0 25 17 41.5t43 16.5t42.5 -16t16.5 -42t-16.5 -43t-42.5 -17t-43 17z" />
    <glyph glyph-name="dotaccent.case" horiz-adv-x="220" 
d="M67.5 807q-16.5 17 -16.5 43t16.5 42t42.5 16t43 -16.5t17 -41.5q0 -26 -17 -43t-43 -17t-42.5 17z" />
    <glyph glyph-name="grave.case" horiz-adv-x="308" 
d="M160 788l-110 113h103l105 -113h-98z" />
    <glyph glyph-name="hungarumlaut.case" horiz-adv-x="456" 
d="M144 901h101l-107 -113h-87zM306 901h99l-112 -113h-86z" />
    <glyph glyph-name="ring.case" horiz-adv-x="299" 
d="M79 795.5q-28 26.5 -28 67.5t28 67.5t71 26.5t70.5 -26.5t27.5 -67.5t-27.5 -67.5t-70.5 -26.5t-71 26.5zM188.5 824.5q15.5 15.5 15.5 38.5q0 24 -15.5 39t-38.5 15q-24 0 -39 -15t-15 -39q0 -23 15 -38.5t39 -15.5q23 0 38.5 15.5z" />
    <glyph glyph-name="tilde.case" horiz-adv-x="457" 
d="M247.5 806.5q-18.5 8.5 -40.5 25.5q-16 12 -26.5 17.5t-23.5 5.5q-37 0 -63 -46l-43 32q14 31 43 50t66 19q25 0 43.5 -8.5t39.5 -24.5q18 -12 29 -18t26 -6q20 0 37 12.5t28 33.5l44 -32q-15 -32 -44.5 -50.5t-68.5 -18.5q-28 0 -46.5 8.5z" />
    <glyph glyph-name="uni0432.alt1" horiz-adv-x="594" 
d="M184 10q-55 30 -86 83.5t-31 121.5v304q0 67 28 120t78.5 83t115.5 30q54 0 97 -20.5t67.5 -57t24.5 -81.5q0 -52 -30 -101.5t-76 -75.5q77 -16 124.5 -73.5t47.5 -141.5q0 -65 -30 -115.5t-83 -78t-121 -27.5q-71 0 -126 30zM395 581q0 44 -29.5 70t-77.5 26
q-61 0 -99.5 -41.5t-38.5 -106.5v-133q245 65 245 185zM418.5 96q42.5 41 42.5 108q0 46 -21 83t-58 58.5t-84 21.5l-31 -11q-56 -20 -117 -39v-104q0 -69 44 -113.5t115 -44.5q67 0 109.5 41z" />
    <glyph glyph-name="uni0433.alt" horiz-adv-x="545" 
d="M109.5 21q-54.5 41 -54.5 115q0 56 29 88.5t72.5 47t102.5 21.5q53 6 79.5 11.5t45 21t18.5 44.5q0 39 -34 62t-89 23q-59 0 -95 -27.5t-37 -73.5h-81q0 78 58.5 124.5t153.5 46.5q92 0 147.5 -42.5t55.5 -115.5q0 -77 -56 -108.5t-147 -42.5q-55 -7 -81 -13t-45 -21.5
t-19 -46.5q0 -40 34 -62.5t91 -22.5q70 0 110.5 33t41.5 88h80q0 -90 -60 -140.5t-169 -50.5q-97 0 -151.5 41z" />
    <glyph glyph-name="uni0414.alt1" horiz-adv-x="837" 
d="M23 80h98l234 625h137l230 -625h91v-230h-82v150h-625v-150h-83v230zM626 80l-199 545h-10l-201 -545h410z" />
    <glyph glyph-name="uni0434.alt1" horiz-adv-x="666" 
d="M155.5 -205.5q-68.5 44.5 -94.5 123.5l83 31q20 -59 67 -91.5t114 -32.5q83 0 132.5 49.5t49.5 134.5v68h-10q-71 -90 -184 -90q-75 0 -135 34t-93.5 95t-33.5 137q0 77 34 139t93.5 97t134.5 35q115 0 185 -91h10v72h82v-496q0 -78 -33 -136.5t-94 -90.5t-142 -32
q-97 0 -165.5 44.5zM419 85q43 25 67 69t24 99q0 56 -24.5 101t-67.5 70.5t-96 25.5q-54 0 -97 -25.5t-67 -70.5t-24 -101q0 -55 24 -99t67 -69t97 -25t97 25z" />
    <glyph glyph-name="uni0437.alt1" horiz-adv-x="530" 
d="M132 -222.5q-55 27.5 -86.5 75.5t-31.5 108h83q0 -62 43.5 -99t110.5 -37q71 0 114 42.5t43 109.5q0 61 -36.5 98t-93.5 37h-116v75h117q51 0 83.5 36t32.5 91q0 60 -39.5 98t-101.5 38q-60 0 -100 -36t-40 -91h-82q0 56 28.5 102t80 73t115.5 27q62 0 112 -25.5t79 -71
t29 -103.5q0 -60 -29.5 -105.5t-77.5 -62.5v-10q54 -15 88 -66t34 -118q0 -61 -30 -109.5t-83.5 -76t-122.5 -27.5q-68 0 -123 27.5z" />
    <glyph glyph-name="uni0436.alt" horiz-adv-x="697" 
d="M224 263l-210 242h95l189 -219h10v449h83v-449h9l189 219h96l-210 -242l219 -263h-98l-196 238h-9v-238h-83v238h-10l-195 -238h-99z" />
    <glyph glyph-name="uni0438.alt1" 
d="M528 0h-83v69h-10q-26 -41 -67.5 -64t-90.5 -23q-63 0 -111 28.5t-73.5 79t-25.5 114.5v301h83v-301q0 -66 36.5 -106.5t100.5 -40.5q42 0 78.5 20t58 55.5t21.5 78.5v294h83v-505z" />
    <glyph glyph-name="uni0439.alt1" 
d="M199.5 638.5q-37.5 37.5 -37.5 96.5h69q0 -33 17 -53t47 -20q29 0 46.5 20t17.5 53h69q0 -58 -37.5 -96t-95.5 -38t-95.5 37.5zM528 0h-83v69h-10q-26 -41 -67.5 -64t-90.5 -23q-63 0 -111 28.5t-73.5 79t-25.5 114.5v301h83v-301q0 -66 36.5 -106.5t100.5 -40.5
q42 0 78.5 20t58 55.5t21.5 78.5v294h83v-505z" />
    <glyph glyph-name="uni043A.alt1" horiz-adv-x="503" 
d="M77 735h83v-446h10l216 216h110l-249 -242l255 -263h-111l-221 235h-10v-235h-83v735z" />
    <glyph glyph-name="uni041B.alt1" horiz-adv-x="712" 
d="M291 705h136l256 -705h-96l-225 625h-9l-227 -625h-96z" />
    <glyph glyph-name="uni043B.alt1" horiz-adv-x="548" 
d="M210 505h128l198 -505h-88l-169 440h-10l-166 -440h-90z" />
    <glyph glyph-name="uni0442.alt1" horiz-adv-x="928" 
d="M77 505h80v-67h10q22 40 60.5 63.5t86.5 23.5q53 0 98 -27t67 -71h9q27 46 70 71.5t99 25.5q59 0 105.5 -28.5t72.5 -79t26 -115.5v-301h-83v302q0 64 -37 106t-94 42q-61 0 -99.5 -41.5t-38.5 -106.5v-302h-83v302q0 67 -35.5 107.5t-94.5 40.5q-61 0 -98.5 -40.5
t-37.5 -107.5v-302h-83v505z" />
    <glyph glyph-name="uni043F.alt1" 
d="M77 505h83v-69h10q27 42 68 65t91 23q63 0 110.5 -28.5t73.5 -79t26 -114.5v-302h-83v302q0 65 -37 106t-101 41q-42 0 -78.5 -20t-58 -55.5t-21.5 -78.5v-295h-83v505z" />
    <glyph glyph-name="uni0446.alt1" horiz-adv-x="631" 
d="M543 0h-99v67h-10q-27 -40 -68 -62.5t-90 -22.5q-63 0 -110.5 28.5t-73 79t-25.5 114.5v303h83v-303q0 -66 36 -106.5t100 -40.5q42 0 78.5 20t58 55.5t21.5 78.5v294h83v-430h91v-225h-75v150z" />
    <glyph glyph-name="uni0448.alt1" horiz-adv-x="928" 
d="M852 0h-81v68h-9q-22 -40 -61 -64t-87 -24q-53 0 -98 27t-66 72h-10q-26 -46 -69.5 -72t-99.5 -26q-59 0 -105.5 28.5t-72.5 79.5t-26 115v301h83v-302q0 -65 37 -106.5t95 -41.5q60 0 98.5 41.5t38.5 106.5v302h83v-302q0 -67 35.5 -107.5t94.5 -40.5q62 0 99.5 40.5
t37.5 107.5v302h83v-505z" />
    <glyph glyph-name="uni0449.alt1" horiz-adv-x="955" 
d="M867 0h-97v68h-9q-22 -40 -61 -64t-87 -24q-53 0 -99 27t-68 72h-9q-27 -46 -69.5 -72t-97.5 -26q-58 0 -104.5 28.5t-72.5 79.5t-26 115v301h83v-302q0 -64 37 -106t94 -42q60 0 98.5 41.5t38.5 106.5v302h83v-302q0 -67 35.5 -107.5t94.5 -40.5q62 0 99.5 40.5
t37.5 107.5v302h83v-430h91v-225h-75v150z" />
    <glyph glyph-name="uni044A.alt1" horiz-adv-x="551" 
d="M230.5 22.5q-43.5 22.5 -68.5 62t-25 89.5v256h-124v75h207v-155h109q55 0 99 -22.5t68.5 -62.5t24.5 -89q0 -51 -25 -91t-68.5 -62.5t-98.5 -22.5t-98.5 22.5zM407 103.5q31 28.5 31 71.5q0 44 -30 72t-79 28h-109v-102q0 -43 31 -70.5t78 -27.5t78 28.5z" />
    <glyph glyph-name="uni044C.alt1" horiz-adv-x="481" 
d="M160 22.5q-44 22.5 -68.5 62t-24.5 89.5v331h83v-155h109q55 0 99 -22.5t68.5 -62.5t24.5 -89q0 -51 -25 -91t-68.5 -62.5t-98.5 -22.5t-99 22.5zM337 103.5q31 28.5 31 71.5q0 44 -30 72t-79 28h-109v-102q0 -43 31 -70.5t78 -27.5t78 28.5z" />
    <glyph glyph-name="uni044E.alt1" horiz-adv-x="793" 
d="M366 7.5q-55 30.5 -89.5 85t-40.5 124.5h-76v-222h-83v740h83v-448h75q8 69 42.5 122.5t89 83.5t121.5 30q73 0 131 -35t91 -97t33 -140q0 -79 -33 -141.5t-91 -97.5t-131 -35q-67 0 -122 30.5zM580 76.5q40 24.5 62 70t22 104.5t-22 103.5t-62 69t-92 24.5
q-79 0 -127.5 -54t-48.5 -143q0 -90 48.5 -144.5t127.5 -54.5q52 0 92 24.5z" />
    <glyph glyph-name="uni0424.alt1" horiz-adv-x="876" 
d="M392 -3q-98 6 -175.5 53t-121.5 126t-44 177t44 177t122 126t176 52v52h91v-52q98 -4 175.5 -50t121.5 -125.5t44 -179.5t-44 -179.5t-121.5 -126t-176.5 -50.5v-61h-91v61zM393 628q-72 -4 -129 -40.5t-89.5 -97.5t-32.5 -137q0 -77 32.5 -138t89.5 -97t129 -40v550z
M613 115.5q57 35.5 89 97.5t32 140t-32 139.5t-89 97t-129 38.5v-550q72 2 129 37.5z" />
    </font>
</defs>
</svg>
