<svg width="16" height="16" viewBox="0 0 16 16" fill="none" xmlns="http://www.w3.org/2000/svg">
<path d="M11.3591 7.70587C11.0828 7.71647 10.4824 7.79973 10.4342 7.41756C10.3687 6.89909 11.0466 6.11074 12.1816 5.20349C12.5325 4.90482 13.2759 4.41304 13.2104 3.89433C13.1587 3.48493 12.8206 3.2264 12.2033 3.39528C11.6133 3.56038 10.7371 4.09844 9.64031 5.30589C8.49218 6.54824 7.51556 8.48878 7.73603 10.2355C7.95997 12.0097 9.38447 13.6174 11.322 13.3487C12.8772 13.133 14.0662 11.7739 13.8629 10.1634C13.7076 8.93522 12.6826 7.63338 11.3591 7.70571L11.3591 7.70587Z" fill="white"/>
<path d="M6.38784 7.58637C6.14895 7.50028 5.8934 7.45768 5.62536 7.47239C5.34907 7.48299 4.74867 7.56625 4.70043 7.18409C4.63499 6.66561 5.31284 5.87726 6.44786 4.97001C6.79891 4.67132 7.54198 4.17958 7.47651 3.66087C7.42484 3.25147 7.08671 2.99294 6.46941 3.16182C5.87942 3.32692 5.00322 3.86498 3.90642 5.07243C2.75845 6.31476 1.78167 8.25532 2.00217 10.0023C2.22611 11.7764 3.65061 13.3841 5.58809 13.1154C6.04361 13.0522 6.46734 12.8904 6.83408 12.6535C6.36452 12.0152 6.05983 11.2435 5.96016 10.4539C5.83719 9.47901 6.03177 8.48997 6.38801 7.58628L6.38784 7.58637Z" fill="white"/>
</svg>
